<svg height="512" viewBox="0 0 52 60" width="512" xmlns="http://www.w3.org/2000/svg"><g id="006---Up-Arrow" fill="none"><g id="Icons" transform="translate(1)"><path id="Shape" d="m36 50v8c0 .5522847-.4477153 1-1 1h-20c-.5522847 0-1-.4477153-1-1v-8c0 .5522847.4477153 1 1 1h20c.5522847 0 1-.4477153 1-1z" fill="#673ab7"/><path id="Shape" d="m35 51h-2v7c0 .5522847-.4477153 1-1 1h3c.5522847 0 1-.4477153 1-1v-8c0 .5522847-.4477153 1-1 1z" fill="#4527a0"/><path id="Shape" d="m50 22h-13c-.5522847 0-1 .4477153-1 1v27c0 .5522847-.4477153 1-1 1h-20c-.5522847 0-1-.4477153-1-1v-27c0-.5522847-.4477153-1-1-1h-13l23.5-20.03.9-.77c.3544214-.27004762.8455786-.27004762 1.2 0z" fill="#9d27b0"/><path id="Shape" d="m33 23v27c0 .5522847-.4477153 1-1 1h3c.5522847 0 1-.4477153 1-1v-27c0-.5522847.4477153-1 1-1h-3c-.5522847 0-1 .4477153-1 1z" fill="#6a1b9a"/><path id="Shape" d="m25.6 1.2c-.3544214-.27004762-.8455786-.27004762-1.2 0l-.9.769 23.5 20.031h3z" fill="#6a1b9a"/><path id="Shape" d="m14 23v7h-13c-.55228475 0-1-.4477153-1-1v-7h13c.5522847 0 1 .4477153 1 1z" fill="#673ab7"/><path id="Shape" d="m50 22v7c0 .5522847-.4477153 1-1 1h-13v-7c0-.5522847.4477153-1 1-1z" fill="#673ab7"/><path id="Shape" d="m47 22v7c0 .5522847-.4477153 1-1 1h3c.5522847 0 1-.4477153 1-1v-7z" fill="#4527a0"/></g><g id="Layer_10" fill="#000"><path id="Shape" d="m2 31h12v27c0 1.1045695.8954305 2 2 2h20c1.1045695 0 2-.8954305 2-2v-27h12c1.1045695 0 2-.8954305 2-2v-7c-.0001877-.2929836-.1288518-.5711467-.352-.761l-24.448-20.839c-.7318088-.53893154-1.7332713-.52338596-2.448.038l-24.4 20.8c-.22341431.1900798-.35210549.468667-.352.762v7c0 1.1045695.8954305 2 2 2zm0-2v-6h12v6zm34 29h-20v-6h20zm2-29v-6h12v6zm-12.049-27.039 22.335 19.039h-10.286c-1.1045695 0-2 .8954305-2 2v27h-20v-27c0-1.1045695-.8954305-2-2-2h-10.294z"/><path id="Shape" d="m19 47c.5522847 0 1-.4477153 1-1v-16c0-.5522847-.4477153-1-1-1s-1 .4477153-1 1v16c0 .5522847.4477153 1 1 1z"/><path id="Shape" d="m19 27c.5522847 0 1-.4477153 1-1v-3c0-.5522847-.4477153-1-1-1s-1 .4477153-1 1v3c0 .5522847.4477153 1 1 1z"/></g></g></svg>