<?xml version="1.0" encoding="UTF-8" standalone="no"?>
<!-- Created with Inkscape (http://www.inkscape.org/) -->

<svg
   xmlns:dc="http://purl.org/dc/elements/1.1/"
   xmlns:cc="http://creativecommons.org/ns#"
   xmlns:rdf="http://www.w3.org/1999/02/22-rdf-syntax-ns#"
   xmlns:svg="http://www.w3.org/2000/svg"
   xmlns="http://www.w3.org/2000/svg"
   xmlns:sodipodi="http://sodipodi.sourceforge.net/DTD/sodipodi-0.dtd"
   xmlns:inkscape="http://www.inkscape.org/namespaces/inkscape"
   width="187mm"
   height="159mm"
   viewBox="0 0 187 159"
   version="1.1"
   id="svg4982"
   inkscape:version="0.92.3 (2405546, 2018-03-11)"
   sodipodi:docname="bank2.svg">
  <defs
     id="defs4976" />
  <sodipodi:namedview
     id="base"
     pagecolor="#ffffff"
     bordercolor="#666666"
     borderopacity="1.0"
     inkscape:pageopacity="0.0"
     inkscape:pageshadow="2"
     inkscape:zoom="0.35"
     inkscape:cx="-44.285714"
     inkscape:cy="560"
     inkscape:document-units="mm"
     inkscape:current-layer="layer6"
     showgrid="false"
     inkscape:window-width="1920"
     inkscape:window-height="1025"
     inkscape:window-x="1920"
     inkscape:window-y="27"
     inkscape:window-maximized="1" />
  <metadata
     id="metadata4979">
    <rdf:RDF>
      <cc:Work
         rdf:about="">
        <dc:format>image/svg+xml</dc:format>
        <dc:type
           rdf:resource="http://purl.org/dc/dcmitype/StillImage" />
        <dc:title></dc:title>
      </cc:Work>
    </rdf:RDF>
  </metadata>
  <g
     inkscape:groupmode="layer"
     id="layer6"
     inkscape:label="Layer 2"
     transform="translate(0,-138)">
    <ellipse
       cy="218.00299"
       cx="93.738091"
       class="st0"
       id="Ellipse_1"
       style="fill:#ff8800;fill-opacity:1;stroke-width:0.38514048"
       rx="92.702446"
       ry="78.717323" />
  </g>
  <g
     inkscape:label="Layer 1"
     inkscape:groupmode="layer"
     id="layer1"
     transform="translate(0,-138)">
    <g
       id="g4990"
       transform="matrix(0.26458333,0,0,0.26458333,25.381101,140.07752)"
       style="fill:#0063a6;fill-opacity:1">
      <path
         id="path4984"
         d="m 496.5,185.7 c 3,0 5.6,-1.2 7.6,-3.1 2,-2 3.1,-4.6 3.1,-7.6 v -60 c 0,-4.3 -2.6,-8.3 -6.6,-9.9 l -241,-100 c -1.3,-0.5 -2.7,-0.8 -4.1,-0.8 -1.4,0 -2.8,0.3 -4.1,0.8 l -241,100 c -4,1.7 -6.6,5.6 -6.6,9.9 v 60 c 0,3 1.2,5.6 3.1,7.6 2,2 4.6,3.1 7.6,3.1 h 30.3 v 178.5 h -9.3 c -3,0 -5.6,1.2 -7.6,3.1 -2,2 -3.1,4.6 -3.1,7.6 v 49.3 H 14.5 c -3,0 -5.6,1.2 -7.6,3.1 -2,2 -3.1,4.6 -3.1,7.6 v 62 c 0,3 1.2,5.6 3.1,7.6 2,2 4.6,3.1 7.6,3.1 h 482 c 3,0 5.6,-1.2 7.6,-3.1 2,-2 3.1,-4.6 3.1,-7.6 v -62 c 0,-3 -1.2,-5.6 -3.1,-7.6 -2,-2 -4.6,-3.1 -7.6,-3.1 H 486.2 V 375 c 0,-3 -1.2,-5.6 -3.1,-7.6 -2,-2 -4.6,-3.1 -7.6,-3.1 h -9.3 V 185.7 Z m -15,260 h 4.3 v 40.5 H 25.2 v -40.5 z m -361,-60 h 4.3 v 38.5 H 46.2 V 385.7 Z M 66.2,364.3 V 185.7 h 38.5 V 364.2 H 70.5 66.2 Z m 76.9,3.1 c -2,-2 -4.6,-3.1 -7.6,-3.1 h -9.3 V 185.7 h 258.5 v 178.5 h -9.3 c -3,0 -5.6,1.2 -7.6,3.1 -2,2 -3.1,4.6 -3.1,7.6 v 49.3 H 146.2 V 375 c 0,-3 -1.2,-5.6 -3.1,-7.6 z m 317.4,18.3 h 4.3 v 38.5 H 386.3 V 385.7 Z M 406.2,364.3 V 185.7 h 38.5 v 178.5 h -34.3 -4.2 z M 29.5,164.3 h -4.3 v -42.1 l 230.3,-95.5 230.3,95.5 v 42.1 z"
         inkscape:connector-curvature="0"
         style="fill:#0063a6;fill-opacity:1" />
      <path
         id="path4986"
         d="m 345.5,104.3 h -180 c -3,0 -5.6,1.2 -7.6,3.1 -2,2 -3.1,4.6 -3.1,7.6 0,3 1.2,5.6 3.1,7.6 2,2 4.6,3.1 7.6,3.1 h 180 c 3,0 5.6,-1.2 7.6,-3.1 2,-2 3.1,-4.6 3.1,-7.6 0,-3 -1.2,-5.6 -3.1,-7.6 -2,-2 -4.6,-3.1 -7.6,-3.1 z"
         inkscape:connector-curvature="0"
         style="fill:#0063a6;fill-opacity:1" />
      <path
         id="path4988"
         d="m 255.5,354.3 c -5.3,0 -10.1,-2.2 -13.6,-5.6 -3.5,-3.5 -5.6,-8.3 -5.6,-13.6 0,-3 -1.2,-5.6 -3.1,-7.6 -2,-2 -4.6,-3.1 -7.6,-3.1 -3,0 -5.6,1.2 -7.6,3.1 -2,2 -3.1,4.6 -3.1,7.6 0,8.9 2.8,17 7.7,23.7 4.8,6.7 11.6,11.9 19.5,14.7 l 2.8,1 V 385 c 0,3 1.2,5.6 3.1,7.6 2,2 4.6,3.1 7.6,3.1 3,0 5.6,-1.2 7.6,-3.1 2,-2 3.1,-4.6 3.1,-7.6 v -10.6 l 2.8,-1 c 7.9,-2.8 14.7,-8 19.5,-14.7 4.8,-6.7 7.6,-14.9 7.7,-23.7 0,-11.2 -4.6,-21.4 -11.9,-28.8 -7.4,-7.4 -17.6,-11.9 -28.8,-11.9 -5.3,0 -10.1,-2.2 -13.6,-5.6 -3.5,-3.5 -5.6,-8.3 -5.6,-13.6 0,-5.3 2.2,-10.1 5.6,-13.6 3.5,-3.5 8.3,-5.6 13.6,-5.6 5.3,0 10.1,2.2 13.6,5.6 3.5,3.5 5.6,8.3 5.6,13.6 0,3 1.2,5.6 3.1,7.6 2,2 4.6,3.1 7.6,3.1 3,0 5.6,-1.2 7.6,-3.1 2,-2 3.1,-4.6 3.1,-7.6 0,-8.9 -2.8,-17 -7.7,-23.7 -4.8,-6.7 -11.6,-11.9 -19.5,-14.7 l -2.8,-1 V 225 c 0,-3 -1.2,-5.6 -3.1,-7.6 -2,-2 -4.6,-3.1 -7.6,-3.1 -3,0 -5.6,1.2 -7.6,3.1 -2,2 -3.1,4.6 -3.1,7.6 v 10.6 l -2.8,1 c -7.9,2.8 -14.7,8 -19.5,14.7 -4.8,6.7 -7.6,14.9 -7.7,23.7 0,11.2 4.6,21.4 11.9,28.8 7.4,7.4 17.6,11.9 28.8,11.9 5.3,0 10.1,2.2 13.6,5.6 3.5,3.5 5.6,8.3 5.6,13.6 0,5.3 -2.2,10.1 -5.6,13.6 -3.5,3.6 -8.3,5.8 -13.6,5.8 z"
         inkscape:connector-curvature="0"
         style="fill:#0063a6;fill-opacity:1" />
    </g>
  </g>
  <style
     id="style5003"
     type="text/css">
	.st0{fill:#FFBC00;}
</style>
</svg>
