<?xml version="1.0" encoding="UTF-8" standalone="no"?>
<!-- Created with Inkscape (http://www.inkscape.org/) -->

<svg
   xmlns:dc="http://purl.org/dc/elements/1.1/"
   xmlns:cc="http://creativecommons.org/ns#"
   xmlns:rdf="http://www.w3.org/1999/02/22-rdf-syntax-ns#"
   xmlns:svg="http://www.w3.org/2000/svg"
   xmlns="http://www.w3.org/2000/svg"
   xmlns:sodipodi="http://sodipodi.sourceforge.net/DTD/sodipodi-0.dtd"
   xmlns:inkscape="http://www.inkscape.org/namespaces/inkscape"
   width="210mm"
   height="217mm"
   viewBox="0 0 210 217"
   version="1.1"
   id="svg4656"
   inkscape:version="0.92.3 (2405546, 2018-03-11)"
   sodipodi:docname="botcoin_neurons.svg">
  <defs
     id="defs4650" />
  <sodipodi:namedview
     id="base"
     pagecolor="#ffffff"
     bordercolor="#666666"
     borderopacity="1.0"
     inkscape:pageopacity="0.0"
     inkscape:pageshadow="2"
     inkscape:zoom="0.35"
     inkscape:cx="-44.285714"
     inkscape:cy="560"
     inkscape:document-units="mm"
     inkscape:current-layer="layer3"
     showgrid="false"
     inkscape:window-width="1920"
     inkscape:window-height="1052"
     inkscape:window-x="0"
     inkscape:window-y="0"
     inkscape:window-maximized="1" />
  <metadata
     id="metadata4653">
    <rdf:RDF>
      <cc:Work
         rdf:about="">
        <dc:format>image/svg+xml</dc:format>
        <dc:type
           rdf:resource="http://purl.org/dc/dcmitype/StillImage" />
        <dc:title></dc:title>
      </cc:Work>
    </rdf:RDF>
  </metadata>
  <g
     inkscape:groupmode="layer"
     id="layer3"
     inkscape:label="Layer 2"
     transform="translate(0,-80)">
    <circle
       r="58.684586"
       cy="215.35713"
       cx="96.005959"
       class="st0"
       id="Ellipse_1"
       style="fill:#ff8800;stroke-width:0.26458332;fill-opacity:1" />
  </g>
  <g
     inkscape:label="Layer 1"
     inkscape:groupmode="layer"
     id="layer1"
     transform="translate(0,-80)">
    <g
       id="g4729"
       transform="matrix(0.3527778,0,0,0.3527778,31.316311,112.11393)"
       style="fill:#0063a6;fill-opacity:1">
      <path
         id="path4658"
         d="m 204.80078,314.02734 c -60.22656,0 -109.226561,-49 -109.226561,-109.22656 0,-60.22656 49.000001,-109.226561 109.226561,-109.226561 60.22656,0 109.22656,49.000001 109.22656,109.226561 0,60.22656 -49,109.22656 -109.22656,109.22656 z m 0,-204.80078 c -52.69922,0 -95.57422,42.875 -95.57422,95.57422 0,52.69922 42.875,95.57422 95.57422,95.57422 52.69922,0 95.57422,-42.875 95.57422,-95.57422 0,-52.69922 -42.875,-95.57422 -95.57422,-95.57422 z m 0,0"
         inkscape:connector-curvature="0"
         style="fill:#0063a6;fill-opacity:1" />
      <path
         id="path4660"
         d="m 204.80078,293.54687 c -48.9375,0 -88.74609,-39.8125 -88.74609,-88.74609 0,-48.93359 39.80859,-88.74609 88.74609,-88.74609 48.9375,0 88.74609,39.8125 88.74609,88.74609 0,48.93359 -39.80859,88.74609 -88.74609,88.74609 z m 0,-163.83984 c -41.40625,0 -75.09375,33.6875 -75.09375,75.09375 0,41.40625 33.6875,75.09375 75.09375,75.09375 41.40625,0 75.09375,-33.6875 75.09375,-75.09375 0,-41.40625 -33.6875,-75.09375 -75.09375,-75.09375 z m 0,0"
         inkscape:connector-curvature="0"
         style="fill:#0063a6;fill-opacity:1" />
      <path
         id="path4662"
         d="m 182.71484,167.07422 c 0,-0.71875 0.48047,-1.19141 1.19141,-1.19141 h 30.19922 c 17.19531,0 25.30859,8.58985 25.30859,21.60547 0,9.19141 -4.29687,14.4375 -9.42578,17.18359 v 0.24219 c 5.01172,1.91406 10.85938,8.35938 10.85938,18.26563 0,16.11328 -10.14844,23.875 -27.9336,23.875 h -29.00781 c -0.71094,0 -1.19141,-0.48047 -1.19141,-1.19532 z m 31.03907,32.58594 c 7.16015,0 11.57812,-4.29297 11.57812,-10.6211 0,-6.44531 -4.41797,-10.74609 -11.57812,-10.74609 h -16.24219 c -0.47266,0 -0.71094,0.23828 -0.71094,0.71094 v 19.9414 c 0,0.47266 0.23828,0.71485 0.71094,0.71485 z m -16.24219,34.98046 h 16.95312 c 7.88282,0 12.29297,-4.53906 12.29297,-11.34375 0,-6.68359 -4.41015,-11.22656 -12.29297,-11.22656 h -16.95312 c -0.47266,0 -0.71094,0.24219 -0.71094,0.72266 v 21.125 c 0,0.48437 0.23828,0.72265 0.71094,0.72265 z m 0,0"
         inkscape:connector-curvature="0"
         style="fill:#0063a6;fill-opacity:1" />
      <path
         id="path4664"
         d="m 204.80078,177.49219 c -3.76953,0 -6.82812,-3.05078 -6.82812,-6.82422 v -13.65625 c 0,-3.77344 3.05859,-6.82422 6.82812,-6.82422 3.76953,0 6.82422,3.05078 6.82422,6.82422 v 13.65625 c 0,3.77344 -3.05469,6.82422 -6.82422,6.82422 z m 0,0"
         inkscape:connector-curvature="0"
         style="fill:#0063a6;fill-opacity:1" />
      <path
         id="path4666"
         d="m 204.80078,259.41406 c -3.76953,0 -6.82812,-3.05469 -6.82812,-6.82812 v -6.82422 c 0,-3.77344 3.05859,-6.82813 6.82812,-6.82813 3.76953,0 6.82422,3.05469 6.82422,6.82813 v 6.82422 c 0,3.77343 -3.05469,6.82812 -6.82422,6.82812 z m 0,0"
         inkscape:connector-curvature="0"
         style="fill:#0063a6;fill-opacity:1" />
      <path
         id="path4668"
         d="m 204.80078,102.39844 c -3.76953,0 -6.82812,-3.050784 -6.82812,-6.824221 V 34.132812 c 0,-3.773437 3.05859,-6.824218 6.82812,-6.824218 3.76953,0 6.82422,3.050781 6.82422,6.824218 v 61.441407 c 0,3.773437 -3.05469,6.824221 -6.82422,6.824221 z m 0,0"
         inkscape:connector-curvature="0"
         style="fill:#0063a6;fill-opacity:1" />
      <path
         id="path4670"
         d="m 127.56641,134.39453 c -1.7461,0 -3.49219,-0.66797 -4.82813,-2 L 81.292969,90.945312 c -2.664063,-2.664062 -2.664063,-6.984374 0,-9.652343 2.667969,-2.664063 6.988281,-2.664063 9.652343,0 l 41.449218,41.445311 c 2.66406,2.66797 2.66406,6.98828 0,9.65625 -1.33594,1.33203 -3.08203,2 -4.82812,2 z m 0,0"
         inkscape:connector-curvature="0"
         style="fill:#0063a6;fill-opacity:1" />
      <path
         id="path4672"
         d="m 74.46875,94.945312 c -5.472656,0 -10.617188,-2.132812 -14.484375,-6 C 52,80.960938 52,67.972656 59.988281,59.984375 c 7.730469,-7.730469 21.226563,-7.730469 28.960938,0 h 0.0039 c 7.980469,7.988281 7.980469,20.976563 -0.0039,28.960937 -3.867188,3.867188 -9.011719,6 -14.480469,6 z m 0,-27.304687 c -1.824219,0 -3.539062,0.707031 -4.824219,2 -2.664062,2.660156 -2.664062,6.992187 -0.0039,9.652344 2.582031,2.585937 7.074219,2.585937 9.648437,0 2.664063,-2.660157 2.664063,-6.992188 0.0039,-9.652344 0,0 0,0 -0.0039,0 -1.285156,-1.292969 -3,-2 -4.820312,-2 z m 0,0"
         inkscape:connector-curvature="0"
         style="fill:#0063a6;fill-opacity:1" />
      <path
         id="path4674"
         d="m 323.48047,330.30469 c -1.7461,0 -3.49219,-0.66407 -4.82813,-2 l -41.44531,-41.44532 c -2.66406,-2.66406 -2.66406,-6.98828 0,-9.65234 2.66406,-2.66406 6.98828,-2.66406 9.65234,0 l 41.44532,41.44531 c 2.66797,2.66797 2.66797,6.98828 0,9.65235 -1.33203,1.33594 -3.07813,2 -4.82422,2 z m 0,0"
         inkscape:connector-curvature="0"
         style="fill:#0063a6;fill-opacity:1" />
      <path
         id="path4676"
         d="m 335.13281,355.61328 c -5.46875,0 -10.61328,-2.13281 -14.48437,-6 -7.98047,-7.98828 -7.98047,-20.97266 0.004,-28.96094 7.73438,-7.73437 21.23047,-7.73437 28.96094,0 h 0.004 c 7.98437,7.98828 7.98047,20.97266 -0.004,28.96094 -3.86719,3.86719 -9.01172,6 -14.48047,6 z m 0,-27.30859 c -1.82422,0 -3.53515,0.70703 -4.82422,2 -2.66406,2.66406 -2.66406,6.99609 -0.004,9.65625 2.58203,2.58593 7.07812,2.58593 9.65234,0 2.66406,-2.66407 2.66406,-6.9961 0.004,-9.65625 0,0 0,0 -0.004,0 -1.28906,-1.29297 -3,-2 -4.82422,-2 z m 0,0"
         inkscape:connector-curvature="0"
         style="fill:#0063a6;fill-opacity:1" />
      <path
         id="path4678"
         d="m 282.03516,134.39453 c -1.7461,0 -3.4961,-0.66797 -4.82813,-2 -2.66406,-2.66797 -2.66406,-6.98828 0,-9.65625 l 41.44531,-41.445311 c 2.66797,-2.664063 6.98828,-2.664063 9.65235,0 2.66797,2.667969 2.66797,6.988281 0,9.652343 l -41.44532,41.449218 c -1.33203,1.33203 -3.07812,2 -4.82421,2 z m 0,0"
         inkscape:connector-curvature="0"
         style="fill:#0063a6;fill-opacity:1" />
      <path
         id="path4680"
         d="m 335.13281,94.945312 c -5.46875,0 -10.61328,-2.132812 -14.48437,-6 -7.98047,-7.984374 -7.98047,-20.972656 0.004,-28.960937 7.73438,-7.730469 21.22657,-7.730469 28.96485,0 7.98047,7.988281 7.98437,20.976563 0,28.960937 h -0.004 c -3.86719,3.867188 -9.01172,6 -14.48047,6 z m 0,-27.304687 c -1.82422,0 -3.53515,0.707031 -4.82422,2 -2.66406,2.660156 -2.66406,6.992187 -0.004,9.652344 2.58203,2.585937 7.07812,2.585937 9.65234,0 h 0.004 c 2.66015,-2.660157 2.66015,-6.992188 0,-9.652344 -1.29297,-1.292969 -3.00391,-2 -4.82813,-2 z m 0,0"
         inkscape:connector-curvature="0"
         style="fill:#0063a6;fill-opacity:1" />
      <path
         id="path4682"
         d="m 86.121094,330.30469 c -1.746094,0 -3.496094,-0.66407 -4.828125,-2 -2.664063,-2.66407 -2.664063,-6.98438 0,-9.65235 l 41.445311,-41.44531 c 2.66797,-2.66406 6.98828,-2.66406 9.65625,0 2.66406,2.66406 2.66406,6.98828 0,9.65234 l -41.449218,41.44532 c -1.332031,1.33593 -3.078124,2 -4.824218,2 z m 0,0"
         inkscape:connector-curvature="0"
         style="fill:#0063a6;fill-opacity:1" />
      <path
         id="path4684"
         d="m 74.46875,355.61328 c -5.472656,0 -10.617188,-2.13281 -14.484375,-6 C 52,341.625 52,328.64062 59.988281,320.65234 c 7.730469,-7.73437 21.222657,-7.73437 28.964844,0 7.980469,7.98828 7.980469,20.97266 0,28.96094 h -0.0039 c -3.867188,3.86719 -9.011719,6 -14.480469,6 z m 0,-27.30859 c -1.824219,0 -3.539062,0.70703 -4.824219,2 -2.664062,2.66406 -2.664062,6.99609 -0.0039,9.65625 2.582031,2.58593 7.074219,2.58593 9.648437,0 h 0.0039 c 2.660156,-2.66407 2.660156,-6.9961 0,-9.65625 -1.289063,-1.29297 -3.003907,-2 -4.824218,-2 z m 0,0"
         inkscape:connector-curvature="0"
         style="fill:#0063a6;fill-opacity:1" />
      <path
         id="path4686"
         d="m 204.80078,40.960938 c -11.29297,0 -20.48047,-9.1875 -20.48047,-20.480469 C 184.32031,9.1875 193.50781,0 204.80078,0 c 11.29297,0 20.48047,9.1875 20.48047,20.480469 0,11.292969 -9.1875,20.480469 -20.48047,20.480469 z m 0,-27.308594 c -3.76562,0 -6.82812,3.0625 -6.82812,6.828125 0,3.765625 3.0625,6.828125 6.82812,6.828125 3.76172,0 6.82422,-3.0625 6.82422,-6.828125 0,-3.765625 -3.0625,-6.828125 -6.82422,-6.828125 z m 0,0"
         inkscape:connector-curvature="0"
         style="fill:#0063a6;fill-opacity:1" />
      <path
         id="path4688"
         d="m 204.80078,382.29297 c -3.76953,0 -6.82812,-3.05469 -6.82812,-6.82813 v -61.4375 c 0,-3.77343 3.05859,-6.82812 6.82812,-6.82812 3.76953,0 6.82422,3.05469 6.82422,6.82812 v 61.4375 c 0,3.77344 -3.05469,6.82813 -6.82422,6.82813 z m 0,0"
         inkscape:connector-curvature="0"
         style="fill:#0063a6;fill-opacity:1" />
      <path
         id="path4690"
         d="m 204.80078,409.60156 c -11.29297,0 -20.48047,-9.1875 -20.48047,-20.48047 0,-11.29297 9.1875,-20.48047 20.48047,-20.48047 11.29297,0 20.48047,9.1875 20.48047,20.48047 0,11.29297 -9.1875,20.48047 -20.48047,20.48047 z m 0,-27.30859 c -3.76562,0 -6.82812,3.05859 -6.82812,6.82812 0,3.76563 3.0625,6.82422 6.82812,6.82422 3.76172,0 6.82422,-3.05859 6.82422,-6.82422 0,-3.76953 -3.0625,-6.82812 -6.82422,-6.82812 z m 0,0"
         inkscape:connector-curvature="0"
         style="fill:#0063a6;fill-opacity:1" />
      <path
         id="path4692"
         d="M 95.574219,211.625 H 34.132812 c -3.769531,0 -6.824218,-3.05078 -6.824218,-6.82422 0,-3.77344 3.054687,-6.82812 6.824218,-6.82812 h 61.441407 c 3.769531,0 6.824221,3.05468 6.824221,6.82812 0,3.77344 -3.05469,6.82422 -6.824221,6.82422 z m 0,0"
         inkscape:connector-curvature="0"
         style="fill:#0063a6;fill-opacity:1" />
      <path
         id="path4694"
         d="M 20.480469,225.28125 C 9.1875,225.28125 0,216.09375 0,204.80078 c 0,-11.29297 9.1875,-20.48047 20.480469,-20.48047 11.292969,0 20.480469,9.1875 20.480469,20.48047 0,11.29297 -9.1875,20.48047 -20.480469,20.48047 z m 0,-27.30859 c -3.761719,0 -6.828125,3.0625 -6.828125,6.82812 0,3.76563 3.066406,6.82422 6.828125,6.82422 3.761719,0 6.828125,-3.05859 6.828125,-6.82422 0,-3.76562 -3.066406,-6.82812 -6.828125,-6.82812 z m 0,0"
         inkscape:connector-curvature="0"
         style="fill:#0063a6;fill-opacity:1" />
      <path
         id="path4696"
         d="m 375.46484,211.625 h -61.4375 c -3.76953,0 -6.82812,-3.05078 -6.82812,-6.82422 0,-3.77344 3.05859,-6.82812 6.82812,-6.82812 h 61.4375 c 3.77344,0 6.82813,3.05468 6.82813,6.82812 0,3.77344 -3.05469,6.82422 -6.82813,6.82422 z m 0,0"
         inkscape:connector-curvature="0"
         style="fill:#0063a6;fill-opacity:1" />
      <path
         id="path4698"
         d="m 389.12109,225.28125 c -11.29297,0 -20.48047,-9.1875 -20.48047,-20.48047 0,-11.29297 9.1875,-20.48047 20.48047,-20.48047 11.29297,0 20.48047,9.1875 20.48047,20.48047 0,11.29297 -9.1875,20.48047 -20.48047,20.48047 z m 0,-27.30859 c -3.76562,0 -6.82812,3.0625 -6.82812,6.82812 0,3.76563 3.0625,6.82422 6.82812,6.82422 3.76172,0 6.82422,-3.05859 6.82422,-6.82422 0,-3.76562 -3.0625,-6.82812 -6.82422,-6.82812 z m 0,0"
         inkscape:connector-curvature="0"
         style="fill:#0063a6;fill-opacity:1" />
    </g>
  </g>
  <style
     id="style4731"
     type="text/css">
	.st0{fill:#FFBC00;}
</style>
</svg>
