<?xml version="1.0" encoding="UTF-8" standalone="no"?>
<!-- Generator: Adobe Illustrator 24.1.1, SVG Export Plug-In . SVG Version: 6.00 Build 0)  -->

<svg
   xmlns:dc="http://purl.org/dc/elements/1.1/"
   xmlns:cc="http://creativecommons.org/ns#"
   xmlns:rdf="http://www.w3.org/1999/02/22-rdf-syntax-ns#"
   xmlns:svg="http://www.w3.org/2000/svg"
   xmlns="http://www.w3.org/2000/svg"
   xmlns:sodipodi="http://sodipodi.sourceforge.net/DTD/sodipodi-0.dtd"
   xmlns:inkscape="http://www.inkscape.org/namespaces/inkscape"
   version="1.1"
   id="Layer_1"
   x="0px"
   y="0px"
   viewBox="0 0 479 479"
   style="enable-background:new 0 0 479 479;"
   xml:space="preserve"
   sodipodi:docname="certified.svg"
   inkscape:version="0.92.3 (2405546, 2018-03-11)"><metadata
   id="metadata27"><rdf:RDF><cc:Work
       rdf:about=""><dc:format>image/svg+xml</dc:format><dc:type
         rdf:resource="http://purl.org/dc/dcmitype/StillImage" /></cc:Work></rdf:RDF></metadata><defs
   id="defs25" /><sodipodi:namedview
   pagecolor="#ffffff"
   bordercolor="#666666"
   borderopacity="1"
   objecttolerance="10"
   gridtolerance="10"
   guidetolerance="10"
   inkscape:pageopacity="0"
   inkscape:pageshadow="2"
   inkscape:window-width="718"
   inkscape:window-height="480"
   id="namedview23"
   showgrid="false"
   inkscape:zoom="0.49269311"
   inkscape:cx="239.5"
   inkscape:cy="239.5"
   inkscape:window-x="0"
   inkscape:window-y="27"
   inkscape:window-maximized="0"
   inkscape:current-layer="Layer_1" />
<g
   id="g20"
   style="fill:#707070;fill-opacity:1">
	<polygon
   points="197.1,224.9 197.1,224.9 197.1,224.9  "
   id="polygon2"
   style="fill:#707070;fill-opacity:1" />
	<path
   d="M310.3,194.9L310.3,194.9L310.3,194.9c-1.5-1.5-3.2-2.7-5-3.4c-1.8-0.8-3.8-1.1-5.7-1.1c-3.6,0-7.3,1.3-10.1,4l0,0l0,0   l-63.6,60.1l-28.7-29.5c-1.4-1.5-3.1-2.6-4.9-3.3c-1.8-0.7-3.7-1.1-5.6-1.1c-1.8,0-3.7,0.3-5.4,1c-1.7,0.7-3.4,1.7-4.8,3.1   c-1.5,1.4-2.6,3.1-3.3,4.9c-0.7,1.8-1.1,3.7-1.1,5.6c0,1.8,0.3,3.7,1,5.4c0.7,1.7,1.7,3.4,3.1,4.8l0,0l38.8,39.9l0,0   c1.4,1.4,3.1,2.5,4.9,3.3c1.8,0.7,3.7,1.1,5.6,1.1c3.6,0,7.2-1.3,10.1-3.9l0,0l74.2-70c2.8-2.7,4.5-6.3,4.6-10.2l0,0   c0-0.1,0-0.3,0-0.4C314.3,201.3,312.9,197.7,310.3,194.9z"
   id="path4"
   style="fill:#707070;fill-opacity:1" />
	<polygon
   points="314.3,205.3 314.3,205.4 314.3,205.4  "
   id="polygon6"
   style="fill:#707070;fill-opacity:1" />
	<path
   d="M243.1,94.9c-40,0-76.3,16.3-102.5,42.5C114.3,163.6,98,199.9,98,239.9c0,40,16.3,76.3,42.5,102.5   c26.2,26.3,62.5,42.5,102.5,42.5c40,0,76.3-16.3,102.5-42.5c26.3-26.2,42.5-62.5,42.5-102.5c0-40-16.3-76.3-42.5-102.5   C319.3,111.1,283,94.9,243.1,94.9z M243.1,355.7c-31.9,0-60.8-13-81.8-34c-21-21-33.9-49.9-33.9-81.8c0-31.9,13-60.8,33.9-81.8   c21-21,49.9-34,81.8-34c32,0,60.9,12.9,81.8,33.9c21,21,33.9,49.9,33.9,81.8c0,32-12.9,60.9-33.9,81.8   C303.9,342.7,275,355.7,243.1,355.7z"
   id="path8"
   style="fill:#707070;fill-opacity:1" />
	<polygon
   points="443.8,133.3 443.8,133.3 443.8,133.3  "
   id="polygon10"
   style="fill:#707070;fill-opacity:1" />
	<polygon
   points="349.6,440.6 349.6,440.6 349.6,440.6  "
   id="polygon12"
   style="fill:#707070;fill-opacity:1" />
	<polygon
   points="15.8,231.8 15.8,231.8 15.8,231.8  "
   id="polygon14"
   style="fill:#707070;fill-opacity:1" />
	<polygon
   points="115.8,119.1 115.8,119.1 115.8,119.1  "
   id="polygon16"
   style="fill:#707070;fill-opacity:1" />
	<path
   d="M470.2,231.9L470.2,231.9L440.8,187l3-53.7c0-0.3,0-0.6,0-0.8c0-5.5-3.1-10.6-8.1-13.1l0,0l-47.8-24.2l-24.2-47.9l0,0   c-2.5-4.9-7.6-8-13.2-8c-0.2,0-0.5,0-0.7,0l0,0L296,42.2l-44.8-29.6l0,0c-2.4-1.6-5.3-2.4-8.1-2.4c-2.8,0-5.6,0.8-8.1,2.4l0,0   l-44.8,29.6l-53.7-3l0,0c-0.3,0-0.6,0-0.9,0c-5.5,0-10.6,3.1-13.1,8.1l0,0L98.3,95.1l-47.8,24.2l0,0c-5,2.5-8,7.6-8,13.2   c0,0.2,0,0.5,0,0.7l0,0l3,53.7l-29.6,44.8c-1.6,2.4-2.4,5.3-2.4,8.1c0,2.8,0.8,5.6,2.4,8.1l29.5,44.9l-3,53.7l0,0   c0,0.3,0,0.6,0,0.8c0,5.5,3.1,10.6,8.1,13.1l0,0l47.8,24.2l24.2,47.9l0,0c2.5,5,7.6,8,13.2,8c0.2,0,0.5,0,0.7,0l0,0l53.7-3   l44.8,29.6l0,0c2.4,1.6,5.3,2.5,8.1,2.5c2.8,0,5.6-0.8,8.1-2.5l0,0l44.8-29.6l53.7,3c0.3,0,0.6,0,0.8,0c5.5,0,10.6-3.1,13.1-8.1   l0,0l24.2-47.8l47.9-24.2l0,0c4.9-2.5,8-7.6,8-13.2c0-0.2,0-0.5,0-0.7l0,0l-3-53.7l29.6-44.8l0,0c1.6-2.4,2.4-5.3,2.4-8.1   C472.6,237.1,471.8,234.3,470.2,231.9z M413.6,280.8c-1.6,2.3-2.4,5.1-2.4,7.9c0,0.3,0,0.7,0,1.1l0,0l2.7,49l-43.6,22l0,0   c-2.8,1.4-5.1,3.7-6.5,6.5l0,0l-22,43.6l-49.1-2.7l0,0c-0.2,0-0.4,0-0.6,0c-2.9,0-5.7,0.8-8.1,2.3l-0.1,0l-40.9,27l-40.9-27l0,0   c-2.4-1.6-5.2-2.5-8.1-2.5l0,0h-0.5h-0.1l-49.2,2.7l-22-43.6l0,0c-1.4-2.8-3.7-5.1-6.5-6.5l0,0l-43.7-21.9l2.7-49.1l0-0.1   c0-0.2,0-0.4,0-0.6c0-2.9-0.8-5.7-2.3-8.1l0-0.1l-27-40.9l27-40.9l0,0c1.6-2.3,2.4-5.1,2.4-7.9c0-0.3,0-0.7,0-1.1l0,0l-2.7-49   l43.6-22c2.8-1.4,5.1-3.7,6.5-6.5l0,0l22-43.6l49.1,2.7l0.1,0c0.2,0,0.4,0,0.5,0c2.9,0,5.7-0.8,8.1-2.3l0.1,0l40.9-27l40.9,27l0,0   c2.3,1.6,5.1,2.4,7.9,2.4c0.4,0,0.7,0,1.1,0l0,0l49-2.7l22,43.6l0,0c1.4,2.8,3.7,5.1,6.5,6.5l0,0l43.6,22l-2.7,49.1l0,0.1   c0,0.2,0,0.4,0,0.6c0,2.9,0.8,5.7,2.3,8.1l0,0.1l27,40.9L413.6,280.8L413.6,280.8z"
   id="path18"
   style="fill:#707070;fill-opacity:1" />
</g>
</svg>