<svg height="512" viewBox="0 0 51 60" width="512" xmlns="http://www.w3.org/2000/svg"><g id="005---Down-Arrow" fill="none"><g id="Icons" transform="translate(2 1)"><path id="Shape" d="m48 26v11.11c-.0011413.3765582-.2137203.7205498-.55.89l-23 19.78c-.2852006.1332641-.6147994.1332641-.9 0l-1.05-.9-21.95-18.88c-.33627965-.1694502-.5488587-.5134418-.55-.89v-11.11h12c.5522847 0 1-.4477153 1-1v-24c0-.55228475.4477153-1 1-1h20c.5522847 0 1 .44771525 1 1v24c0 .5522847.4477153 1 1 1z" fill="#9d27b0"/><path id="Shape" d="m32 1v24c0 .5522847.4477153 1 1 1h3c-.5522847 0-1-.4477153-1-1v-24c0-.55228475-.4477153-1-1-1h-3c.5522847 0 1 .44771525 1 1z" fill="#6a1b9a"/><path id="Shape" d="m24 43.75v14.1301393c-.1557867.0024764-.3099834-.0317895-.45-.1001393l-23-19.78c-.33627965-.1694502-.5488587-.5134418-.55-.89v-11.11l23.4 17.55c.174045.1280008.3839635.1979736.6.2z" fill="#673ab7"/><path id="Shape" d="m48 26v11.11c-.0011413.3765582-.2137203.7205498-.55.89l-23 19.78c-.0489227.0302173-.1032715.0505981-.16.06-.0939306.0286424-.1918229.0421448-.29.0402207v-14.1302207c.2160365-.0020264.425955-.0719992.6-.2z" fill="#673ab7"/><path id="Shape" d="m45 28.25v8.86c-.0011413.3765582-.2137203.7205498-.55.89l-20.45 17.587v2.2932207c.0981771.0019241.1960694-.0115783.29-.0402207.0567285-.0094019.1110773-.0297827.16-.06l23-19.78c.3362797-.1694502.5488587-.5134418.55-.89v-11.11z" fill="#4527a0"/></g><g id="Layer_10" fill="#000"><path id="Shape" d="m1.979 39.826c24.51 21.074 22.956 19.76 23.127 19.845.5632256.2795248 1.2247744.2795248 1.788 0 .185-.092-1.17 1.046 23.127-19.845.6086567-.3587633.981313-1.0134812.979-1.72v-11.106c-.0003202-.3005325-.1367304-.5847511-.371-.773-.388-.319.43-.227-12.629-.227v-24c0-1.1045695-.8954305-2-2-2h-20c-1.1045695 0-2 .8954305-2 2v24h-12c-.31581678.0014125-.61240612.1519316-.8.406-.276.376-.2-.418-.2 11.7-.00231301.7065188.37034329 1.3612367.979 1.72zm47.021-1.72c-.178.09 1.116-1-22 18.876v-11.528c.431-.254-2.248 1.732 22-16.454zm-35-10.106c1.1045695 0 2-.8954305 2-2v-24h20v24c0 1.1045695.8954305 2 2 2h9l-21 15.75-21-15.75zm-11 1c24.223 18.167 21.569 16.2 22 16.454v11.528c-23.373-20.096-21.83-18.792-22-18.876z"/><path id="Shape" d="m19 4c-.5522847 0-1 .44771525-1 1v13c0 .5522847.4477153 1 1 1s1-.4477153 1-1v-13c0-.55228475-.4477153-1-1-1z"/><path id="Shape" d="m19 21c-.5522847 0-1 .4477153-1 1v3c0 .5522847.4477153 1 1 1s1-.4477153 1-1v-3c0-.5522847-.4477153-1-1-1z"/></g></g></svg>