<?xml version="1.0" encoding="iso-8859-1"?>
<!-- Generator: Adobe Illustrator 19.0.0, SVG Export Plug-In . SVG Version: 6.00 Build 0)  -->
<svg version="1.1" id="Capa_1" xmlns="http://www.w3.org/2000/svg" xmlns:xlink="http://www.w3.org/1999/xlink" x="0px" y="0px"
	 viewBox="0 0 512 512" style="enable-background:new 0 0 512 512;" xml:space="preserve">
<g>
	<g>
		<g>
			<path d="M365.922,198.724L256,262.846l-109.922-64.121c-9.541-5.564-21.787-2.344-27.353,7.198
				c-5.566,9.541-2.343,21.787,7.198,27.353l120,70c6.226,3.632,13.927,3.633,20.154-0.001l120-70
				c9.541-5.565,12.764-17.812,7.198-27.353C387.71,196.38,375.461,193.158,365.922,198.724z"/>
			<path d="M452,76H60c-33.084,0-60,26.916-60,60v240c0,33.084,26.916,60,60,60h392c33.084,0,60-26.916,60-60V136
				C512,102.916,485.084,76,452,76z M472,376c0,11.028-8.972,20-20,20H60c-11.028,0-20-8.972-20-20V136c0-11.028,8.972-20,20-20h392
				c11.028,0,20,8.972,20,20V376z"/>
		</g>
	</g>
</g>
<g>
</g>
<g>
</g>
<g>
</g>
<g>
</g>
<g>
</g>
<g>
</g>
<g>
</g>
<g>
</g>
<g>
</g>
<g>
</g>
<g>
</g>
<g>
</g>
<g>
</g>
<g>
</g>
<g>
</g>
</svg>
