<?xml version="1.0" encoding="UTF-8" standalone="no"?>
<!-- Created with Inkscape (http://www.inkscape.org/) -->

<svg
   xmlns:dc="http://purl.org/dc/elements/1.1/"
   xmlns:cc="http://creativecommons.org/ns#"
   xmlns:rdf="http://www.w3.org/1999/02/22-rdf-syntax-ns#"
   xmlns:svg="http://www.w3.org/2000/svg"
   xmlns="http://www.w3.org/2000/svg"
   xmlns:sodipodi="http://sodipodi.sourceforge.net/DTD/sodipodi-0.dtd"
   xmlns:inkscape="http://www.inkscape.org/namespaces/inkscape"
   width="210mm"
   height="297mm"
   viewBox="0 0 210 297"
   version="1.1"
   id="svg8"
   inkscape:version="0.92.3 (2405546, 2018-03-11)"
   sodipodi:docname="exchange_started.svg">
  <defs
     id="defs2" />
  <sodipodi:namedview
     id="base"
     pagecolor="#ffffff"
     bordercolor="#666666"
     borderopacity="1.0"
     inkscape:pageopacity="0.0"
     inkscape:pageshadow="2"
     inkscape:zoom="0.49497475"
     inkscape:cx="485.28382"
     inkscape:cy="509.59514"
     inkscape:document-units="mm"
     inkscape:current-layer="layer2"
     showgrid="false"
     inkscape:window-width="1252"
     inkscape:window-height="844"
     inkscape:window-x="-222"
     inkscape:window-y="60"
     inkscape:window-maximized="0" />
  <metadata
     id="metadata5">
    <rdf:RDF>
      <cc:Work
         rdf:about="">
        <dc:format>image/svg+xml</dc:format>
        <dc:type
           rdf:resource="http://purl.org/dc/dcmitype/StillImage" />
        <dc:title />
      </cc:Work>
    </rdf:RDF>
  </metadata>
  <g
     inkscape:label="Layer 1"
     inkscape:groupmode="layer"
     id="layer1">
    <ellipse
       cy="157.90477"
       cx="105.45534"
       class="st0"
       id="Ellipse_1-3"
       style="fill:#fffffc;fill-opacity:1;stroke:#ff00bc;stroke-width:1.914;stroke-opacity:1;stroke-miterlimit:4;stroke-dasharray:none"
       rx="96.111946"
       ry="87.796478" />
  </g>
  <g
     inkscape:groupmode="layer"
     id="layer2"
     inkscape:label="Layer 2">
    <ellipse
       cy="157.52678"
       cx="104.76425"
       class="st0"
       id="Ellipse_1"
       style="fill:#0063a6;fill-opacity:1;stroke:#0063a6;stroke-width:0.36910322;stroke-opacity:1"
       rx="85.142914"
       ry="78.717323" />
    <ellipse
       cy="233.49998"
       cx="106.21127"
       class="st0"
       id="Ellipse_1-6"
       style="fill:#ffffff;fill-opacity:1;stroke:#0063a6;stroke-width:0;stroke-opacity:1;stroke-miterlimit:4;stroke-dasharray:none"
       rx="37.244904"
       ry="33.465145" />
    <g
       id="g4777"
       transform="matrix(0.14715002,0,0,0.12819794,65.407343,120.13588)"
       style="fill:#ff9e2e;fill-opacity:1">
      <polygon
         id="polygon4707"
         points=""
         style="fill:#ff9e2e;fill-opacity:1" />
      <path
         id="path4709"
         d="m 280.5,381.1 c -4.2,-3.8 -7.9,-8.1 -11.2,-12.8 l -2.2,1.6 2.2,-1.6 c -1,-1.3 -2.2,-2.4 -3.6,-3.1 -1.4,-0.7 -2.9,-1.1 -4.5,-1.1 -2,0 -4,0.6 -5.7,1.8 -1.3,1 -2.4,2.2 -3.1,3.6 -0.7,1.4 -1.1,2.9 -1.1,4.5 0,2 0.6,4 1.8,5.7 4.1,5.7 8.8,11.1 13.9,15.8 1.9,1.7 4.3,2.6 6.7,2.6 2.6,0 5.3,-1.1 7.2,-3.2 v 0 c 1.7,-1.9 2.6,-4.3 2.6,-6.7 0.2,-2.5 -0.8,-5.2 -3,-7.1 z"
         inkscape:connector-curvature="0"
         style="fill:#ff9e2e;fill-opacity:1" />
      <polygon
         id="polygon4711"
         points=""
         style="fill:#ff9e2e;fill-opacity:1" />
      <path
         id="path4713"
         d="m 300.2,248.9 v 0 c 1.7,-0.8 3.2,-2.2 4.1,-3.7 1,-1.5 1.5,-3.3 1.5,-5.2 0,-1.4 -0.3,-2.9 -1,-4.3 -0.8,-1.7 -2.2,-3.1 -3.7,-4.1 -1.5,-1 -3.3,-1.5 -5.2,-1.5 -1.4,0 -2.9,0.3 -4.3,1 -6.3,3.1 -12.4,6.8 -17.9,11.1 -2.5,1.9 -3.8,4.9 -3.8,7.8 0,2.1 0.7,4.3 2.1,6 1.9,2.5 4.9,3.8 7.8,3.8 2.1,0 4.3,-0.7 6,-2.1 v 0 c 4.4,-3.3 9.3,-6.3 14.4,-8.8 z"
         inkscape:connector-curvature="0"
         style="fill:#ff9e2e;fill-opacity:1" />
      <polygon
         id="polygon4715"
         points=""
         style="fill:#ff9e2e;fill-opacity:1" />
      <polygon
         id="polygon4717"
         points=""
         style="fill:#ff9e2e;fill-opacity:1" />
      <polygon
         id="polygon4719"
         points=""
         style="fill:#ff9e2e;fill-opacity:1" />
      <path
         id="path4721"
         d="m 255.2,349.9 c 1.3,-1.7 2,-3.8 2,-6 0,-0.8 -0.1,-1.6 -0.3,-2.4 v 0 c -1.4,-5.5 -2.2,-11.1 -2.4,-16.8 v 0 c -0.1,-2.6 -1.2,-5 -3,-6.7 -1.8,-1.7 -4.2,-2.8 -6.8,-2.8 -0.1,0 -0.2,0 -0.4,0 -2.6,0.1 -5,1.2 -6.7,3 -1.7,1.8 -2.8,4.2 -2.8,6.8 0,0.1 0,0.2 0,0.4 0.3,7.1 1.3,14.1 3,20.9 0.6,2.2 1.8,4.1 3.5,5.4 1.7,1.3 3.8,2 6,2 0.8,0 1.6,-0.1 2.4,-0.3 v 0 0 c 2.3,-0.5 4.2,-1.8 5.5,-3.5 z"
         inkscape:connector-curvature="0"
         style="fill:#ff9e2e;fill-opacity:1" />
      <polygon
         id="polygon4723"
         points=""
         style="fill:#ff9e2e;fill-opacity:1" />
      <path
         id="path4725"
         d="m 327.9,404.7 c -1.5,-1.7 -3.5,-3 -5.9,-3.4 v 0 c -5.6,-0.9 -11.1,-2.5 -16.3,-4.5 -1.2,-0.5 -2.4,-0.7 -3.6,-0.7 -2,0 -3.9,0.6 -5.5,1.7 -1.6,1.1 -2.9,2.6 -3.7,4.6 v 0 c -0.5,1.2 -0.7,2.4 -0.7,3.6 0,2 0.6,3.9 1.7,5.5 1.1,1.6 2.6,2.9 4.6,3.7 v 0 c 6.6,2.6 13.4,4.5 20.4,5.6 0.6,0.1 1.1,0.1 1.6,0.1 2.4,0 4.6,-0.9 6.3,-2.3 1.7,-1.4 3,-3.5 3.4,-5.9 0.1,-0.5 0.1,-1.1 0.1,-1.6 -0.1,-2.4 -1,-4.6 -2.4,-6.4 z"
         inkscape:connector-curvature="0"
         style="fill:#ff9e2e;fill-opacity:1" />
      <polygon
         id="polygon4727"
         points=""
         style="fill:#ff9e2e;fill-opacity:1" />
      <polygon
         id="polygon4729"
         points=""
         style="fill:#ff9e2e;fill-opacity:1" />
      <polygon
         id="polygon4731"
         points=""
         style="fill:#ff9e2e;fill-opacity:1" />
      <path
         id="path4733"
         d="m 406.4,283.3 c 2.7,5 4.9,10.3 6.4,15.7 v 0 c 0.6,2.1 1.9,3.9 3.6,5.2 1.7,1.2 3.7,1.9 5.9,1.9 0.9,0 1.8,-0.1 2.8,-0.4 v 0 c 2.1,-0.6 3.9,-1.9 5.2,-3.6 1.2,-1.7 1.9,-3.7 1.9,-5.9 0,-0.9 -0.1,-1.8 -0.4,-2.8 -2,-6.8 -4.7,-13.3 -8,-19.5 v 0 c -0.9,-1.6 -2.2,-2.9 -3.7,-3.8 -1.5,-0.9 -3.2,-1.3 -5,-1.3 -1.6,0 -3.2,0.4 -4.7,1.2 -1.6,0.9 -2.9,2.2 -3.8,3.7 -0.9,1.5 -1.3,3.2 -1.3,5 -0.1,1.5 0.3,3.2 1.1,4.6 z"
         inkscape:connector-curvature="0"
         style="fill:#ff9e2e;fill-opacity:1" />
      <path
         id="path4735"
         d="m 246.4,301.5 v 0 c 1.1,0.4 2.1,0.5 3.2,0.5 2,0 4,-0.6 5.7,-1.8 1.6,-1.1 3,-2.8 3.7,-4.9 v 0 0 c 1.8,-5.3 4.3,-10.5 7.2,-15.4 v 0 c 1,-1.6 1.4,-3.4 1.4,-5.1 0,-1.7 -0.4,-3.3 -1.2,-4.8 -0.8,-1.5 -2,-2.7 -3.5,-3.7 v 0 c -1.6,-1 -3.3,-1.4 -5.1,-1.4 -1.7,0 -3.3,0.4 -4.8,1.2 -1.5,0.8 -2.7,2 -3.7,3.5 -3.6,6 -6.7,12.5 -8.9,19.1 v 0 c -0.4,1.1 -0.5,2.1 -0.5,3.2 0,2 0.6,4 1.8,5.7 1,1.9 2.6,3.2 4.7,3.9 z"
         inkscape:connector-curvature="0"
         style="fill:#ff9e2e;fill-opacity:1" />
      <polygon
         id="polygon4737"
         points=""
         style="fill:#ff9e2e;fill-opacity:1" />
      <polygon
         id="polygon4739"
         points=""
         style="fill:#ff9e2e;fill-opacity:1" />
      <path
         id="path4741"
         d="m 345.7,241.6 c 0.4,0.1 0.9,0.1 1.3,0.1 2.4,0 4.7,-0.9 6.5,-2.4 1.7,-1.5 3,-3.7 3.3,-6.2 v 0 c 0.1,-0.4 0.1,-0.8 0.1,-1.3 0,-2.4 -0.9,-4.7 -2.4,-6.5 -1.5,-1.7 -3.7,-3 -6.2,-3.3 -4.3,-0.5 -8.6,-0.8 -12.9,-0.8 -2.7,0 -5.5,0.1 -8.2,0.3 -2.6,0.2 -4.8,1.4 -6.5,3.2 -1.6,1.8 -2.6,4.1 -2.6,6.7 0,0.3 0,0.5 0,0.8 0.2,2.6 1.4,4.8 3.2,6.5 1.8,1.6 4.1,2.6 6.6,2.6 0.3,0 0.5,0 0.8,0 v 0 c 2.2,-0.2 4.4,-0.3 6.6,-0.3 3.5,-0.1 7,0.1 10.4,0.6 z"
         inkscape:connector-curvature="0"
         style="fill:#ff9e2e;fill-opacity:1" />
      <path
         id="path4743"
         d="m 416.5,363 -1.5,2.3 1.5,-2.3 c -1.7,-1.1 -3.5,-1.6 -5.4,-1.6 -1.6,0 -3.2,0.4 -4.6,1.1 -1.4,0.8 -2.7,1.9 -3.6,3.3 v 0.1 -0.1 c -3.1,4.7 -6.7,9.2 -10.7,13.2 v 0 c -1.9,1.9 -2.9,4.5 -2.9,7 0,2.5 1,5 2.9,6.9 1.9,1.9 4.5,2.9 7,2.9 2.5,0 5,-1 6.9,-2.9 5,-5 9.5,-10.5 13.3,-16.3 1.1,-1.7 1.6,-3.5 1.6,-5.4 0,-1.6 -0.4,-3.2 -1.1,-4.6 -0.8,-1.4 -1.9,-2.6 -3.4,-3.6 z"
         inkscape:connector-curvature="0"
         style="fill:#ff9e2e;fill-opacity:1" />
      <polygon
         id="polygon4745"
         points=""
         style="fill:#ff9e2e;fill-opacity:1" />
      <path
         id="path4747"
         d="m 432.9,314.7 c -1.8,-1.8 -4.3,-2.9 -7,-2.9 -2.7,0 -5.2,1.1 -7,2.9 -1.8,1.8 -2.9,4.3 -2.9,7 0,5.7 -0.6,11.4 -1.8,16.9 v 0 c -0.1,0.7 -0.2,1.4 -0.2,2.1 0,2.3 0.8,4.4 2.2,6.1 1.4,1.7 3.3,3 5.6,3.5 0.7,0.1 1.4,0.2 2.1,0.2 2.3,0 4.4,-0.8 6.1,-2.2 1.7,-1.4 3,-3.3 3.5,-5.6 v 0 c 1.5,-6.9 2.2,-13.9 2.2,-21 0.1,-2.7 -1.1,-5.2 -2.8,-7 z"
         inkscape:connector-curvature="0"
         style="fill:#ff9e2e;fill-opacity:1" />
      <path
         id="path4749"
         d="m 394.2,262.7 c 2.8,0 5.5,-1.2 7.5,-3.4 l -2,-1.8 2,1.8 c 1.6,-1.8 2.4,-4.1 2.4,-6.4 0,-2.8 -1.2,-5.5 -3.4,-7.5 -5.4,-4.6 -11.2,-8.6 -17.4,-12 v 0 c -1.5,-0.8 -3.1,-1.2 -4.7,-1.2 -1.7,0 -3.5,0.5 -5,1.3 -1.5,0.9 -2.8,2.2 -3.7,3.8 -0.8,1.5 -1.2,3.1 -1.2,4.7 0,1.7 0.5,3.5 1.3,5 0.9,1.5 2.2,2.8 3.8,3.7 5,2.7 9.7,5.9 14,9.6 v 0 c 1.8,1.6 4.1,2.4 6.4,2.4 z"
         inkscape:connector-curvature="0"
         style="fill:#ff9e2e;fill-opacity:1" />
      <path
         id="path4751"
         d="m 377,396.4 c -1.6,-1 -3.4,-1.6 -5.3,-1.6 -1.3,0 -2.7,0.3 -4,0.8 l 1.1,2.5 -1.1,-2.5 c -5.2,2.3 -10.6,4 -16.2,5.1 -2.3,0.5 -4.3,1.7 -5.7,3.5 -1.4,1.7 -2.2,3.9 -2.2,6.2 0,0.7 0.1,1.3 0.2,2 v 0 c 0.5,2.3 1.7,4.3 3.5,5.7 1.7,1.4 3.9,2.2 6.2,2.2 0.7,0 1.3,-0.1 2,-0.2 6.9,-1.4 13.7,-3.6 20.1,-6.4 v 0 c 1.8,-0.8 3.3,-2.1 4.3,-3.7 1,-1.6 1.6,-3.4 1.6,-5.3 0,-1.3 -0.3,-2.7 -0.8,-4 -0.8,-1.8 -2.1,-3.3 -3.7,-4.3 z"
         inkscape:connector-curvature="0"
         style="fill:#ff9e2e;fill-opacity:1" />
      <polygon
         id="polygon4753"
         points=""
         style="fill:#ff9e2e;fill-opacity:1" />
      <polygon
         id="polygon4755"
         points=""
         style="fill:#ff9e2e;fill-opacity:1" />
      <path
         id="path4757"
         d="m 502.3,124.2 v 0 c -1.2,-9.1 -3.5,-17.8 -6.8,-25.7 -10.8,-26 -36.3,-42.8 -64.9,-42.7 H 415.2 V 34.7 c 0,-4.5 -2.5,-8.6 -6.5,-10.7 -1.7,-0.9 -3.6,-1.3 -5.5,-1.3 -2.4,0 -4.9,0.8 -7,2.2 l -76.6,54.5 c -3.2,2.3 -5,5.9 -5,9.8 0,3.9 1.9,7.5 5,9.8 l 76.6,54.5 v 0 c 2.1,1.5 4.5,2.2 7,2.2 1.9,0 3.8,-0.4 5.5,-1.3 v 0 c 4,-2.1 6.5,-6.2 6.5,-10.7 v -25.3 c 0.6,0 1.1,-0.1 1.7,-0.1 v 0 c 2.9,-0.2 5.6,-0.3 8.1,-0.3 0.3,0 0.7,0 1,0 v 0 c 2.4,0 4.9,0 7.4,0.1 9.7,0 19,0.1 26.8,2 3.9,0.9 7.5,2.3 10.7,4.4 3.2,2 6,4.7 8.4,8.4 2.4,3.6 6.4,5.7 10.5,5.7 1.5,0 3,-0.3 4.4,-0.8 5,-1.8 8.2,-6.6 8.2,-11.7 0,-0.7 0,-1.3 -0.1,-1.9 z m -76,-25.9 v 0 c -0.4,0 -0.9,0 -1.3,0 -3.2,0 -6.4,0.2 -9.4,0.4 v 0 0 c -2.9,0.2 -5.6,0.3 -8.2,0.3 -3.3,0 -6.3,1.4 -8.5,3.5 -2.2,2.2 -3.5,5.2 -3.5,8.5 v 17.8 L 339.8,89.2 395.4,49.6 v 13.8 c 0,3.3 1.4,6.3 3.5,8.5 2.2,2.2 5.2,3.5 8.5,3.5 h 23.1 c 20.3,0 38.3,11.6 46.2,29.6 -5.7,-2.8 -11.8,-4.4 -17.9,-5.4 -8.6,-1.3 -17.4,-1.4 -25.6,-1.4 v 0 c -2.2,0.1 -4.5,0.1 -6.9,0.1 z"
         inkscape:connector-curvature="0"
         style="fill:#ff9e2e;fill-opacity:1" />
      <path
         id="path4759"
         d="m 193.6,413 v 0 l -25.3,-18 c -1.7,-1.2 -3.7,-1.8 -5.7,-1.8 -1.5,0 -3.1,0.4 -4.4,1.1 -1.4,0.7 -2.6,1.7 -3.6,3.1 -1.2,1.7 -1.8,3.7 -1.8,5.7 0,1.5 0.4,3.1 1.1,4.4 0.7,1.4 1.7,2.6 3.1,3.6 v 0 l 16.5,11.7 -55.6,39.6 v -13.8 c 0,-3.3 -1.4,-6.3 -3.5,-8.5 -2.2,-2.2 -5.2,-3.5 -8.5,-3.5 H 82.6 C 62.3,436.6 44.3,425 36.4,407 c 5.7,2.8 11.8,4.4 17.9,5.4 8.6,1.3 17.4,1.4 25.6,1.4 v 0 c 2.4,0 4.8,0 7.1,0.1 v 0 c 0.4,0 0.9,0 1.3,0 3.2,0 6.3,-0.2 9.3,-0.4 2.9,-0.2 5.6,-0.3 8.2,-0.3 3.3,0 6.3,-1.4 8.5,-3.5 2.2,-2.2 3.5,-5.2 3.5,-8.5 v -17.8 l 12.7,9.1 c 1.7,1.2 3.7,1.8 5.7,1.8 1.5,0 3.1,-0.4 4.4,-1.1 1.4,-0.7 2.6,-1.7 3.6,-3.1 1.2,-1.7 1.8,-3.7 1.8,-5.7 0,-1.5 -0.4,-3.1 -1.1,-4.4 -0.7,-1.4 -1.7,-2.6 -3.1,-3.6 L 117,358.5 c -2.1,-1.5 -4.5,-2.2 -7,-2.2 -1.9,0 -3.8,0.4 -5.5,1.3 -4,2.1 -6.5,6.2 -6.5,10.7 v 25.3 c -0.6,0 -1.1,0.1 -1.7,0.1 v 0 c -2.9,0.2 -5.6,0.3 -8.1,0.3 -0.3,0 -0.7,0 -1,0 v 0 c -2.4,0 -4.9,0 -7.4,-0.1 v 0 c -9.7,0 -19,-0.1 -26.8,-2 -3.9,-0.9 -7.5,-2.3 -10.7,-4.4 -3.2,-2 -6,-4.7 -8.4,-8.4 v 0 0 c -2.4,-3.6 -6.4,-5.7 -10.5,-5.7 -1.5,0 -3,0.3 -4.4,0.8 -5,1.8 -8.2,6.6 -8.2,11.7 0,0.6 0,1.1 0.1,1.7 v 0 c 1.2,9.1 3.5,17.8 6.8,25.7 v 0 0 c 10.8,26 36.3,42.8 64.9,42.7 H 98 v 21.1 c 0,4.5 2.5,8.6 6.5,10.7 v 0 c 1.7,0.9 3.6,1.3 5.5,1.3 2.4,0 4.9,-0.8 7,-2.2 l 76.6,-54.5 v 0 c 3.2,-2.3 5,-5.9 5,-9.8 v 0 c 0,-3.7 -1.9,-7.4 -5,-9.6 z"
         inkscape:connector-curvature="0"
         style="fill:#ff9e2e;fill-opacity:1" />
      <polygon
         id="polygon4761"
         points=""
         style="fill:#ff9e2e;fill-opacity:1" />
      <polygon
         id="polygon4763"
         points="130.5,392.2 130.5,392.3 "
         style="fill:#ff9e2e;fill-opacity:1" />
      <polygon
         id="polygon4765"
         points=""
         style="fill:#ff9e2e;fill-opacity:1" />
      <polygon
         id="polygon4767"
         points=""
         style="fill:#ff9e2e;fill-opacity:1" />
      <polygon
         id="polygon4769"
         points=""
         style="fill:#ff9e2e;fill-opacity:1" />
      <path
         id="path4771"
         d="m 335.3,179.4 c -4.3,0 -8.6,0.2 -12.9,0.6 C 318.1,143.3 300.6,110.7 274.7,87 248.2,62.8 212.9,48 174.2,48 91.8,48 24.9,115 24.9,197.3 c 0,41.2 16.7,78.5 43.8,105.5 27,27 64.4,43.8 105.5,43.8 7,0 14,-0.5 20.8,-1.5 5.5,33.3 22.6,62.6 47,83.9 25,21.8 57.7,35 93.4,35 39.2,0 74.8,-16 100.6,-41.7 25.8,-25.8 41.7,-61.4 41.7,-100.6 0,-39.2 -16,-74.8 -41.7,-100.6 -25.9,-25.8 -61.5,-41.7 -100.7,-41.7 z m 0,264.9 c -33.8,0 -64.4,-13.7 -86.7,-36 -22.2,-22.2 -36,-52.9 -36,-86.7 0,-33.8 13.7,-64.5 36,-86.7 22.2,-22.2 52.9,-36 86.7,-36 33.8,0 64.5,13.7 86.7,36 22.2,22.2 36,52.9 36,86.7 0,33.8 -13.7,64.4 -36,86.7 -22.3,22.3 -52.9,36 -86.7,36 z M 200.6,275.7 c -8.3,2.8 -17.2,4.4 -26.5,4.4 -22.8,0 -43.5,-9.3 -58.5,-24.3 -15,-15 -24.3,-35.7 -24.3,-58.5 0,-22.8 9.3,-43.5 24.3,-58.5 15,-15 35.7,-24.3 58.5,-24.3 7.1,0 14.1,0.9 20.8,2.6 v 0 c 0.8,0.2 1.7,0.3 2.5,0.3 2.2,0 4.3,-0.7 6,-2 1.7,-1.3 3,-3.1 3.6,-5.4 0.2,-0.8 0.3,-1.7 0.3,-2.5 0,-2.2 -0.7,-4.3 -2,-6 -1.3,-1.7 -3.1,-3 -5.4,-3.6 -8.4,-2.2 -17.1,-3.3 -25.8,-3.3 -28.2,0 -53.9,11.5 -72.4,30 -18.5,18.5 -30,44.2 -30,72.4 0,28.2 11.5,53.9 30,72.4 18.5,18.5 44.2,30 72.4,30 7.1,0 14.1,-0.8 20.9,-2.2 -1.3,7.8 -2.1,15.9 -2.1,24.1 0,1.3 0,2.5 0.1,3.8 -6.2,0.9 -12.5,1.4 -18.9,1.4 -35.7,0 -68.1,-14.5 -91.6,-38 -23.5,-23.5 -38,-55.9 -38,-91.6 0,-35.7 14.5,-68.1 38,-91.6 23.5,-23.5 55.9,-38 91.6,-38 33.7,0 64.5,13 87.6,34.2 22.5,20.7 37.7,49.2 41.2,81.3 -9.2,2.1 -18.1,5.2 -26.5,9 -1.6,-31.4 -17.6,-60.5 -43.4,-78.7 -1.7,-1.2 -3.7,-1.8 -5.7,-1.8 -1.5,0 -3.1,0.4 -4.5,1.1 -1.4,0.7 -2.6,1.8 -3.6,3.1 -1.2,1.7 -1.8,3.7 -1.8,5.7 0,1.5 0.4,3.1 1.1,4.5 0.7,1.4 1.8,2.6 3.1,3.6 22.1,15.5 35.2,40.8 35.2,67.7 0,2 -0.1,3.9 -0.2,5.9 -25.8,17.4 -45.7,42.9 -56,72.8 z"
         inkscape:connector-curvature="0"
         style="fill:#ff9e2e;fill-opacity:1" />
      <polygon
         id="polygon4773"
         points=""
         style="fill:#ff9e2e;fill-opacity:1" />
      <path
         id="path4775"
         d="m 200.4,199.1 c -2.7,-2.9 -6,-5.2 -9.4,-7 -2.8,-1.5 -5.7,-2.7 -8.5,-3.8 V 170 c 2.4,0.5 4.2,1.2 5.8,2 1.1,0.5 2.1,1.1 3.2,1.6 1.1,0.5 2.4,0.9 3.8,0.9 1.8,0 3.4,-0.6 4.7,-1.5 1.9,-1.4 3.1,-3.2 3.9,-5.1 0.4,-0.9 0.7,-1.8 0.8,-2.7 0.2,-0.9 0.3,-1.7 0.3,-2.5 0,-1.4 -0.3,-2.7 -0.9,-3.8 -0.5,-1 -1.2,-1.9 -2,-2.7 -1.4,-1.3 -3,-2.3 -4.8,-3.2 -2.7,-1.2 -5.8,-2 -8.8,-2.6 -2.1,-0.4 -4.1,-0.6 -6,-0.7 v -0.9 c 0,-1 -0.3,-1.9 -0.8,-2.7 -0.7,-1.1 -1.7,-1.9 -2.7,-2.4 -1.1,-0.5 -2.3,-0.9 -3.6,-0.9 -1.8,0 -3.5,0.6 -4.8,1.5 -0.7,0.5 -1.2,1.1 -1.7,1.9 -0.4,0.7 -0.7,1.6 -0.7,2.6 v 1.4 c -6.1,1.1 -12.1,3.4 -16.8,7.5 -2.6,2.3 -4.9,5.1 -6.4,8.6 -1.5,3.4 -2.4,7.4 -2.4,11.9 0,4.6 0.9,8.5 2.6,11.8 1.2,2.5 2.9,4.6 4.7,6.4 2.8,2.7 6.1,4.8 9.6,6.5 2.9,1.4 5.8,2.6 8.6,3.6 v 21.1 c -1.3,-0.3 -2.5,-0.8 -3.6,-1.3 -2.8,-1.3 -4.9,-3.1 -7,-4.7 -1.1,-0.8 -2.1,-1.6 -3.3,-2.2 -1.2,-0.6 -2.5,-1.1 -4,-1.1 -1.6,0 -3.1,0.6 -4.3,1.4 -1.8,1.2 -3.2,2.9 -4.2,4.8 -0.5,0.9 -0.9,1.9 -1.1,2.8 -0.3,1 -0.4,2 -0.4,2.9 0,1.3 0.3,2.6 0.7,3.8 0.8,2.1 2.2,4.1 4,5.8 2.7,2.6 6.4,4.9 10.8,6.6 3.7,1.4 7.9,2.4 12.4,2.7 v 1.1 c 0,1 0.3,1.8 0.7,2.6 0.7,1.1 1.6,1.9 2.7,2.5 1.1,0.6 2.4,0.9 3.8,0.9 1.8,0 3.3,-0.6 4.7,-1.5 0.7,-0.5 1.2,-1.1 1.7,-1.8 0.5,-0.7 0.8,-1.6 0.8,-2.7 v -1.9 c 3.1,-0.7 6,-1.6 8.6,-2.9 4.9,-2.4 9.1,-5.9 11.9,-10.5 2.9,-4.6 4.4,-10.3 4.4,-16.8 0,-4.8 -0.9,-8.9 -2.5,-12.5 -1.1,-2.3 -2.7,-4.6 -4.5,-6.5 z m -16.5,15.3 c 0.7,0.7 1.2,1.5 1.5,2.4 0.4,0.9 0.6,2 0.6,3.3 0,1.3 -0.2,2.3 -0.5,3.2 -0.5,1.3 -1.3,2.3 -2.5,3.1 -0.4,0.3 -0.9,0.6 -1.4,0.8 v -14.8 c 0.9,0.6 1.7,1.3 2.3,2 z M 169,183 c -1.7,-0.9 -3,-1.8 -3.7,-2.8 -0.4,-0.5 -0.7,-1 -0.9,-1.6 -0.2,-0.6 -0.3,-1.2 -0.3,-2.1 0,-0.9 0.2,-1.6 0.5,-2.3 0.5,-1 1.2,-1.8 2.5,-2.6 0.6,-0.4 1.3,-0.7 2.2,-1 V 183 c -0.1,0.1 -0.2,0.1 -0.3,0 z"
         inkscape:connector-curvature="0"
         style="fill:#ff9e2e;fill-opacity:1" />
    </g>
    <text
       xml:space="preserve"
       style="font-style:normal;font-weight:normal;font-size:38.77852249px;line-height:1.25;font-family:sans-serif;letter-spacing:0px;word-spacing:0px;fill:#0063a6;fill-opacity:1;stroke:none;stroke-width:0.27535999;stroke-miterlimit:4;stroke-dasharray:none"
       x="81.689972"
       y="271.81253"
       id="text4662"
       transform="scale(1.1261842,0.88795421)"
       inkscape:transform-center-x="-55.592061"
       inkscape:transform-center-y="17.639789"><tspan
         sodipodi:role="line"
         id="tspan4660"
         x="81.689972"
         y="271.81253"
         style="fill:#0063a6;fill-opacity:1;stroke-width:0.27535999;stroke-miterlimit:4;stroke-dasharray:none">3</tspan></text>
  </g>
  <style
     id="style3713"
     type="text/css">
	.st0{fill:#FFBC00;}
</style>
</svg>
