<?xml version="1.0" encoding="UTF-8" standalone="no"?>
<svg
   xmlns:dc="http://purl.org/dc/elements/1.1/"
   xmlns:cc="http://creativecommons.org/ns#"
   xmlns:rdf="http://www.w3.org/1999/02/22-rdf-syntax-ns#"
   xmlns:svg="http://www.w3.org/2000/svg"
   xmlns="http://www.w3.org/2000/svg"
   xmlns:sodipodi="http://sodipodi.sourceforge.net/DTD/sodipodi-0.dtd"
   xmlns:inkscape="http://www.inkscape.org/namespaces/inkscape"
   enable-background="new 0 0 60 56"
   height="512"
   viewBox="0 0 60 56"
   width="512"
   version="1.1"
   id="svg32"
   sodipodi:docname="fac_use.svg"
   inkscape:version="0.92.3 (2405546, 2018-03-11)">
  <metadata
     id="metadata38">
    <rdf:RDF>
      <cc:Work
         rdf:about="">
        <dc:format>image/svg+xml</dc:format>
        <dc:type
           rdf:resource="http://purl.org/dc/dcmitype/StillImage" />
      </cc:Work>
    </rdf:RDF>
  </metadata>
  <defs
     id="defs36" />
  <sodipodi:namedview
     pagecolor="#ffffff"
     bordercolor="#666666"
     borderopacity="1"
     objecttolerance="10"
     gridtolerance="10"
     guidetolerance="10"
     inkscape:pageopacity="0"
     inkscape:pageshadow="2"
     inkscape:window-width="718"
     inkscape:window-height="480"
     id="namedview34"
     showgrid="false"
     inkscape:zoom="0.4609375"
     inkscape:cx="256"
     inkscape:cy="256"
     inkscape:window-x="0"
     inkscape:window-y="0"
     inkscape:window-maximized="0"
     inkscape:current-layer="svg32" />
  <path
     d="m 23.25,38.711864 c -6.182097,0 -11.211864,-3.822427 -11.211864,-8.520581 0,-4.698154 5.029767,-8.520581 11.211864,-8.520581 6.182098,0 11.211865,3.822427 11.211865,8.520581 0,4.698154 -5.029767,8.520581 -11.211865,8.520581 z m 0,-16.094431 c -5.495682,0 -9.966102,3.397818 -9.966102,7.57385 0,4.176031 4.47042,7.57385 9.966102,7.57385 5.495683,0 9.966102,-3.397819 9.966102,-7.57385 0,-4.176032 -4.470419,-7.57385 -9.966102,-7.57385 z"
     id="path2"
     inkscape:connector-curvature="0"
     style="stroke-width:0.54300147;fill:#ff9e2e;fill-opacity:1" />
  <path
     d="m 15.152542,30.664649 c -0.34383,0 -0.622881,-0.211595 -0.622881,-0.473366 0,-3.654383 3.911695,-6.627119 8.720339,-6.627119 0.343831,0 0.622882,0.211595 0.622882,0.473366 0,0.261771 -0.279051,0.473365 -0.622882,0.473365 -4.121606,0 -7.474576,2.548128 -7.474576,5.680388 0,0.261771 -0.279051,0.473366 -0.622882,0.473366 z"
     id="path4"
     inkscape:connector-curvature="0"
     style="stroke-width:0.54300147;fill:#ff9e2e;fill-opacity:1" />
  <path
     d="m 23.25,36.818402 c -0.34383,0 -0.622881,-0.211595 -0.622881,-0.473366 0,-0.261771 0.279051,-0.473366 0.622881,-0.473366 4.121606,0 7.474577,-2.548127 7.474577,-5.680387 0,-0.261771 0.279051,-0.473366 0.622881,-0.473366 0.343831,0 0.622881,0.211595 0.622881,0.473366 0,3.654382 -3.911694,6.627119 -8.720339,6.627119 z"
     id="path6"
     inkscape:connector-curvature="0"
     style="stroke-width:0.54300147;fill:#ff9e2e;fill-opacity:1" />
  <path
     d="m 42.559323,21.670702 h -13.70339 c -0.343831,0 -0.622882,-0.211595 -0.622882,-0.473366 v -2.840194 c 0,-0.261771 0.279051,-0.473365 0.622882,-0.473365 h 13.70339 c 0.34383,0 0.622881,0.211594 0.622881,0.473365 v 2.840194 c 0,0.261771 -0.279051,0.473366 -0.622881,0.473366 z M 29.478814,20.723971 H 41.936441 V 18.830508 H 29.478814 Z"
     id="path8"
     inkscape:connector-curvature="0"
     style="stroke-width:0.54300147;fill:#ff9e2e;fill-opacity:1" />
  <path
     d="M 40.690678,18.830508 H 26.987289 c -0.343831,0 -0.622882,-0.211594 -0.622882,-0.473366 v -2.840193 c 0,-0.261771 0.279051,-0.473366 0.622882,-0.473366 h 13.703389 c 0.343831,0 0.622882,0.211595 0.622882,0.473366 v 2.840193 c 0,0.261772 -0.279051,0.473366 -0.622882,0.473366 z M 27.61017,17.883777 H 40.067797 V 15.990314 H 27.61017 Z"
     id="path10"
     inkscape:connector-curvature="0"
     style="stroke-width:0.54300147;fill:#ff9e2e;fill-opacity:1" />
  <path
     d="m 42.559323,15.990314 h -13.70339 c -0.343831,0 -0.622882,-0.211594 -0.622882,-0.473365 v -2.840194 c 0,-0.261771 0.279051,-0.473366 0.622882,-0.473366 h 13.70339 c 0.34383,0 0.622881,0.211595 0.622881,0.473366 v 2.840194 c 0,0.261771 -0.279051,0.473365 -0.622881,0.473365 z M 29.478814,15.043583 H 41.936441 V 13.150121 H 29.478814 Z"
     id="path12"
     inkscape:connector-curvature="0"
     style="stroke-width:0.54300147;fill:#ff9e2e;fill-opacity:1" />
  <path
     d="M 40.690678,24.510895 H 30.066191 c -0.147,0 -0.289017,-0.03929 -0.401758,-0.11124 -0.854594,-0.547211 -1.829403,-0.980341 -2.897644,-1.287082 -0.241678,-0.07006 -0.402382,-0.24615 -0.402382,-0.44307 v -1.472167 c 0,-0.261771 0.279051,-0.473365 0.622882,-0.473365 h 13.703389 c 0.343831,0 0.622882,0.211594 0.622882,0.473365 v 2.840194 c 0,0.261771 -0.279051,0.473365 -0.622882,0.473365 z M 30.289806,23.564164 h 9.777991 V 21.670702 H 27.61017 v 0.678333 c 0.972318,0.311474 1.871136,0.718569 2.679636,1.215129 z"
     id="path14"
     inkscape:connector-curvature="0"
     style="stroke-width:0.54300147;fill:#ff9e2e;fill-opacity:1" />
  <path
     d="m 42.559323,27.351089 h -9.667119 c -0.244793,0 -0.466538,-0.108401 -0.567445,-0.277865 -0.612292,-1.027204 -1.531665,-1.951687 -2.659703,-2.673569 -0.199945,-0.128283 -0.273445,-0.33751 -0.18375,-0.524016 0.08969,-0.186506 0.323275,-0.311475 0.584885,-0.311475 h 12.493132 c 0.34383,0 0.622881,0.211595 0.622881,0.473366 v 2.840194 c 0,0.261771 -0.279051,0.473365 -0.622881,0.473365 z m -9.273458,-0.946731 h 8.650576 V 24.510895 H 31.597856 c 0.668975,0.569459 1.239534,1.208976 1.688009,1.893463 z"
     id="path16"
     inkscape:connector-curvature="0"
     style="stroke-width:0.54300147;fill:#ff9e2e;fill-opacity:1" />
  <path
     d="m 40.690678,30.191283 h -6.883461 c -0.330128,0 -0.60295,-0.1955 -0.621636,-0.445437 -0.07163,-0.935844 -0.361271,-1.834765 -0.860822,-2.672622 -0.0872,-0.146744 -0.07101,-0.316682 0.04423,-0.452065 0.113987,-0.134909 0.31144,-0.216801 0.52322,-0.216801 h 7.798474 c 0.343831,0 0.622882,0.211594 0.622882,0.473366 v 2.840193 c 0,0.261771 -0.279051,0.473366 -0.622882,0.473366 z m -6.310411,-0.946731 h 5.68753 v -1.893463 h -6.254352 c 0.282789,0.609222 0.472767,1.243058 0.566822,1.893463 z"
     id="path18"
     inkscape:connector-curvature="0"
     style="stroke-width:0.54300147;fill:#ff9e2e;fill-opacity:1" />
  <path
     d="m 42.559323,33.031477 h -9.1875 c -0.197454,0 -0.383695,-0.071 -0.500797,-0.191713 -0.117725,-0.121182 -0.152606,-0.276919 -0.09468,-0.420823 0.291508,-0.721409 0.439754,-1.470746 0.439754,-2.227658 0,-0.106034 -0.01,-0.209228 -0.01931,-0.313368 l -0.01121,-0.132069 c -0.01,-0.130176 0.05108,-0.257511 0.168801,-0.352658 0.117724,-0.09467 0.281542,-0.148163 0.453457,-0.148163 h 8.751484 c 0.34383,0 0.622881,0.211594 0.622881,0.473366 v 2.840193 c 0,0.261298 -0.279051,0.472893 -0.62288,0.472893 z m -8.377132,-0.946732 h 7.75425 v -1.893462 h -7.474576 c 0,0.639043 -0.09406,1.273353 -0.279674,1.893462 z"
     id="path20"
     inkscape:connector-curvature="0"
     style="stroke-width:0.54300147;fill:#ff9e2e;fill-opacity:1" />
  <path
     d="m 40.690678,35.87167 h -9.374987 c -0.242924,0 -0.463424,-0.107454 -0.565576,-0.274552 -0.102153,-0.167571 -0.06665,-0.364965 0.09094,-0.505081 0.888228,-0.793834 1.539139,-1.692755 1.935292,-2.672622 0.08035,-0.199287 0.32203,-0.33467 0.595475,-0.33467 h 7.318855 c 0.343831,0 0.622882,0.211595 0.622882,0.473366 v 2.840194 c 0,0.261771 -0.279051,0.473365 -0.622882,0.473365 z m -8.122372,-0.946731 h 7.499491 v -1.893462 h -6.245631 c -0.311441,0.669339 -0.731263,1.302702 -1.25386,1.893462 z"
     id="path22"
     inkscape:connector-curvature="0"
     style="stroke-width:0.54300147;fill:#ff9e2e;fill-opacity:1" />
  <path
     d="M 46.919492,38.711864 H 10.792373 c -0.343831,0 -0.622881,-0.211594 -0.622881,-0.473366 0,-0.261771 0.27905,-0.473365 0.622881,-0.473365 h 36.127119 c 0.343831,0 0.622881,0.211594 0.622881,0.473365 0,0.261772 -0.27905,0.473366 -0.622881,0.473366 z"
     id="path24"
     inkscape:connector-curvature="0"
     style="stroke-width:0.54300147;fill:#ff9e2e;fill-opacity:1" />
  <path
     d="M 42.559323,38.711864 H 23.25 c -0.34383,0 -0.622881,-0.211594 -0.622881,-0.473366 0,-0.261771 0.279051,-0.473365 0.622881,-0.473365 2.92256,0 5.689399,-0.97466 7.590433,-2.672623 0.118347,-0.106033 0.292131,-0.167098 0.474635,-0.167098 l 11.244255,-4.73e-4 c 0.165063,0 0.323898,0.0497 0.440377,0.138696 0.116478,0.08899 0.182504,0.208754 0.182504,0.33467 v 2.840193 c 0,0.261772 -0.279051,0.473366 -0.622881,0.473366 z M 28.381297,37.765133 H 41.936441 V 35.87167 H 31.598479 c -0.923733,0.783894 -2.016267,1.421991 -3.217182,1.893463 z"
     id="path26"
     inkscape:connector-curvature="0"
     style="stroke-width:0.54300147;fill:#ff9e2e;fill-opacity:1" />
  <path
     d="m 26.364407,31.61138 c -0.07786,0 -0.156343,-0.01089 -0.231089,-0.03361 L 23.25,30.701097 20.366683,31.57777 c -0.23981,0.07195 -0.514501,0.02556 -0.68953,-0.119287 -0.17503,-0.144377 -0.214272,-0.356445 -0.09904,-0.532063 l 3.114408,-4.733656 c 0.211156,-0.320942 0.903178,-0.320942 1.114334,0 l 3.114407,4.733656 c 0.115856,0.175618 0.07661,0.387686 -0.09904,0.532063 -0.119593,0.09941 -0.287148,0.152897 -0.457818,0.152897 z M 23.25,29.717917 c 0.07848,0 0.156967,0.01089 0.231089,0.03361 L 25.07442,30.23578 23.25,27.462804 l -1.824419,2.772976 1.59333,-0.484253 c 0.07412,-0.02272 0.152606,-0.03361 0.231089,-0.03361 z"
     id="path28"
     inkscape:connector-curvature="0"
     style="stroke-width:0.54300147;fill:#ff9e2e;fill-opacity:1" />
  <path
     d="m 23.25,34.451573 c -0.184995,0 -0.360025,-0.06248 -0.478372,-0.169938 L 19.65722,31.441441 c -0.12769,-0.116447 -0.174406,-0.272185 -0.125199,-0.419401 0.04921,-0.147217 0.187487,-0.266979 0.372483,-0.323783 l 3.114407,-0.946731 c 0.148246,-0.04544 0.313933,-0.04544 0.462801,0 l 3.114407,0.946731 c 0.184996,0.05633 0.323898,0.176566 0.372483,0.323783 0.04859,0.147216 0.0025,0.302954 -0.125199,0.419401 l -3.114407,2.840194 c -0.11897,0.107454 -0.294,0.169938 -0.478996,0.169938 z M 21.162725,31.335408 23.25,33.238811 25.337276,31.335408 23.25,30.701098 Z"
     id="path30"
     inkscape:connector-curvature="0"
     style="stroke-width:0.54300147;fill:#ff9e2e;fill-opacity:1" />
</svg>
