<?xml version="1.0" encoding="UTF-8" standalone="no"?>
<!-- Generator: Adobe Illustrator 24.1.1, SVG Export Plug-In . SVG Version: 6.00 Build 0)  -->

<svg
   xmlns:dc="http://purl.org/dc/elements/1.1/"
   xmlns:cc="http://creativecommons.org/ns#"
   xmlns:rdf="http://www.w3.org/1999/02/22-rdf-syntax-ns#"
   xmlns:svg="http://www.w3.org/2000/svg"
   xmlns="http://www.w3.org/2000/svg"
   xmlns:sodipodi="http://sodipodi.sourceforge.net/DTD/sodipodi-0.dtd"
   xmlns:inkscape="http://www.inkscape.org/namespaces/inkscape"
   version="1.1"
   id="Capa_1"
   x="0px"
   y="0px"
   viewBox="0 0 477.9 477.9"
   style="enable-background:new 0 0 477.9 477.9;"
   xml:space="preserve"
   sodipodi:docname="fac_minus.svg"
   inkscape:version="0.92.3 (2405546, 2018-03-11)"><metadata
   id="metadata15"><rdf:RDF><cc:Work
       rdf:about=""><dc:format>image/svg+xml</dc:format><dc:type
         rdf:resource="http://purl.org/dc/dcmitype/StillImage" /></cc:Work></rdf:RDF></metadata><defs
   id="defs13" /><sodipodi:namedview
   pagecolor="#ffffff"
   bordercolor="#666666"
   borderopacity="1"
   objecttolerance="10"
   gridtolerance="10"
   guidetolerance="10"
   inkscape:pageopacity="0"
   inkscape:pageshadow="2"
   inkscape:window-width="718"
   inkscape:window-height="480"
   id="namedview11"
   showgrid="false"
   inkscape:zoom="0.49382717"
   inkscape:cx="238.95"
   inkscape:cy="238.95"
   inkscape:window-x="0"
   inkscape:window-y="27"
   inkscape:window-maximized="0"
   inkscape:current-layer="Capa_1" />
<g
   id="g6"
   style="fill:#707070;fill-opacity:1">
	<g
   id="g4"
   style="fill:#707070;fill-opacity:1">
		<path
   d="M392.5,0H85.3C38.2,0.1,0.1,38.2,0,85.3v307.2c0.1,47.1,38.2,85.3,85.3,85.3h307.2c47.1-0.1,85.3-38.2,85.3-85.3V85.3    C477.8,38.2,439.6,0.1,392.5,0z M443.7,392.5c0,28.3-22.9,51.2-51.2,51.2H85.3c-28.3,0-51.2-22.9-51.2-51.2V85.3    c0-28.3,22.9-51.2,51.2-51.2h307.2c28.3,0,51.2,22.9,51.2,51.2V392.5z"
   id="path2"
   style="fill:#707070;fill-opacity:1" />
	</g>
</g>
<path
   d="M323.4,255.5H153.6c-9.7,0-17.5-7.8-17.5-17.5v0c0-9.7,7.8-17.5,17.5-17.5h169.8c9.7,0,17.5,7.8,17.5,17.5v0  C340.9,247.6,333.1,255.5,323.4,255.5z"
   id="path8"
   style="fill:#707070;fill-opacity:1" />
</svg>