<?xml version="1.0" encoding="UTF-8" standalone="no"?>
<!-- Generator: Adobe Illustrator 19.0.0, SVG Export Plug-In . SVG Version: 6.00 Build 0)  -->

<svg
   xmlns:dc="http://purl.org/dc/elements/1.1/"
   xmlns:cc="http://creativecommons.org/ns#"
   xmlns:rdf="http://www.w3.org/1999/02/22-rdf-syntax-ns#"
   xmlns:svg="http://www.w3.org/2000/svg"
   xmlns="http://www.w3.org/2000/svg"
   xmlns:sodipodi="http://sodipodi.sourceforge.net/DTD/sodipodi-0.dtd"
   xmlns:inkscape="http://www.inkscape.org/namespaces/inkscape"
   version="1.1"
   id="Capa_1"
   x="0px"
   y="0px"
   viewBox="0 0 480.16 480.16"
   style="enable-background:new 0 0 480.16 480.16;"
   xml:space="preserve"
   sodipodi:docname="fac_wallet.svg"
   inkscape:version="0.92.3 (2405546, 2018-03-11)"><metadata
   id="metadata43"><rdf:RDF><cc:Work
       rdf:about=""><dc:format>image/svg+xml</dc:format><dc:type
         rdf:resource="http://purl.org/dc/dcmitype/StillImage" /></cc:Work></rdf:RDF></metadata><defs
   id="defs41" /><sodipodi:namedview
   pagecolor="#ffffff"
   bordercolor="#666666"
   borderopacity="1"
   objecttolerance="10"
   gridtolerance="10"
   guidetolerance="10"
   inkscape:pageopacity="0"
   inkscape:pageshadow="2"
   inkscape:window-width="718"
   inkscape:window-height="480"
   id="namedview39"
   showgrid="false"
   inkscape:zoom="0.49150283"
   inkscape:cx="3.0518644"
   inkscape:cy="240.08"
   inkscape:window-x="0"
   inkscape:window-y="0"
   inkscape:window-maximized="0"
   inkscape:current-layer="Capa_1" />
<g
   id="g6"
   transform="matrix(0.57428703,0,0,0.51694887,109.32619,109.86725)"
   style="fill:#ff9e2e;fill-opacity:1">
	<g
   id="g4"
   style="fill:#ff9e2e;fill-opacity:1">
		<path
   d="m 384.08,128.16 h -14.544 c -26.01,-40.463 -79.898,-52.179 -120.36,-26.168 -0.86,0.553 -1.711,1.121 -2.552,1.704 C 255.284,55.873 223.536,10.084 175.713,1.424 127.889,-7.237 82.1,24.512 73.44,72.335 69.831,92.265 73.208,112.83 83,130.56 c -16.054,5.537 -26.851,20.619 -26.92,37.6 v 272 c 0.026,22.08 17.92,39.974 40,40 h 288 c 22.08,-0.026 39.974,-17.92 40,-40 v -272 c -0.027,-22.081 -17.92,-39.974 -40,-40 z m -88.113,-24.018 c 25.746,-0.023 49.543,13.712 62.401,36.017 6.344,10.938 9.694,23.355 9.712,36 0.011,8.178 -1.388,16.297 -4.136,24 h -17.328 c 12.027,-25.144 3.661,-55.307 -19.6,-70.664 -18.814,-12.218 -43.058,-12.218 -61.872,0 -23.261,15.357 -31.627,45.52 -19.6,70.664 h -17.328 c -2.748,-7.703 -4.147,-15.822 -4.136,-24 -0.036,-39.737 32.149,-71.981 71.887,-72.017 z m 33.658,93.465 c -0.572,0.874 -1.178,1.726 -1.818,2.552 h -63.456 c -5.309,-6.88 -8.215,-15.31 -8.272,-24 -0.006,-13.415 6.722,-25.937 17.912,-33.336 13.434,-8.72 30.742,-8.72 44.176,0 18.293,11.965 23.423,36.492 11.458,54.784 z M 160.08,16.16 c 39.765,0 72,32.235 72,72 0,39.764 -32.235,72 -72,72 -39.764,0 -72,-32.236 -72,-72 0.048,-39.745 32.255,-71.952 72,-72 z m -88,152 c 0.047,-11.865 8.758,-21.916 20.496,-23.648 28.96,34.819 79.656,41.891 117.04,16.328 -0.968,5.051 -1.482,10.178 -1.536,15.32 0.026,8.122 1.187,16.2 3.448,24 H 96.08 c -13.255,0 -24,-10.745 -24,-24 z m 104,184 c -4.418,0 -8,-3.582 -8,-8 0,-4.418 3.582,-8 8,-8 4.418,0 8,3.582 8,8 0,4.418 -3.582,8 -8,8 z m 232,-8 h -136 c -13.255,0 -24,-10.745 -24,-24 0,-13.255 10.745,-24 24,-24 h 136 z m 0,-64 h -136 c -22.091,0 -40,17.909 -40,40 0,22.091 17.909,40 40,40 h 136 v 80 c 0,13.255 -10.745,24 -24,24 h -160 v -36 l 26.664,-20 h 14.808 c 4.418,12.497 18.131,19.046 30.627,14.627 12.497,-4.418 19.046,-18.131 14.627,-30.627 -4.419,-12.496 -18.131,-19.046 -30.627,-14.627 -6.835,2.416 -12.211,7.793 -14.627,14.627 H 248.08 c -1.731,0 -3.415,0.561 -4.8,1.6 l -32,24 c -2.014,1.511 -3.2,3.882 -3.2,6.4 v 40 h -24 v -97.472 c 12.497,-4.418 19.046,-18.131 14.627,-30.627 -4.419,-12.496 -18.131,-19.046 -30.627,-14.627 -12.497,4.418 -19.046,18.131 -14.627,30.627 2.416,6.835 7.793,12.211 14.627,14.627 v 97.472 h -24 v -64 c 0,-2.122 -0.844,-4.156 -2.344,-5.656 L 120.08,372.848 v -38.16 c 12.497,-4.418 19.046,-18.131 14.627,-30.627 -4.418,-12.497 -18.131,-19.046 -30.627,-14.627 -12.496,4.419 -19.046,18.131 -14.627,30.627 2.416,6.835 7.793,12.211 14.627,14.627 v 41.472 c 0,2.122 0.844,4.156 2.344,5.656 l 21.656,21.656 v 60.688 h -32 c -13.255,0 -24,-10.745 -24,-24 V 207.952 c 6.883,5.294 15.316,8.179 24,8.208 h 288 c 8.684,-0.029 17.117,-2.914 24,-8.208 z m -128,120 c 0,-4.418 3.582,-8 8,-8 4.418,0 8,3.582 8,8 0,4.418 -3.582,8 -8,8 -4.418,0 -8,-3.582 -8,-8 z m -168,-80 c -4.418,0 -8,-3.582 -8,-8 0,-4.418 3.582,-8 8,-8 4.418,0 8,3.582 8,8 0,4.418 -3.582,8 -8,8 z m 296,-144 c 0,13.255 -10.745,24 -24,24 h -3.448 c 5.397,-18.444 4.437,-38.168 -2.728,-56 h 6.176 c 13.255,0 24,10.745 24,24 z"
   id="path2"
   inkscape:connector-curvature="0"
   style="fill:#ff9e2e;fill-opacity:1" />
	</g>
</g>
<g
   id="g12"
   transform="matrix(0.57428703,0,0,0.51694887,109.32619,109.86725)"
   style="fill:#ff9e2e;fill-opacity:1">
	<g
   id="g10"
   style="fill:#ff9e2e;fill-opacity:1">
		<path
   d="m 160.08,32.16 c -30.928,0 -56,25.072 -56,56 0.035,30.913 25.087,55.965 56,56 30.928,0 56,-25.072 56,-56 0,-30.928 -25.072,-56 -56,-56 z m 0,96 c -22.091,0 -40,-17.909 -40,-40 0.026,-22.08 17.92,-39.974 40,-40 22.091,0 40,17.909 40,40 0,22.091 -17.909,40 -40,40 z"
   id="path8"
   inkscape:connector-curvature="0"
   style="fill:#ff9e2e;fill-opacity:1" />
	</g>
</g>
<g
   id="g18"
   transform="matrix(0.57428703,0,0,0.51694887,109.32619,109.86725)"
   style="fill:#ff9e2e;fill-opacity:1">
	<g
   id="g16"
   style="fill:#ff9e2e;fill-opacity:1">
		<rect
   x="264.07999"
   y="0.16"
   width="16"
   height="16"
   id="rect14"
   style="fill:#ff9e2e;fill-opacity:1" />
	</g>
</g>
<g
   id="g24"
   transform="matrix(0.57428703,0,0,0.51694887,109.32619,109.86725)"
   style="fill:#ff9e2e;fill-opacity:1">
	<g
   id="g22"
   style="fill:#ff9e2e;fill-opacity:1">
		<rect
   x="264.07999"
   y="32.16"
   width="16"
   height="40"
   id="rect20"
   style="fill:#ff9e2e;fill-opacity:1" />
	</g>
</g>
<g
   id="g30"
   transform="matrix(0.57428703,0,0,0.51694887,109.32619,109.86725)"
   style="fill:#ff9e2e;fill-opacity:1">
	<g
   id="g28"
   style="fill:#ff9e2e;fill-opacity:1">
		<rect
   x="296.07999"
   y="0.16"
   width="16"
   height="16"
   id="rect26"
   style="fill:#ff9e2e;fill-opacity:1" />
	</g>
</g>
<g
   id="g36"
   transform="matrix(0.57428703,0,0,0.51694887,109.32619,109.86725)"
   style="fill:#ff9e2e;fill-opacity:1">
	<g
   id="g34"
   style="fill:#ff9e2e;fill-opacity:1">
		<rect
   x="296.07999"
   y="32.16"
   width="16"
   height="40"
   id="rect32"
   style="fill:#ff9e2e;fill-opacity:1" />
	</g>
</g>

</svg>