<?xml version="1.0" encoding="UTF-8" standalone="no"?>
<!-- Created with Inkscape (http://www.inkscape.org/) -->

<svg
   xmlns:dc="http://purl.org/dc/elements/1.1/"
   xmlns:cc="http://creativecommons.org/ns#"
   xmlns:rdf="http://www.w3.org/1999/02/22-rdf-syntax-ns#"
   xmlns:svg="http://www.w3.org/2000/svg"
   xmlns="http://www.w3.org/2000/svg"
   xmlns:sodipodi="http://sodipodi.sourceforge.net/DTD/sodipodi-0.dtd"
   xmlns:inkscape="http://www.inkscape.org/namespaces/inkscape"
   width="210mm"
   height="205mm"
   viewBox="0 0 210 205"
   version="1.1"
   id="svg4770"
   inkscape:version="0.92.3 (2405546, 2018-03-11)"
   sodipodi:docname="hands.svg">
  <defs
     id="defs4764" />
  <sodipodi:namedview
     id="base"
     pagecolor="#ffffff"
     bordercolor="#666666"
     borderopacity="1.0"
     inkscape:pageopacity="0.0"
     inkscape:pageshadow="2"
     inkscape:zoom="0.35"
     inkscape:cx="-263.96867"
     inkscape:cy="545.76108"
     inkscape:document-units="mm"
     inkscape:current-layer="layer1"
     showgrid="false"
     inkscape:window-width="1920"
     inkscape:window-height="1052"
     inkscape:window-x="0"
     inkscape:window-y="0"
     inkscape:window-maximized="1" />
  <metadata
     id="metadata4767">
    <rdf:RDF>
      <cc:Work
         rdf:about="">
        <dc:format>image/svg+xml</dc:format>
        <dc:type
           rdf:resource="http://purl.org/dc/dcmitype/StillImage" />
        <dc:title></dc:title>
      </cc:Work>
    </rdf:RDF>
  </metadata>
  <g
     inkscape:groupmode="layer"
     id="layer4"
     inkscape:label="Layer 2"
     transform="translate(0,-92)">
    <circle
       r="58.684586"
       cy="179.82738"
       cx="93.738098"
       class="st0"
       id="Ellipse_1"
       style="fill:#ff8800;stroke-width:0.26458332;fill-opacity:1" />
  </g>
  <g
     inkscape:label="Layer 1"
     inkscape:groupmode="layer"
     id="layer1"
     transform="translate(0,-92)">
    <g
       id="g4851"
       transform="matrix(0.26458333,0,0,0.26458333,42.635737,140.81958)"
       style="fill:#0063a6;fill-opacity:1">
      <g
         id="g4776"
         style="fill:#0063a6;fill-opacity:1">
        <g
           id="g4774"
           style="fill:#0063a6;fill-opacity:1">
          <path
             id="path4772"
             d="m 509.042,355.862 -24.409,-24.21 c -3.923,-3.891 -10.255,-3.864 -14.145,0.058 -3.891,3.922 -3.864,10.255 0.058,14.145 l 24.408,24.21 c 1.95,1.935 4.497,2.901 7.043,2.901 2.573,0 5.146,-0.987 7.101,-2.959 3.892,-3.922 3.866,-10.255 -0.056,-14.145 z"
             inkscape:connector-curvature="0"
             style="fill:#0063a6;fill-opacity:1" />
        </g>
      </g>
      <g
         id="g4782"
         style="fill:#0063a6;fill-opacity:1">
        <g
           id="g4780"
           style="fill:#0063a6;fill-opacity:1">
          <path
             id="path4778"
             d="m 459.762,306.881 c -3.906,-3.906 -10.237,-3.906 -14.145,0 l -0.017,0.017 c -3.906,3.906 -3.897,10.231 0.009,14.137 1.95,1.951 4.509,2.926 7.067,2.926 2.564,0 5.13,-0.979 7.085,-2.934 3.906,-3.906 3.906,-10.239 10e-4,-14.146 z"
             inkscape:connector-curvature="0"
             style="fill:#0063a6;fill-opacity:1" />
        </g>
      </g>
      <g
         id="g4788"
         style="fill:#0063a6;fill-opacity:1">
        <g
           id="g4786"
           style="fill:#0063a6;fill-opacity:1">
          <path
             id="path4784"
             d="m 374.493,353 97.028,-97.027 c 14.695,-14.696 14.695,-38.608 -0.001,-53.304 -5.182,-5.182 -11.511,-8.528 -18.177,-10.055 2.286,-4.914 3.496,-10.307 3.496,-15.888 0,-10.068 -3.921,-19.533 -11.039,-26.651 -5.583,-5.584 -12.612,-9.19 -20.241,-10.489 4.295,-13.086 1.259,-28.073 -9.128,-38.459 -5.711,-5.71 -12.814,-9.19 -20.227,-10.462 1.242,-3.769 1.897,-7.749 1.897,-11.833 0,-10.068 -3.921,-19.533 -11.039,-26.651 -7.119,-7.118 -16.584,-11.039 -26.651,-11.039 -6.393,0 -12.54,1.586 -18.001,4.564 l -0.965,-1.037 C 328.903,31.191 311.15,23.462 292.741,23.462 h -78.54 c -5.523,0 -10.002,4.479 -10.002,10.002 V 46.58 c 0,5.249 0.888,10.359 2.586,15.164 -4.524,-1.879 -9.419,-2.866 -14.465,-2.866 -10.068,0 -19.533,3.921 -26.652,11.039 -10.392,10.392 -13.425,25.39 -9.12,38.48 -7.419,1.269 -14.532,4.751 -20.248,10.466 -7.118,7.119 -11.039,16.584 -11.039,26.651 0,4.076 0.653,8.05 1.89,11.811 -7.62,1.303 -14.642,4.907 -20.22,10.486 -11.477,11.477 -13.99,28.577 -7.539,42.516 -6.831,1.561 -13.105,5.001 -18.183,10.078 -14.695,14.695 -14.695,38.607 0,53.303 l 19.954,19.953 -98.234,98.232 c -3.906,3.906 -3.906,10.239 0,14.146 1.953,1.952 4.513,2.93 7.072,2.93 2.559,0 5.119,-0.977 7.072,-2.93 l 99.182,-99.182 c 5.615,3.204 11.987,4.918 18.628,4.918 10.067,0 19.532,-3.921 26.651,-11.04 7.734,-7.733 11.392,-18.02 10.985,-28.172 0.507,0.021 1.014,0.036 1.521,0.036 9.65,-10e-4 19.305,-3.675 26.651,-11.021 7.118,-7.119 11.039,-16.584 11.039,-26.651 0,-0.509 -0.017,-1.015 -0.037,-1.521 0.501,0.02 1.002,0.036 1.504,0.036 9.651,0 19.304,-3.674 26.651,-11.021 7.118,-7.119 11.039,-16.584 11.039,-26.651 0,-0.509 -0.017,-1.015 -0.037,-1.521 0.501,0.02 1.002,0.036 1.504,0.036 9.652,0 19.304,-3.674 26.651,-11.021 13.808,-13.808 14.639,-35.751 2.5,-50.542 l 66.394,-66.394 c 3.341,-3.342 7.781,-5.181 12.506,-5.181 4.725,0 9.166,1.839 12.507,5.181 3.341,3.341 5.18,7.781 5.18,12.506 0,4.724 -1.839,9.166 -5.181,12.506 l -9.789,9.789 -35.518,35.518 c -3.906,3.906 -3.906,10.239 0,14.146 1.953,1.952 4.513,2.93 7.072,2.93 2.559,0 5.119,-0.977 7.072,-2.93 l 35.518,-35.518 c 6.895,-6.896 18.116,-6.897 25.013,-0.001 6.896,6.897 6.896,18.117 0,25.014 l -9.79,9.79 -25.728,25.728 c -3.906,3.906 -3.906,10.239 0,14.146 1.953,1.952 4.513,2.93 7.072,2.93 2.559,0 5.119,-0.977 7.072,-2.93 l 25.728,-25.728 c 3.341,-3.342 7.782,-5.181 12.506,-5.181 4.725,0 9.166,1.839 12.507,5.181 3.341,3.341 5.18,7.781 5.18,12.506 0,4.724 -1.839,9.166 -5.181,12.506 l -13.437,13.437 -12.291,12.291 c -3.906,3.906 -3.906,10.239 0,14.146 1.953,1.952 4.513,2.93 7.072,2.93 2.559,0 5.119,-0.977 7.072,-2.93 l 12.3,-12.3 c 6.897,-6.885 18.111,-6.884 25.004,0.009 6.897,6.896 6.897,18.117 0,25.014 l -97.028,97.027 c -24.364,24.365 -56.745,38.47 -91.178,39.72 -2.531,0.092 -4.935,1.141 -6.723,2.937 l -89.632,89.964 c -3.899,3.913 -3.888,10.246 0.026,14.145 1.951,1.944 4.505,2.917 7.059,2.917 2.565,0 5.132,-0.981 7.085,-2.943 l 65.927,-66.17 c 16.746,10.743 36.44,15.851 56.465,14.527 l 51.598,51.599 c 1.953,1.952 4.513,2.93 7.072,2.93 2.56,0 5.119,-0.977 7.072,-2.93 3.906,-3.906 3.906,-10.239 0,-14.146 l -54.86,-54.866 c -2.077,-2.076 -4.963,-3.137 -7.89,-2.897 l -3.171,0.26 c -14.637,1.2 -29.105,-2.006 -41.737,-9.085 l 6.428,-6.451 C 311.894,396.026 347.486,380.008 374.493,353 Z M 147.39,286.591 c -3.341,3.342 -7.783,5.181 -12.506,5.181 -4.725,0 -9.166,-1.839 -12.506,-5.181 L 95.352,259.566 c -6.896,-6.896 -6.896,-18.117 0,-25.014 3.341,-3.342 7.783,-5.181 12.507,-5.181 4.724,0 9.166,1.839 12.506,5.181 l 27.026,27.025 c 6.895,6.896 6.895,18.117 -0.001,25.014 z m 39.159,-39.159 c -6.897,6.896 -18.12,6.896 -25.014,0 l -27.026,-27.026 -13.438,-13.438 c -6.896,-6.896 -6.896,-18.117 0,-25.013 3.341,-3.342 7.783,-5.181 12.506,-5.181 4.725,0 9.166,1.839 12.506,5.181 l 40.463,40.463 c 0,0 0,0 0.001,0 3.342,3.342 5.181,7.783 5.181,12.507 0,4.724 -1.839,9.166 -5.179,12.507 z m 39.157,-39.158 c -6.897,6.895 -18.119,6.896 -25.014,0 l -50.253,-50.253 c -3.341,-3.341 -5.18,-7.781 -5.18,-12.506 0,-4.724 1.839,-9.166 5.181,-12.506 3.448,-3.448 7.978,-5.172 12.506,-5.172 4.526,0 9.051,1.722 12.498,5.164 l 22.904,22.904 27.356,27.356 h 0.001 c 3.34,3.341 5.179,7.781 5.179,12.506 0.002,4.725 -1.837,9.167 -5.178,12.507 z m 39.158,-39.158 c -6.896,6.896 -18.117,6.896 -25.013,0 l -50.253,-50.253 c -0.005,-0.005 -0.011,-0.01 -0.017,-0.016 l -9.773,-9.773 c -6.896,-6.897 -6.896,-18.117 0,-25.014 3.448,-3.449 7.978,-5.173 12.507,-5.173 4.529,0 9.059,1.724 12.506,5.173 l 60.041,60.041 c 3.342,3.341 5.181,7.782 5.181,12.506 10e-4,4.726 -1.837,9.169 -5.179,12.509 z m 2.63,-50.672 -27.472,-27.472 c 3.115,0.665 6.318,1.018 9.578,1.017 0.073,0 0.147,0 0.221,0 l 27.448,-0.129 c 5.523,-0.026 9.981,-4.525 9.955,-10.049 -0.026,-5.508 -4.499,-9.955 -10.001,-9.955 -0.016,0 -0.032,0 -0.048,0 l -27.448,0.129 c -0.042,0 -0.082,0 -0.124,0 -6.763,0 -13.124,-2.625 -17.92,-7.398 C 226.857,59.783 224.2,53.389 224.2,46.579 v -3.114 h 68.538 c 12.875,0 25.29,5.405 34.062,14.831 l 0.407,0.437 z"
             inkscape:connector-curvature="0"
             style="fill:#0063a6;fill-opacity:1" />
        </g>
      </g>
      <g
         id="g4790"
         style="fill:#0063a6;fill-opacity:1" />
      <g
         id="g4792"
         style="fill:#0063a6;fill-opacity:1" />
      <g
         id="g4794"
         style="fill:#0063a6;fill-opacity:1" />
      <g
         id="g4796"
         style="fill:#0063a6;fill-opacity:1" />
      <g
         id="g4798"
         style="fill:#0063a6;fill-opacity:1" />
      <g
         id="g4800"
         style="fill:#0063a6;fill-opacity:1" />
      <g
         id="g4802"
         style="fill:#0063a6;fill-opacity:1" />
      <g
         id="g4804"
         style="fill:#0063a6;fill-opacity:1" />
      <g
         id="g4806"
         style="fill:#0063a6;fill-opacity:1" />
      <g
         id="g4808"
         style="fill:#0063a6;fill-opacity:1" />
      <g
         id="g4810"
         style="fill:#0063a6;fill-opacity:1" />
      <g
         id="g4812"
         style="fill:#0063a6;fill-opacity:1" />
      <g
         id="g4814"
         style="fill:#0063a6;fill-opacity:1" />
      <g
         id="g4816"
         style="fill:#0063a6;fill-opacity:1" />
      <g
         id="g4818"
         style="fill:#0063a6;fill-opacity:1" />
    </g>
  </g>
  <style
     id="style4853"
     type="text/css">
	.st0{fill:#FFBC00;}
</style>
</svg>
