<?xml version="1.0" encoding="utf-8"?>
<!-- Generator: Adobe Illustrator 24.1.1, SVG Export Plug-In . SVG Version: 6.00 Build 0)  -->
<svg version="1.1" xmlns="http://www.w3.org/2000/svg" xmlns:xlink="http://www.w3.org/1999/xlink" x="0px" y="0px"
	 viewBox="0 0 500 500" style="enable-background:new 0 0 500 500;" xml:space="preserve">
<style type="text/css">
	.st0{fill:#EBEBEB;}
	.st1{fill:#E6E6E6;}
	.st2{fill:#F0F0F0;}
	.st3{fill:#FAFAFA;}
	.st4{fill:#FFFFFF;}
	.st5{fill:#F5F5F5;}
	.st6{opacity:0.7;fill:#E6E6E6;}
	.st7{display:none;}
	.st8{display:inline;}
	.st9{fill:#407BFF;}
	.st10{opacity:0.9;fill:#FFFFFF;}
	.st11{fill:#FFC3BD;}
	.st12{fill:#263238;}
	.st13{opacity:0.5;fill:#407BFF;}
	.st14{opacity:0.2;}
	.st15{opacity:0.3;fill:#FAFAFA;}
	.st16{fill:#ED847E;}
	.st17{opacity:0.7;fill:#FAFAFA;}
</style>
<g id="Background_Complete">
	<g>
		<rect y="382.4" class="st0" width="500" height="0.3"/>
		<rect x="416.8" y="398.5" class="st0" width="33.1" height="0.3"/>
		<rect x="322.5" y="401.2" class="st0" width="8.7" height="0.3"/>
		<rect x="396.6" y="389.2" class="st0" width="19.2" height="0.3"/>
		<rect x="52.5" y="390.9" class="st0" width="43.2" height="0.3"/>
		<rect x="104.6" y="390.9" class="st0" width="6.3" height="0.3"/>
		<rect x="131.5" y="395.1" class="st0" width="93.7" height="0.3"/>
		<path class="st0" d="M237,337.8H43.9c-3.1,0-5.7-2.6-5.7-5.7V60.7c0-3.1,2.6-5.7,5.7-5.7H237c3.1,0,5.7,2.6,5.7,5.7v271.4
			C242.7,335.2,240.2,337.8,237,337.8z M43.9,55.2c-3,0-5.5,2.4-5.5,5.5v271.4c0,3,2.4,5.5,5.5,5.5H237c3,0,5.5-2.4,5.5-5.5V60.7
			c0-3-2.4-5.5-5.5-5.5H43.9z"/>
		<path class="st0" d="M453.3,337.8H260.2c-3.1,0-5.7-2.6-5.7-5.7V60.7c0-3.1,2.6-5.7,5.7-5.7h193.1c3.1,0,5.7,2.6,5.7,5.7v271.4
			C459,335.2,456.5,337.8,453.3,337.8z M260.2,55.2c-3,0-5.5,2.4-5.5,5.5v271.4c0,3,2.4,5.5,5.5,5.5h193.1c3,0,5.5-2.4,5.5-5.5V60.7
			c0-3-2.4-5.5-5.5-5.5H260.2z"/>
	</g>
	<g>
		<g>
			<rect x="69" y="88.6" class="st1" width="251.6" height="144.1"/>
			<rect x="70.8" y="88.6" class="st2" width="253.6" height="144.1"/>
			
				<rect x="131.4" y="39.1" transform="matrix(-1.836970e-16 1 -1 -1.836970e-16 358.2261 -36.8838)" class="st3" width="132.4" height="243.1"/>
			<polygon class="st4" points="105.8,226.9 136.6,94.5 176.9,94.5 146.1,226.9 			"/>
			<polygon class="st4" points="152.7,226.9 183.4,94.5 201.6,94.5 170.9,226.9 			"/>
			<polygon class="st4" points="224.9,226.9 255.6,94.5 286.7,94.5 256,226.9 			"/>
			
				<rect x="252.6" y="160.3" transform="matrix(-1.836970e-16 1 -1 -1.836970e-16 479.4419 -158.0995)" class="st1" width="132.4" height="0.7"/>
			<rect x="190" y="88.6" class="st2" width="15.1" height="144.1"/>
			
				<rect x="123.5" y="160.3" transform="matrix(-1.836970e-16 1 -1 -1.836970e-16 350.3372 -28.9949)" class="st1" width="132.4" height="0.7"/>
			<rect x="197.3" y="88.6" class="st1" width="0.5" height="144.1"/>
		</g>
	</g>
	<g>
		<rect x="208.5" y="289.1" class="st1" width="21.3" height="93.3"/>
		<polygon class="st5" points="220.6,382.4 229.8,382.4 229.8,366.9 210.9,366.9 		"/>
		<rect x="43" y="289.1" class="st1" width="21.3" height="93.3"/>
		<rect x="56.3" y="289.1" class="st5" width="173.5" height="88"/>
		<polygon class="st5" points="65.5,382.4 56.3,382.4 56.3,366.9 75.2,366.9 		"/>
		<rect x="63.5" y="296.5" class="st2" width="159.2" height="32.4"/>
		<path class="st4" d="M143.1,322.2c-5.2,0-9.5-4.3-9.5-9.5c0-5.2,4.3-9.5,9.5-9.5c5.2,0,9.5,4.3,9.5,9.5
			C152.5,318,148.3,322.2,143.1,322.2z M143.1,304.3c-4.7,0-8.5,3.8-8.5,8.5c0,4.7,3.8,8.5,8.5,8.5c4.7,0,8.5-3.8,8.5-8.5
			C151.5,308.1,147.7,304.3,143.1,304.3z"/>
		<rect x="63.5" y="336.8" class="st2" width="159.2" height="32.4"/>
		<path class="st4" d="M143.1,362.5c-5.2,0-9.5-4.3-9.5-9.5c0-5.2,4.3-9.5,9.5-9.5c5.2,0,9.5,4.3,9.5,9.5
			C152.5,358.2,148.3,362.5,143.1,362.5z M143.1,344.5c-4.7,0-8.5,3.8-8.5,8.5s3.8,8.5,8.5,8.5c4.7,0,8.5-3.8,8.5-8.5
			S147.7,344.5,143.1,344.5z"/>
	</g>
	<g>
		<g>
			
				<rect x="251.4" y="313.3" transform="matrix(-1 -1.224647e-16 1.224647e-16 -1 573.7584 695.6792)" class="st1" width="70.9" height="69.1"/>
			<rect x="322.3" y="313.3" class="st2" width="93.2" height="69.1"/>
			
				<rect x="251.4" y="307.4" transform="matrix(-1 -1.224647e-16 1.224647e-16 -1 666.9125 626.2569)" class="st6" width="164" height="11.5"/>
		</g>
		<g>
			
				<rect x="247.9" y="306.7" transform="matrix(-1 -1.224647e-16 1.224647e-16 -1 570.1838 619.9503)" class="st1" width="74.5" height="6.6"/>
			<rect x="322.3" y="306.7" class="st2" width="96.7" height="6.6"/>
		</g>
	</g>
	<g>
		<rect x="358.8" y="105.7" class="st1" width="71.7" height="109.9"/>
		<rect x="360.5" y="105.7" class="st5" width="76.1" height="109.9"/>
		
			<rect x="348.4" y="127.5" transform="matrix(-1.836970e-16 1 -1 -1.836970e-16 559.1727 -237.8302)" class="st4" width="100.2" height="66.4"/>
		
			<rect x="395.7" y="139.2" transform="matrix(-1.836970e-16 1 -1 -1.836970e-16 559.1726 -237.8302)" class="st5" width="5.6" height="43"/>
		
			<rect x="395.7" y="125" transform="matrix(-1.836970e-16 1 -1 -1.836970e-16 544.9994 -252.0034)" class="st5" width="5.6" height="43"/>
		
			<rect x="395.7" y="110.8" transform="matrix(-1.836970e-16 1 -1 -1.836970e-16 530.8262 -266.1766)" class="st5" width="5.6" height="43"/>
		
			<rect x="395.7" y="153.3" transform="matrix(-1.836970e-16 1 -1 -1.836970e-16 573.3458 -223.657)" class="st5" width="5.6" height="43"/>
		
			<rect x="395.7" y="167.5" transform="matrix(-1.836970e-16 1 -1 -1.836970e-16 587.5191 -209.4837)" class="st5" width="5.6" height="43"/>
	</g>
</g>
<g id="Background_Simple" class="st7">
	<g class="st8">
		<path class="st9" d="M237.8,111.8C187,127,65.3,123.4,102.5,215.3c24.4,60.3,149.5,86.2,205.6,69.9c63.1-18.4,106.9-84,91.9-147.9
			c-8-34.1-37.4-66.5-76.5-66.1C289.3,71.6,268.5,102.6,237.8,111.8z"/>
		<path class="st10" d="M237.8,111.8C187,127,65.3,123.4,102.5,215.3c24.4,60.3,149.5,86.2,205.6,69.9
			c63.1-18.4,106.9-84,91.9-147.9c-8-34.1-37.4-66.5-76.5-66.1C289.3,71.6,268.5,102.6,237.8,111.8z"/>
	</g>
</g>
<g id="Shadow_1_">
	<ellipse id="_x3C_Path_x3E__90_" class="st5" cx="250" cy="416.2" rx="193.9" ry="11.3"/>
</g>
<g id="Character_1_">
	<g>
		<polygon class="st11" points="211.8,407.5 219.3,405.5 216.5,387.3 208.9,389.4 		"/>
		<polygon class="st11" points="147.3,407.7 155.1,407.7 157.1,389.5 149.2,389.5 		"/>
		<path class="st12" d="M155.8,406.8h-9.6c-0.3,0-0.6,0.2-0.7,0.5l-1.6,7c-0.2,0.7,0.4,1.4,1.2,1.4c3.1-0.1,5.3-0.2,9.2-0.2
			c2.4,0,9.6,0.2,12.9,0.2c3.2,0,3.7-3.3,2.4-3.6c-6.1-1.3-10.6-3.2-12.6-4.9C156.7,407,156.2,406.8,155.8,406.8z"/>
		<path class="st12" d="M219,404.6l-8.3,2.3c-0.3,0.1-0.5,0.4-0.5,0.7l0.4,7.2c0,0.7,0.8,1.3,1.5,1c3-0.9,7.2-2.2,11-3.3
			c4.4-1.2,8.2-2,13.4-3.4c3.1-0.9,3.1-4.2,1.7-4.2c-6.3,0.3-11.2,1.5-17.2-0.2C220.4,404.5,219.7,404.4,219,404.6z"/>
		<path class="st11" d="M190.3,161.5c0.3,0.4,0.8,0.9,1.2,1.4l1.3,1.4c0.8,0.9,1.7,1.9,2.6,2.8c1.8,1.8,3.6,3.6,5.5,5.2
			c3.8,3.2,7.9,6,11.8,7.2c0.5,0.2,1,0.3,1.5,0.4l0.7,0.1c0.4,0.1,0,0,0,0.1c-0.1,0,0.1,0.1,0.4-0.1c0.3-0.1,0.7-0.3,1.2-0.5
			c0.9-0.5,1.9-1.1,2.8-1.8c1-0.7,2-1.5,2.9-2.3c3.9-3.3,7.8-7.1,11.6-10.9l4.7,3.5c-2.8,4.9-6,9.5-9.8,13.9c-2,2.2-4,4.3-6.8,6.3
			c-0.7,0.5-1.5,1-2.4,1.4c-0.9,0.4-2,0.9-3.5,1.1c-0.7,0.1-1.8,0.1-2.1,0l-1.3-0.1c-0.9-0.1-1.7-0.3-2.6-0.5
			c-1.7-0.4-3.3-0.9-4.7-1.5c-1.5-0.6-2.9-1.3-4.3-2.1c-2.7-1.5-5.2-3.3-7.6-5.1c-2.3-1.9-4.5-3.8-6.6-5.9c-1-1-2-2.1-3-3.2
			c-0.5-0.5-1-1.1-1.4-1.7c-0.5-0.6-0.9-1.1-1.4-1.8L190.3,161.5z"/>
		<polygon class="st12" points="193,185.6 196.1,188.6 210.2,177.4 205.1,173.4 		"/>
		<g>
			<path class="st12" d="M176.5,164.9c-0.6,7.5,16.3,22.8,16.3,22.8l14.9-12.9c0,0-6.3-6.7-13.3-13.3
				C189.6,156.8,177.2,156.8,176.5,164.9z"/>
			<path class="st13" d="M176.5,164.9c-0.6,7.5,16.3,22.8,16.3,22.8l14.9-12.9c0,0-6.3-6.7-13.3-13.3
				C189.6,156.8,177.2,156.8,176.5,164.9z"/>
			<path class="st14" d="M198,183.2c-0.1-0.7-0.3-1.4-0.5-2.1c-1.9-6.2-6.4-11.7-13.3-12.4c-3.1-0.3-4.1,1.9-3.8,5.1
				c4.8,6.8,12.5,13.8,12.5,13.8l1.3-1.1l2,2l2.4-1.9C198.4,185.6,198.3,184.4,198,183.2z"/>
		</g>
		<path class="st11" d="M233.1,167.1l2.2-6.6l8.8,2.3c0,0-2.8,3.3-6,5.7L233.1,167.1z"/>
		<polygon class="st11" points="238.8,157.7 246.1,160.2 244.1,162.8 235.3,160.5 		"/>
		<g>
			<polygon class="st14" points="216.5,387.3 218,396.7 210.4,398.8 208.9,389.4 			"/>
			<polygon class="st14" points="149.2,389.5 157.1,389.5 156.1,398.9 148.2,398.9 			"/>
		</g>
		<g>
			<path class="st12" d="M144.6,161.3c2.4,8.7,4,17.5,5,25.9c0.7,6.1,1.2,11.9,1.5,17.2c0.7,12.4,0.4,21.8,0.7,25
				c6.1-0.4,29.3-2,42-2.9c5.7-44.7-5.2-67.8-5.2-67.8s-4.6-0.9-10-1.2c-0.7,0-1.4-0.1-2.2-0.1c-4.8-0.1-12.5,0.6-17.8,1.2
				c-1.1,0.1-2.3,0.3-3.4,0.5C149.5,159.9,144.6,161.3,144.6,161.3z"/>
			<path class="st13" d="M144.6,161.3c2.4,8.7,4,17.5,5,25.9c0.7,6.1,1.2,11.9,1.5,17.2c0.7,12.4,0.4,21.8,0.7,25
				c6.1-0.4,29.3-2,42-2.9c5.7-44.7-5.2-67.8-5.2-67.8s-4.6-0.9-10-1.2c-0.7,0-1.4-0.1-2.2-0.1c-4.8-0.1-12.5,0.6-17.8,1.2
				c-1.1,0.1-2.3,0.3-3.4,0.5C149.5,159.9,144.6,161.3,144.6,161.3z"/>
		</g>
		<path class="st12" d="M158.5,158.5c5.3-0.6,13.1-1.3,17.8-1.2c0.7,0,1.5,0,2.2,0.1c0.1,0,0.2,0,0.3,0c1.3,2.6,2.9,10.5-2.9,11.3
			c-7.9,1.1-16.9-5.8-20.7-9.6C156.2,158.8,157.4,158.7,158.5,158.5z"/>
		<path class="st14" d="M155.2,172.6c0,7-1.9,13-5.2,18.2c-0.1-1.2-0.3-2.4-0.4-3.6c-0.6-4.6-1.3-9.3-2.2-14.1L155.2,172.6z"/>
		<path class="st11" d="M158.9,138.3c1.5,5.7,3.4,16.1-0.4,20.2c3.2,2.8,7.7,5.1,14.1,4.5c4.9-0.5,4.9-3.9,3.7-5.8
			c-6.5-1.1-6.7-5.8-5.9-10.4L158.9,138.3z"/>
		<path class="st14" d="M163.6,141.8l6.9,5.1c-0.2,1.1-0.3,2.2-0.3,3.2c-2.5-0.2-6-2.6-6.5-5.2C163.5,143.7,163.4,142.4,163.6,141.8
			z"/>
		<path class="st12" d="M187.7,108.4c2.9,6.1-8.5,21-17.9,19.4c-4.5-0.8-10.6-2.4-15.6-3.8c-4.5-1.3-6.2-7.3-1.9-8.1
			C167,113.3,182.9,98.3,187.7,108.4z"/>
		<path class="st11" d="M157.6,129.7c1,7.7,1.2,12.3,5.4,16c6.3,5.6,15.7,1.4,17-6.5c1.2-7.1-0.7-18.6-8.5-21.1
			C163.8,115.6,156.6,122,157.6,129.7z"/>
		<path class="st12" d="M172.6,139.6C172.6,139.6,172.6,139.6,172.6,139.6c-3.2,0.2-4.8-1.9-4.9-2c-0.1-0.1,0-0.2,0-0.3
			c0.1-0.1,0.2,0,0.3,0c0,0,1.6,2,4.5,1.8c0.1,0,0.2,0.1,0.2,0.2C172.8,139.5,172.7,139.6,172.6,139.6z"/>
		<path class="st12" d="M163,133.3c2.9-6.4,3.6-12.9-1.8-14.9c-5.4-2-9.9,0.7-11.4,4.7C148.4,127.1,158.7,142.6,163,133.3z"/>
		<path class="st12" d="M156.9,121.1c5.4,3.9,23.8,4.1,21.2-2.8C176.2,113.1,163.4,113.2,156.9,121.1z"/>
		<path class="st11" d="M154.7,138.6c1.2,1.7,3.1,2.7,4.8,2.9c2.6,0.4,3.5-2,2.5-4.3c-0.9-2-3.3-4.7-5.8-4
			C153.9,133.9,153.3,136.6,154.7,138.6z"/>
		<g>
			<path class="st9" d="M220.3,394.1l-12.8,3.5c0,0-16.1-50.7-20-78.5c-1-7.4-2.7-17.8-5.1-28.8c-3.1-13.9-7-29-10.2-40.8
				c-3.4-12.4-5.9-21.2-5.9-21.2l27.6-1.9c0,0,14.9,65.1,16.5,89C211.9,340.3,220.3,394.1,220.3,394.1z"/>
			<path class="st15" d="M220.3,394.1l-12.8,3.5c0,0-16.1-50.7-20-78.5c-1-7.4-2.7-17.8-5.1-28.8c-3.1-13.9-7-29-10.2-40.8
				c-3.4-12.4-5.9-21.2-5.9-21.2l27.6-1.9c0,0,14.9,65.1,16.5,89C211.9,340.3,220.3,394.1,220.3,394.1z"/>
		</g>
		<path class="st14" d="M182.3,290.4c-3.1-13.9-7-29-10.2-40.8l2.9-6.2C181.8,251.5,183.7,276.7,182.3,290.4z"/>
		<g>
			<path class="st9" d="M178.9,227.4c0,0-3,67.3-6.3,90.1c-3.6,25-12.9,79.5-12.9,79.5h-14.4c0,0-0.2-51.7,4.3-75.9
				c5.1-27.5,2.2-91.8,2.2-91.8L178.9,227.4z"/>
			<path class="st15" d="M178.9,227.4c0,0-3,67.3-6.3,90.1c-3.6,25-12.9,79.5-12.9,79.5h-14.4c0,0-0.2-51.7,4.3-75.9
				c5.1-27.5,2.2-91.8,2.2-91.8L178.9,227.4z"/>
		</g>
		<polygon class="st9" points="161.4,397.4 144.5,397.4 144.5,392.3 163.4,392 		"/>
		<polygon class="st9" points="221.2,394.2 206.7,398.2 204.6,393.2 221.2,388.6 		"/>
		<path class="st12" d="M169.5,131.1c0,0.6,0.4,1.1,0.8,1.1c0.4,0,0.7-0.6,0.7-1.2c0-0.6-0.4-1.1-0.8-1.1
			C169.8,129.9,169.5,130.5,169.5,131.1z"/>
		<path class="st12" d="M176.7,130.6c0,0.6,0.4,1.1,0.8,1.1c0.4,0,0.7-0.6,0.7-1.2c0-0.6-0.4-1.1-0.8-1.1
			C176.9,129.4,176.6,130,176.7,130.6z"/>
		<path class="st16" d="M174.4,131.1c0,0,1.7,3.5,3.4,5.2c-1,1.1-3.1,0.6-3.1,0.6L174.4,131.1z"/>
		<path class="st12" d="M167.1,128.9c0.1,0,0.3,0,0.4-0.2c0.9-1.4,2.3-1.4,2.3-1.4c0.2,0,0.4-0.2,0.4-0.4c0-0.2-0.2-0.4-0.4-0.4
			c-0.1,0-1.8,0-2.9,1.7c-0.1,0.2-0.1,0.4,0.1,0.5C167,128.9,167.1,128.9,167.1,128.9z"/>
		<path class="st12" d="M179.6,127.9c0.1,0,0.2,0,0.2,0c0.2-0.1,0.2-0.3,0.1-0.5c-1-1.8-2.7-1.9-2.8-1.9c-0.2,0-0.4,0.1-0.4,0.4
			c0,0.2,0.2,0.4,0.3,0.4l0,0c0.1,0,1.4,0.1,2.2,1.5C179.3,127.8,179.4,127.9,179.6,127.9z"/>
		<path class="st9" d="M158.4,408.2c0.6,0,1.2-0.1,1.5-0.4c0.3-0.2,0.4-0.6,0.4-1c0-0.3-0.2-0.5-0.3-0.5c-0.9-0.4-3.4,1.1-3.7,1.3
			c-0.1,0-0.1,0.1-0.1,0.2c0,0.1,0.1,0.1,0.1,0.2C156.9,408,157.6,408.2,158.4,408.2z M159.5,406.6c0.1,0,0.2,0,0.2,0
			c0.1,0,0.1,0.1,0.1,0.2c0,0.3-0.1,0.5-0.3,0.7c-0.4,0.4-1.5,0.4-2.8,0.1C157.7,407.1,158.9,406.6,159.5,406.6z"/>
		<path class="st9" d="M156.4,407.9C156.4,407.9,156.4,407.9,156.4,407.9c0.9-0.5,2.5-2.2,2.3-3.1c0-0.2-0.1-0.4-0.6-0.5
			c-0.3,0-0.6,0-0.8,0.2c-0.9,0.7-1.1,3-1.1,3.1c0,0.1,0,0.1,0.1,0.2C156.3,407.9,156.3,407.9,156.4,407.9z M157.9,404.7
			C158,404.7,158,404.7,157.9,404.7c0.3,0,0.3,0.1,0.4,0.2c0.1,0.5-0.9,1.8-1.7,2.4c0.1-0.7,0.3-2,0.9-2.5
			C157.6,404.8,157.8,404.7,157.9,404.7z"/>
		<path class="st9" d="M220.1,405.4C220.1,405.4,220.1,405.4,220.1,405.4c1.3-0.1,3.6-0.4,4.2-1.4c0.2-0.3,0.2-0.6,0.1-1
			c-0.1-0.2-0.2-0.3-0.4-0.4c-1.1-0.2-3.7,2.1-4,2.4c-0.1,0.1-0.1,0.1,0,0.2C219.9,405.4,220,405.4,220.1,405.4z M223.8,403.1
			C223.8,403.1,223.8,403.1,223.8,403.1c0.1,0,0.2,0.1,0.2,0.2c0.1,0.2,0.1,0.4-0.1,0.6c-0.4,0.5-1.6,1-3.3,1.1
			C221.7,404.1,223.2,403,223.8,403.1z"/>
		<path class="st9" d="M220.1,405.4c0,0,0.1,0,0.1,0c0.8-0.7,2.2-2.8,1.8-3.6c-0.1-0.2-0.3-0.4-0.8-0.3c-0.4,0.1-0.7,0.3-0.9,0.6
			c-0.7,1.1-0.4,3.2-0.4,3.2C219.9,405.3,220,405.4,220.1,405.4C220,405.4,220,405.4,220.1,405.4z M221.5,401.8
			c0.1,0,0.2,0.1,0.2,0.1c0.2,0.5-0.7,2.1-1.4,2.9c-0.1-0.6-0.1-1.9,0.4-2.6c0.2-0.2,0.4-0.4,0.7-0.4
			C221.3,401.8,221.4,401.8,221.5,401.8z"/>
		<g>
			<g>
				<path class="st12" d="M144.4,226.8L144.4,226.8c-0.1-1.7-1.3-3.1-2.8-3.3l-23.4-2.6c-1.8-0.2-3.4,1.3-3.6,3.4l-6.9,60.8
					c-0.2,2.1,1,3.9,2.8,4.1l74.3,8.4c1.8,0.2,3.4-1.3,3.6-3.4l5.8-51.1c0.2-2.1-1-3.9-2.8-4.1l-40.4-4.6
					C147.5,234,144.8,230.9,144.4,226.8z"/>
				<path class="st9" d="M154.3,240.1L154.3,240.1c0.1-1.5-0.9-2.7-2.4-2.9l-23.4-2.6c-1.8-0.2-3.7,1.1-4.2,2.9l-14.8,48.2
					c-0.6,1.8,0.4,3.4,2.2,3.6l74.3,8.4c1.8,0.2,3.7-1.1,4.2-2.9l12.2-39.7c0.6-1.8-0.4-3.4-2.2-3.6l-40.4-4.6
					C156.3,246.5,154,243.7,154.3,240.1z"/>
			</g>
			<path class="st11" d="M153,172.8l-2.2,3.2c-0.7,1.1-1.5,2.2-2.2,3.3c-1.4,2.2-2.8,4.4-4.2,6.7c-1.3,2.2-2.6,4.5-3.8,6.8
				c-1.1,2.3-2.2,4.6-3.1,6.9l-0.1,0.2l0,0.1c0,0.1,0,0.1-0.1,0.2c0,0.2-0.1,0.3-0.1,0.5c-0.1,0.4-0.1,0.9-0.2,1.5
				c-0.1,1.1-0.1,2.3,0,3.5c0.1,2.5,0.4,5.1,0.8,7.7c0.8,5.2,1.7,10.6,2.8,15.9l-5.6,1.9c-2.4-5.2-4.3-10.4-5.9-15.9
				c-0.8-2.7-1.5-5.5-2-8.5c-0.2-1.5-0.4-3-0.5-4.7c0-0.8,0-1.7,0.1-2.6c0-0.5,0.1-1,0.2-1.5l0.2-0.8l0.1-0.4l0.1-0.3
				c1.7-5.9,4.1-11.2,6.8-16.2c1.4-2.5,2.8-5,4.4-7.4c0.8-1.2,1.6-2.4,2.4-3.6c0.8-1.2,1.6-2.3,2.6-3.5L153,172.8z"/>
			<polygon class="st12" points="132.3,179.9 129.8,183.4 143.2,195.4 146.2,189.8 			"/>
			<g>
				<path class="st12" d="M144.6,161.3c-7.4,1.5-13.8,19.5-13.8,19.5l15.4,12.5c0,0,5-9.2,9.1-18
					C159.6,165.7,153.5,159.5,144.6,161.3z"/>
				<path class="st13" d="M144.6,161.3c-7.4,1.5-13.8,19.5-13.8,19.5l15.4,12.5c0,0,5-9.2,9.1-18
					C159.6,165.7,153.5,159.5,144.6,161.3z"/>
			</g>
			<path class="st11" d="M139.9,227.7l5.3,6l-9.6,2.9c0,0-3.4-6.1-0.4-8.2L139.9,227.7z"/>
			<polygon class="st11" points="145.7,240.2 137.6,242.2 135.6,236.6 145.2,233.6 			"/>
		</g>
	</g>
</g>
<g id="Folder">
	<g>
		<g>
			<path class="st12" d="M325.8,133.2L325.8,133.2c-0.5-1.7-2-2.7-3.5-2.6l-23.4,2.7c-1.8,0.2-3,2.1-2.8,4.1l7,60.8
				c0.2,2.1,1.9,3.6,3.6,3.4l74.2-8.5c1.8-0.2,3-2.1,2.8-4.1l-5.9-51c-0.2-2.1-1.9-3.6-3.6-3.4l-40.4,4.6
				C330.4,139.6,327,137.1,325.8,133.2z"/>
			<g>
				<g>
					<path class="st9" d="M337,111.1c5.1,22.4,8.5,45.4,9.9,68.8c-18.4,2.2-36.9,3.9-55.3,5.2c-1.4-25.7-5.5-50.8-11.9-74.9
						c13-3.5,26-7.3,38.9-11.3C324.8,102.8,330.9,106.8,337,111.1z"/>
					<path class="st17" d="M337,111.1c5.1,22.4,8.5,45.4,9.9,68.8c-18.4,2.2-36.9,3.9-55.3,5.2c-1.4-25.7-5.5-50.8-11.9-74.9
						c13-3.5,26-7.3,38.9-11.3C324.8,102.8,330.9,106.8,337,111.1z"/>
					<g>
						<path class="st9" d="M333.9,122.7c-14.4,3.6-28.9,6.9-43.4,9.9c-0.6,0.1-1.2-0.3-1.4-0.9l0,0c-0.1-0.6,0.3-1.3,0.9-1.4
							c14.5-3.1,28.9-6.5,43.3-10.2c0.6-0.2,1.2,0.3,1.4,1l0,0C334.9,121.8,334.5,122.5,333.9,122.7z"/>
						<path class="st9" d="M335.4,130.8c-14.5,3.3-29,6.4-43.6,9.1c-0.6,0.1-1.2-0.3-1.3-1l0,0c-0.1-0.6,0.3-1.3,0.9-1.4
							c14.5-2.8,29-6,43.5-9.4c0.6-0.1,1.2,0.3,1.4,1l0,0C336.5,129.9,336.1,130.7,335.4,130.8z"/>
						<path class="st9" d="M336.8,139c-14.6,3.1-29.1,5.8-43.7,8.3c-0.6,0.1-1.2-0.3-1.3-1c0,0,0,0,0,0c-0.1-0.6,0.3-1.3,1-1.4
							c14.6-2.6,29.2-5.4,43.7-8.6c0.6-0.1,1.2,0.3,1.4,1.1l0,0C337.9,138.1,337.5,138.8,336.8,139z"/>
						<path class="st9" d="M338.1,147.2c-14.6,2.8-29.2,5.3-43.9,7.5c-0.6,0.1-1.2-0.4-1.3-1l0,0c-0.1-0.6,0.3-1.3,1-1.4
							c14.6-2.3,29.3-4.9,43.8-7.7c0.6-0.1,1.2,0.4,1.3,1.1l0,0C339.1,146.4,338.7,147.1,338.1,147.2z"/>
						<path class="st9" d="M321.7,158.3c-8.8,1.4-17.7,2.6-26.5,3.8c-0.6,0.1-1.2-0.4-1.3-1l0,0c-0.1-0.7,0.4-1.3,1-1.3
							c8.8-1.2,17.7-2.5,26.5-3.9c0.6-0.1,1.2,0.4,1.3,1.1c0,0,0,0,0,0C322.8,157.6,322.3,158.2,321.7,158.3z"/>
					</g>
					<path class="st9" d="M337,111.1c-4.8,1.4-9.6,2.7-14.5,4c-1.2-5.4-2.6-10.8-4-16.1C324.8,102.8,330.9,106.8,337,111.1z"/>
				</g>
			</g>
			<path class="st9" d="M338.4,144L338.4,144c-0.2-1.5-1.4-2.5-2.9-2.3l-23.4,2.7c-1.8,0.2-3.3,1.9-3.5,3.8l-3.6,50.3
				c-0.1,1.9,1.2,3.2,3,3l74.2-8.5c1.8-0.2,3.3-1.9,3.5-3.8l3-41.4c0.1-1.9-1.2-3.2-3-3l-40.4,4.6
				C341.8,149.7,338.9,147.5,338.4,144z"/>
		</g>
		<g>
			<g>
				<path class="st9" d="M281.6,183c-2.1,20.7-4.6,41.3-7.7,61.8c-18.3-2.9-36.5-5.7-54.8-8.4c3.6-24.6,6.6-49.4,8.8-74.3
					c13.4,1.2,26.9,2.5,40.3,3.8C272.7,171.6,277.1,177.3,281.6,183z"/>
				<path class="st17" d="M281.6,183c-2.1,20.7-4.6,41.3-7.7,61.8c-18.3-2.9-36.5-5.7-54.8-8.4c3.6-24.6,6.6-49.4,8.8-74.3
					c13.4,1.2,26.9,2.5,40.3,3.8C272.7,171.6,277.1,177.3,281.6,183z"/>
				<g>
					<path class="st9" d="M275.1,191.8c-14.7-1.7-29.4-3.4-44.1-5c-0.6-0.1-1.1-0.6-1-1.3c0,0,0,0,0,0c0.1-0.6,0.6-1.1,1.3-1
						c14.7,1.6,29.4,3.2,44.1,4.9c0.6,0.1,1.1,0.7,1,1.3l0,0C276.3,191.4,275.8,191.9,275.1,191.8z"/>
					<path class="st9" d="M274.3,199.3c-14.7-1.8-29.4-3.6-44.1-5.3c-0.6-0.1-1.1-0.7-1-1.3l0,0c0.1-0.6,0.6-1.1,1.3-1
						c14.7,1.7,29.4,3.4,44.1,5.2c0.6,0.1,1.1,0.7,1,1.3c0,0,0,0,0,0C275.5,198.9,274.9,199.4,274.3,199.3z"/>
					<path class="st9" d="M273.4,206.8c-14.7-1.9-29.4-3.7-44.1-5.5c-0.6-0.1-1.1-0.7-1-1.3l0,0c0.1-0.6,0.7-1.1,1.3-1
						c14.7,1.7,29.4,3.6,44.1,5.4c0.6,0.1,1.1,0.7,1,1.3c0,0,0,0,0,0C274.6,206.4,274.1,206.8,273.4,206.8z"/>
					<path class="st9" d="M272.5,214.2c-14.7-2-29.4-3.9-44-5.8c-0.6-0.1-1.1-0.7-1-1.3l0,0c0.1-0.6,0.7-1.1,1.3-1
						c14.7,1.8,29.4,3.7,44,5.7c0.6,0.1,1.1,0.7,1,1.3l0,0C273.7,213.8,273.1,214.3,272.5,214.2z"/>
					<path class="st9" d="M254.1,219.2c-8.8-1.2-17.7-2.4-26.5-3.6c-0.6-0.1-1.1-0.7-1-1.3l0,0c0.1-0.6,0.7-1.1,1.3-1
						c8.8,1.2,17.7,2.3,26.5,3.5c0.6,0.1,1.1,0.7,1,1.3c0,0,0,0,0,0C255.3,218.9,254.7,219.3,254.1,219.2z"/>
				</g>
				<path class="st9" d="M281.6,183c-4.9-0.6-9.9-1.1-14.8-1.6c0.5-5.1,1-10.3,1.5-15.4C272.7,171.6,277.1,177.3,281.6,183z"/>
			</g>
		</g>
	</g>
	<g>
		<path class="st4" d="M341.3,166.5c1.8-2.7,1.1-6.3-1.5-8.1c-0.8-0.6-1.8-0.9-2.8-1l3.1-2.1l-0.7-1.1l-8,5.4l-8-5.4l-0.7,1.1
			l3.1,2.1c-3.2,0.3-5.6,3.1-5.3,6.3c0.1,1,0.4,2,1,2.8c-5.7,5.5-5.8,14.5-0.3,20.1c5.5,5.7,14.5,5.8,20.1,0.3s5.8-14.5,0.3-20.1
			C341.6,166.7,341.5,166.6,341.3,166.5L341.3,166.5z M340.9,163.2c0,0.8-0.2,1.6-0.7,2.3c-0.1,0.2-0.3,0.4-0.4,0.6
			c-0.2,0.2-0.3,0.4-0.5,0.5c-1.6,1.3-4,1.2-5.6-0.2l-0.2-0.2c-0.2-0.2-0.4-0.5-0.6-0.7c-0.2-0.2-0.3-0.5-0.4-0.7
			c-0.1-0.3-0.2-0.5-0.2-0.8c0-0.2-0.1-0.5-0.1-0.7l0,0c0-0.2,0-0.5,0.1-0.7c0.4-2.4,2.6-4,5-3.6
			C339.3,159.3,340.9,161.1,340.9,163.2L340.9,163.2z M331.6,166.3c0.4,0.6,0.8,1.1,1.3,1.5l-0.1,0.1l-0.4,0.7l-0.4,0.7l-0.5,0.9
			l-0.5-0.9l-0.4-0.7l-0.4-0.7l-0.1-0.1c0.5-0.4,1-0.9,1.3-1.5H331.6z M331.4,173.2l2.1-3.6c3.1,0.9,5.3,3.8,5.3,7.1l0,0
			c0,4.1-3.3,7.4-7.4,7.4c-4.1,0-7.4-3.3-7.4-7.4c0,0,0,0,0,0l0,0c0-3.3,2.2-6.2,5.3-7.1L331.4,173.2z M326.4,158.9
			c2.1,0,3.9,1.5,4.3,3.6c0,0.2,0.1,0.5,0.1,0.7l0,0c0,0.3,0,0.5-0.1,0.7c-0.1,0.3-0.1,0.5-0.2,0.8c-0.1,0.3-0.2,0.5-0.4,0.7
			c-0.2,0.3-0.4,0.5-0.6,0.7l-0.2,0.2c-0.2,0.2-0.4,0.3-0.6,0.4c-0.2,0.1-0.4,0.2-0.7,0.3c-1.4,0.6-3.1,0.4-4.3-0.6
			c-0.2-0.2-0.4-0.3-0.5-0.5c-0.2-0.2-0.3-0.4-0.4-0.6c-1.3-2-0.6-4.7,1.4-6C324.7,159.1,325.5,158.9,326.4,158.9L326.4,158.9z
			 M331.4,189.5c-7.1,0-12.8-5.7-12.8-12.8c0,0,0,0,0,0l0,0c0-3.4,1.4-6.7,3.8-9.1c1.1,0.9,2.4,1.4,3.8,1.4c0.2,0,0.4,0,0.6,0
			c-2.7,1.6-4.4,4.5-4.4,7.7l0,0c0.1,4.9,4.2,8.8,9.1,8.7c4.7-0.1,8.6-3.9,8.7-8.7l0,0c0-3.2-1.7-6.1-4.5-7.7c0.2,0,0.4,0,0.6,0
			c1.4,0,2.8-0.5,3.8-1.4c2.5,2.4,3.8,5.7,3.8,9.1l0,0C344.2,183.8,338.5,189.5,331.4,189.5L331.4,189.5z"/>
		<path class="st4" d="M325.3,164.8c0.3,0.2,0.6,0.3,1,0.4h0.1c0.1,0,0.2,0,0.4,0c0.2,0,0.4-0.1,0.6-0.3c0.1-0.1,0.2-0.2,0.3-0.3
			c0.2-0.3,0.4-0.6,0.5-0.9c0-0.1,0-0.3,0-0.4c0-0.1,0-0.2,0-0.4c-0.2-1-1.2-1.7-2.2-1.4c-0.9,0.2-1.5,0.9-1.5,1.8
			C324.5,163.8,324.8,164.4,325.3,164.8z"/>
		<path class="st4" d="M331.4,175v-1.5c-1.9,0-3.5,1.3-3.9,3.1c-0.1,0.3-0.1,0.6-0.1,0.9c0,2.2,1.8,4,4.1,4c1.6,0,3.1-1,3.7-2.5
			c0.2-0.5,0.3-1,0.3-1.6v-0.7h-4v1.5h2.5c0,0.1-0.1,0.2-0.1,0.3c-0.5,1.3-2.1,1.9-3.4,1.4c-0.9-0.4-1.6-1.3-1.6-2.4
			c0-0.3,0.1-0.6,0.2-0.9C329.4,175.7,330.4,175.1,331.4,175z"/>
		<path class="st4" d="M334.7,162.9c0,0.1,0,0.2,0,0.4c0,0.1,0,0.3,0,0.4c0.2,0.7,0.7,1.3,1.5,1.4c0.1,0,0.2,0,0.4,0h0.1
			c0.4,0,0.7-0.2,1-0.4c0.5-0.4,0.8-0.9,0.8-1.5c0-1-0.9-1.9-1.9-1.8C335.6,161.4,334.9,162,334.7,162.9L334.7,162.9L334.7,162.9z"
			/>
	</g>
</g>
</svg>
