<?xml version="1.0" encoding="utf-8"?>
<!-- Generator: Adobe Illustrator 24.1.1, SVG Export Plug-In . SVG Version: 6.00 Build 0)  -->
<svg version="1.1" id="Layer_1" xmlns="http://www.w3.org/2000/svg" xmlns:xlink="http://www.w3.org/1999/xlink" x="0px" y="0px"
	 viewBox="0 0 150 150" style="enable-background:new 0 0 150 150;" xml:space="preserve">
<style type="text/css">
	.st0{fill:#0063A6;}
</style>
<g>
	<path class="st0" d="M101.8,41.2c4.9-7.2,3.1-17-4.1-21.9c-2.2-1.5-4.8-2.5-7.5-2.7l8.4-5.7l-2-2.9L75,22.5L53.4,8l-1.9,2.9
		l8.4,5.7c-8.7,0.8-15.1,8.4-14.3,17.1c0.2,2.7,1.2,5.3,2.7,7.5C33,56,32.6,80.4,47.4,95.7s39.2,15.7,54.5,0.9s15.7-39.2,0.9-54.5
		C102.5,41.8,102.2,41.5,101.8,41.2L101.8,41.2z M100.5,32.3c0,2.2-0.6,4.3-1.8,6.2c-0.4,0.6-0.8,1.1-1.2,1.6
		c-0.5,0.5-0.9,1-1.5,1.4c-4.5,3.6-10.8,3.4-15.1-0.4l-0.5-0.5c-0.6-0.6-1.2-1.3-1.6-2c-0.4-0.6-0.7-1.3-1-2
		c-0.3-0.7-0.5-1.4-0.6-2.2c-0.1-0.7-0.2-1.3-0.2-2l0,0c0-0.7,0.1-1.3,0.2-1.9c1-6.4,7-10.8,13.4-9.8
		C96.4,21.6,100.6,26.6,100.5,32.3L100.5,32.3z M75.4,40.6c1,1.5,2.2,2.9,3.6,4L78.7,45l-1.1,1.9l-1.1,1.9L75,51.4l-1.5-2.6
		l-1.1-1.9L71.4,45l-0.2-0.4c1.4-1.1,2.6-2.5,3.5-4H75.4z M75,59.4l5.7-9.8c8.5,2.5,14.4,10.3,14.4,19.2l0,0
		c0,11.1-9,20.1-20.1,20.1S55,79.9,55,68.8c0,0,0,0,0,0l0,0c0-8.9,5.9-16.7,14.4-19.3L75,59.4z M61.3,20.6c5.7,0,10.6,4.2,11.6,9.8
		c0.1,0.6,0.2,1.3,0.2,1.9l0,0c0,0.7-0.1,1.4-0.2,2c-0.1,0.8-0.4,1.5-0.6,2.2c-0.3,0.7-0.6,1.4-1,2c-0.5,0.7-1,1.4-1.6,2L69,41.1
		c-0.5,0.5-1,0.9-1.6,1.2c-0.6,0.4-1.2,0.7-1.8,0.9c-3.9,1.6-8.4,1-11.7-1.6c-0.5-0.4-1-0.9-1.5-1.4c-0.4-0.5-0.8-1-1.2-1.6
		C47.8,33,49.5,25.8,55,22.4C56.9,21.2,59,20.6,61.3,20.6L61.3,20.6z M75,103.4c-19.1,0-34.5-15.5-34.5-34.6c0,0,0,0,0,0l0,0
		c0-9.3,3.7-18.2,10.4-24.7c2.9,2.5,6.5,3.9,10.4,3.9c0.5,0,1.1,0,1.6-0.1c-7.4,4.3-12,12.3-12,20.9l0,0
		c0.3,13.3,11.4,23.8,24.7,23.5c12.8-0.3,23.1-10.7,23.5-23.5l0,0c0-8.6-4.6-16.5-12.1-20.8c0.6,0.1,1.1,0.1,1.7,0.1
		c3.8,0,7.5-1.4,10.4-3.9c6.6,6.5,10.4,15.3,10.4,24.6l0,0C109.5,87.9,94.1,103.3,75,103.4L75,103.4z"/>
	<path class="st0" d="M58.3,36.4c0.8,0.6,1.7,0.9,2.7,1h0.3c0.3,0,0.6,0,1-0.1c0.6-0.1,1.2-0.4,1.7-0.7c0.3-0.2,0.7-0.5,0.9-0.7
		c0.7-0.7,1.1-1.5,1.3-2.5c0.1-0.4,0.1-0.7,0.1-1.1c0-0.3,0-0.7-0.1-1c-0.6-2.7-3.3-4.5-6-3.9c-2.3,0.5-4,2.5-4,4.9
		C56.2,33.9,57,35.5,58.3,36.4z"/>
	<path class="st0" d="M75,64.3v-4c-5.1,0-9.5,3.6-10.6,8.5c-0.2,0.8-0.3,1.6-0.3,2.4c0,6,4.9,10.9,11,10.9c4.4,0,8.3-2.6,10.1-6.7
		c0.6-1.4,0.9-2.8,0.9-4.3v-1.9H75.1v4h6.6c0,0.2-0.2,0.5-0.3,0.7c-1.5,3.5-5.6,5.2-9.1,3.7c-2.6-1.1-4.2-3.6-4.2-6.4
		c0-0.8,0.1-1.6,0.4-2.4C69.6,66.1,72.1,64.3,75,64.3z"/>
	<path class="st0" d="M83.8,31.3c-0.1,0.3-0.1,0.7-0.1,1c0,0.4,0,0.7,0.1,1.1c0.5,2,2,3.5,4,3.9c0.3,0.1,0.7,0.1,1,0.1h0.3
		c1-0.1,1.9-0.4,2.7-1c1.3-1,2.1-2.5,2.1-4.1c0-2.8-2.3-5-5.2-5C86.3,27.4,84.3,29,83.8,31.3L83.8,31.3z"/>
	<path class="st0" d="M110.4,123.9c-5,0-9,4-9,9c0,5,4,9,9,9c5,0,9-4,9-9l0,0C119.4,128,115.4,123.9,110.4,123.9z M110.4,138.3
		c-3,0-5.4-2.4-5.4-5.4c0-3,2.4-5.4,5.4-5.4c3,0,5.4,2.4,5.4,5.4C115.8,135.9,113.4,138.3,110.4,138.3L110.4,138.3z"/>
	<path class="st0" d="M91.3,136.8c-2-2.2-1.8-5.6,0.4-7.6c2-1.9,5.2-1.9,7.2,0l2.6-2.6c-3.5-3.5-9.3-3.5-12.8,0
		c-3.5,3.5-3.5,9.3,0,12.8c3.5,3.5,9.2,3.5,12.8,0l-2.6-2.6C96.8,138.9,93.4,138.9,91.3,136.8C91.3,136.8,91.3,136.8,91.3,136.8z"/>
	<path class="st0" d="M38.2,130c0.1-1.6-0.6-3.1-1.9-4.1c-1.3-1-2.9-1.6-4.5-1.5h-7v17.3h3.9v-14.3h2.4c1.7-0.1,3.1,1.2,3.2,2.9
		c0,0.1,0,0.2,0,0.4c0,1.7-1.3,3.3-4.1,3.6v0.4l4.6,7.1h4.4l-4.6-6.4C36.8,134.3,38.2,132.3,38.2,130z"/>
	<polygon class="st0" points="45.3,134.1 52.3,134.1 52.3,131.2 45.3,131.2 45.3,127.3 53.2,127.3 53.2,124.3 41.4,124.3 
		41.4,141.6 53.7,141.6 53.7,138.6 45.3,138.6 	"/>
	<polygon class="st0" points="60.3,134.1 67.3,134.1 67.3,131.2 60.3,131.2 60.3,127.3 68.1,127.3 68.1,124.3 56.4,124.3 
		56.4,141.6 68.6,141.6 68.6,138.6 60.3,138.6 	"/>
	<polygon class="st0" points="85.7,124.3 81.5,124.3 75.2,132.3 75.2,124.3 71.3,124.3 71.3,141.6 75.2,141.6 75.2,133 81.7,141.6 
		86.2,141.6 78.9,132.7 	"/>
	<rect x="122.1" y="124.4" class="st0" width="3.9" height="17.3"/>
	<path class="st0" d="M141.1,124.4v9.7H141c-1.2-1.1-3-2.8-5.4-4.9c-2.4-2.2-4.2-3.8-5.4-5.1h-0.6v17.6h3.9v-10h0.1l10.8,10.3h0.5
		v-17.6H141.1z"/>
	<path class="st0" d="M8.7,133c0-2.9,2.3-5.2,5.1-5.4V124c-5,0.1-8.9,4.3-8.8,9.3c0.1,5,4.3,8.9,9.3,8.8c4.9-0.1,8.8-4.2,8.8-9.1
		v-1.8h-8.5v3.6h4.5l-0.2,0.4c-1.2,2.7-4.4,3.9-7.1,2.7C9.9,137.1,8.6,135.1,8.7,133L8.7,133z"/>
</g>
</svg>
