<?xml version="1.0" encoding="UTF-8" standalone="no"?>
<svg
   xmlns:dc="http://purl.org/dc/elements/1.1/"
   xmlns:cc="http://creativecommons.org/ns#"
   xmlns:rdf="http://www.w3.org/1999/02/22-rdf-syntax-ns#"
   xmlns:svg="http://www.w3.org/2000/svg"
   xmlns="http://www.w3.org/2000/svg"
   xmlns:sodipodi="http://sodipodi.sourceforge.net/DTD/sodipodi-0.dtd"
   xmlns:inkscape="http://www.inkscape.org/namespaces/inkscape"
   id="Layer_1"
   data-name="Layer 1"
   viewBox="0 0 101 100"
   version="1.1"
   sodipodi:docname="Logos-03.svg"
   inkscape:version="0.92.3 (2405546, 2018-03-11)"
   width="101"
   height="100">
  <title
     id="title6">Logos</title>
  <path
     class="cls-1"
     d="M 74.822511,29.03279 A 14.589321,12.089679 0 0 0 64.037797,10.165939 L 71.856715,5.8215998 70.014327,3.5625427 50.00269,14.733703 29.991055,3.5625427 28.193604,5.8215998 36.01252,10.165939 a 14.589321,12.089679 0 0 0 -10.784714,18.866851 35.694407,29.578753 0 1 0 49.639641,0 z m -1.183323,-6.814409 a 10.919523,9.0486408 0 0 1 -1.647664,4.766362 10.769735,8.9245167 0 0 1 -1.108429,1.24124 10.290414,8.5273198 0 0 1 -1.378047,1.079879 10.844629,8.9865787 0 0 1 -13.99017,-0.335135 L 55.050537,28.62318 A 11.174162,9.2596515 0 0 1 53.55266,27.07163 10.305393,8.5397322 0 0 1 52.608996,25.532492 11.383864,9.4334251 0 0 1 52.024824,23.844405 12.597145,10.43883 0 0 1 51.84508,22.292855 v 0 a 10.155605,8.4156083 0 0 1 0.164765,-1.489488 10.874586,9.0114035 0 0 1 21.614364,1.489488 z M 50.00269,16.32249 Z m 0.344513,12.275866 a 14.888897,12.337927 0 0 0 3.310308,3.065863 l -0.224682,0.31031 -1.003577,1.45225 -1.033535,1.477076 -1.363068,1.96116 -1.363068,-1.96116 -1.003578,-1.477076 -1.003577,-1.45225 -0.224683,-0.31031 a 14.888897,12.337927 0 0 0 3.280352,-3.065863 z m -0.344513,14.435623 5.257549,-7.54674 a 18.633589,15.441028 0 0 1 13.376042,14.73352 v 0 a 18.603632,15.416203 0 1 1 -37.207264,0 v 0 A 18.633589,15.441028 0 0 1 44.775101,35.437589 Z M 37.255758,13.244214 a 10.904544,9.0362283 0 0 1 10.7248,7.534328 11.788292,9.76856 0 0 1 0.164766,1.489489 v 0 a 12.597145,10.43883 0 0 1 -0.179747,1.551549 11.383864,9.4334251 0 0 1 -0.584171,1.688087 10.305393,8.5397322 0 0 1 -0.943663,1.539138 11.983015,9.9299212 0 0 1 -1.497876,1.551551 l -0.464342,0.347546 A 10.859608,8.9989911 0 0 1 42.977649,29.876833 11.608546,9.6196112 0 0 1 41.315005,30.584339 10.82965,8.9741663 0 0 1 30.485355,29.3431 9.4665821,7.8446378 0 0 1 29.107309,28.263221 10.769735,8.9245167 0 0 1 27.998879,27.02198 10.889565,9.0238159 0 0 1 37.24078,13.231802 Z M 50.00269,76.820535 A 32.024608,26.537714 0 0 1 18.023019,50.220759 v 0 a 31.904778,26.438415 0 0 1 9.631349,-18.941325 14.544385,12.052442 0 0 0 9.60139,3.003802 13.645659,11.307697 0 0 0 1.497878,-0.07447 22.348324,18.519303 0 0 0 -11.084289,16.011998 v 0 a 22.333344,18.506891 0 0 0 44.65171,0 v 0 a 22.318365,18.494479 0 0 0 -11.174161,-15.962348 13.900297,11.518709 0 0 0 1.587749,0.07447 14.574342,12.077266 0 0 0 9.60139,-3.003801 31.904778,26.438415 0 0 1 9.646328,18.891675 v 0 A 32.024608,26.537714 0 0 1 50.00269,76.770886 Z"
     id="path8"
     inkscape:connector-curvature="0"
     style="fill:#670ad1;stroke-width:1.36353409" />
  <path
     class="cls-1"
     d="m 34.484687,25.395956 a 4.7932061,3.9719685 0 0 0 2.456516,0.744744 h 0.314555 a 5.8866563,4.8780738 0 0 0 0.898726,-0.07447 4.9280151,4.0836801 0 0 0 1.58775,-0.533734 5.4822294,4.5429389 0 0 0 0.868769,-0.57097 4.8381424,4.0092057 0 0 0 1.228259,-1.886686 5.5571234,4.6050009 0 0 0 0.104846,-0.83163 4.6134609,3.8230197 0 0 0 -0.08987,-0.757157 4.7033335,3.8974941 0 0 0 -9.301816,0.757157 4.8081849,3.9843809 0 0 0 1.932261,3.15275 z"
     id="path10"
     inkscape:connector-curvature="0"
     style="fill:#670ad1;stroke-width:1.36353409" />
  <path
     class="cls-1"
     d="m 50.00269,46.757698 v -3.078274 a 10.155605,8.4156083 0 0 0 -9.826071,6.541335 10.485138,8.688681 0 0 0 -0.23966,1.81221 10.140627,8.4031959 0 0 0 19.472399,3.276874 10.245478,8.4900827 0 0 0 0.793874,-3.276874 V 50.543481 H 50.062606 v 3.078276 h 6.156274 c 0,0.186186 -0.149788,0.359959 -0.239661,0.533733 a 6.4258919,5.3249202 0 0 1 -12.342506,-2.072871 6.5756797,5.4490443 0 0 1 0.38945,-1.812211 6.4408707,5.3373326 0 0 1 5.976527,-3.51271 z"
     id="path12"
     inkscape:connector-curvature="0"
     style="fill:#670ad1;stroke-width:1.36353409" />
  <path
     class="cls-1"
     d="m 58.151141,21.461224 a 4.6134609,3.8230197 0 0 0 -0.08987,0.757157 5.5571234,4.6050009 0 0 0 0.104846,0.83163 4.7932061,3.9719685 0 0 0 3.669799,2.99139 6.0963589,5.0518474 0 0 0 0.913703,0.07447 h 0.314556 a 4.8381424,4.0092057 0 0 0 2.456517,-0.744744 4.8081849,3.9843809 0 0 0 1.932262,-3.127925 4.7033335,3.8974941 0 0 0 -9.301816,-0.757157 z"
     id="path14"
     inkscape:connector-curvature="0"
     style="fill:#670ad1;stroke-width:1.36353409" />
  <path
     class="cls-1"
     d="m 72.745085,85.422034 a 5.59,5.59 0 1 0 5.59,5.59 5.59,5.59 0 0 0 -5.59,-5.59 z m 0,8.91 a 3.32,3.32 0 1 1 3.32,-3.32 3.32,3.32 0 0 1 -3.32,3.31 z"
     id="path16"
     inkscape:connector-curvature="0"
     style="fill:#670ad1" />
  <path
     class="cls-1"
     d="m 60.915085,93.402034 a 3.32,3.32 0 0 1 4.69,-4.69 l 1.6,-1.61 a 5.59,5.59 0 1 0 0,7.91 l -1.6,-1.61 a 3.31,3.31 0 0 1 -4.69,0 z"
     id="path18"
     inkscape:connector-curvature="0"
     style="fill:#670ad1" />
  <path
     class="cls-1"
     d="m 28.105085,89.192034 a 3.11,3.11 0 0 0 -1.16,-2.56 4.3,4.3 0 0 0 -2.81,-0.94 h -4.33 v 10.68 h 2.42 v -8.85 h 1.46 a 1.89,1.89 0 0 1 2,2 c 0,1.05 -0.83,2.06 -2.51,2.25 v 0.23 l 2.82,4.36 h 2.75 l -2.82,-3.94 a 3.57,3.57 0 0 0 2.18,-3.23 z"
     id="path20"

     style="fill:#670ad1" />
  <polygon
     class="cls-1"
     points="109.21,107.38 113.54,107.38 113.54,105.58 109.21,105.58 109.21,103.22 114.04,103.22 114.04,101.35 106.8,101.35 106.8,112.05 114.35,112.05 114.35,110.19 109.21,110.19 "
     id="polygon22"
     transform="translate(-76.694915,-15.677966)"
     style="fill:#670ad1" />
  <polygon
     class="cls-1"
     points="118.43,107.38 122.76,107.38 122.76,105.58 118.43,105.58 118.43,103.22 123.26,103.22 123.26,101.35 116.02,101.35 116.02,112.05 123.57,112.05 123.57,110.19 118.43,110.19 "
     id="polygon24"
     transform="translate(-76.694915,-15.677966)"
     style="fill:#670ad1" />
  <polygon
     class="cls-1"
     points="134.47,112.05 129.98,106.51 134.18,101.35 131.56,101.35 127.67,106.26 127.67,101.35 125.24,101.35 125.24,112.05 127.67,112.05 127.67,106.75 131.69,112.05 "
     id="polygon26"
     transform="translate(-76.694915,-15.677966)"
     style="fill:#670ad1" />
  <rect
     class="cls-1"
     x="79.955078"
     y="85.73204"
     width="2.4100001"
     height="10.7"
     id="rect28"
     style="fill:#670ad1" />
  <path
     class="cls-1"
     d="m 91.755085,85.732034 v 6 h -0.07 c -0.73,-0.71 -1.85,-1.73 -3.32,-3.06 -1.47,-1.33 -2.59,-2.38 -3.36,-3.13 h -0.35 v 10.91 h 2.4 v -6.18 h 0.05 l 6.7,6.35 h 0.34 v -10.89 z"
     id="path30"
     style="fill:#670ad1" />
  <path
     class="cls-1"
     d="m 9.8350847,91.052034 a 3.35,3.35 0 0 1 3.1800003,-3.33 v -2.26 a 5.6,5.6 0 1 0 5.75,5.59 v -1.12 h -5.24 v 2.25 h 2.78 l -0.1,0.22 a 3.34,3.34 0 0 1 -6.3900003,-1.35 z"
     id="path32"

     style="fill:#670ad1" />
</svg>
