<?xml version="1.0" encoding="UTF-8" standalone="no"?>
<svg
   xmlns:dc="http://purl.org/dc/elements/1.1/"
   xmlns:cc="http://creativecommons.org/ns#"
   xmlns:rdf="http://www.w3.org/1999/02/22-rdf-syntax-ns#"
   xmlns:svg="http://www.w3.org/2000/svg"
   xmlns="http://www.w3.org/2000/svg"
   xmlns:sodipodi="http://sodipodi.sourceforge.net/DTD/sodipodi-0.dtd"
   xmlns:inkscape="http://www.inkscape.org/namespaces/inkscape"
   id="Layer_1"
   data-name="Layer 1"
   viewBox="0 0 100 120"
   version="1.1"
   sodipodi:docname="Logos-02.svg"
   inkscape:version="0.92.3 (2405546, 2018-03-11)">
  <metadata
     id="metadata37">
    <rdf:RDF>
      <cc:Work
         rdf:about="">
        <dc:format>image/svg+xml</dc:format>
        <dc:type
           rdf:resource="http://purl.org/dc/dcmitype/StillImage" />
      </cc:Work>
    </rdf:RDF>
  </metadata>
  <sodipodi:namedview
     pagecolor="#ffffff"
     bordercolor="#666666"
     borderopacity="1"
     objecttolerance="10"
     gridtolerance="10"
     guidetolerance="10"
     inkscape:pageopacity="0"
     inkscape:pageshadow="2"
     inkscape:window-width="1920"
     inkscape:window-height="1052"
     id="namedview35"
     showgrid="false"
     inkscape:zoom="1.9666667"
     inkscape:cx="-4.2372881"
     inkscape:cy="60"
     inkscape:window-x="0"
     inkscape:window-y="0"
     inkscape:window-maximized="1"
     inkscape:current-layer="Layer_1" />
  <defs
     id="defs4">
    <style
       id="style2">.cls-1{fill:#ffffff;}</style>
  </defs>
  <title
     id="title6">Logos</title>
  <path
     class="cls-1"
     d="m 72.435085,39.252034 a 9.74,9.74 0 0 0 -7.2,-15.2 l 5.22,-3.5 -1.23,-1.82 -13.36,9 -13.36,-9 -1.2,1.82 5.22,3.5 a 9.74,9.74 0 0 0 -7.2,15.2 23.83,23.83 0 1 0 33.14,0 z m -0.79,-5.49 a 7.29,7.29 0 0 1 -1.1,3.84 7.19,7.19 0 0 1 -0.74,1 6.87,6.87 0 0 1 -0.92,0.87 7.24,7.24 0 0 1 -9.34,-0.27 l -0.31,-0.28 a 7.46,7.46 0 0 1 -1,-1.25 6.88,6.88 0 0 1 -0.63,-1.24 7.6,7.6 0 0 1 -0.39,-1.36 8.41,8.41 0 0 1 -0.12,-1.25 v 0 a 6.78,6.78 0 0 1 0.11,-1.2 7.26,7.26 0 0 1 14.43,1.2 z m -15.78,-4.75 z m 0.23,9.89 a 9.94,9.94 0 0 0 2.21,2.47 l -0.15,0.25 -0.67,1.17 -0.69,1.19 -0.91,1.58 -0.91,-1.58 -0.67,-1.19 -0.67,-1.17 -0.15,-0.25 a 9.94,9.94 0 0 0 2.19,-2.47 z m -0.23,11.63 3.51,-6.08 a 12.44,12.44 0 0 1 8.93,11.87 v 0 a 12.42,12.42 0 1 1 -24.84,0 v 0 a 12.44,12.44 0 0 1 8.91,-11.91 z m -8.51,-24 a 7.28,7.28 0 0 1 7.16,6.07 7.87,7.87 0 0 1 0.11,1.2 v 0 a 8.41,8.41 0 0 1 -0.12,1.25 7.6,7.6 0 0 1 -0.39,1.36 6.88,6.88 0 0 1 -0.63,1.24 8,8 0 0 1 -1,1.25 l -0.31,0.28 a 7.25,7.25 0 0 1 -1,0.75 7.75,7.75 0 0 1 -1.11,0.57 7.23,7.23 0 0 1 -7.23,-1 6.32,6.32 0 0 1 -0.92,-0.87 7.19,7.19 0 0 1 -0.74,-1 7.27,7.27 0 0 1 6.17,-11.11 z m 8.51,51.22 a 21.38,21.38 0 0 1 -21.35,-21.43 v 0 a 21.3,21.3 0 0 1 6.43,-15.26 9.71,9.71 0 0 0 6.41,2.42 9.11,9.11 0 0 0 1,-0.06 14.92,14.92 0 0 0 -7.4,12.9 v 0 a 14.91,14.91 0 0 0 29.81,0 v 0 a 14.9,14.9 0 0 0 -7.46,-12.86 9.28,9.28 0 0 0 1.06,0.06 9.73,9.73 0 0 0 6.41,-2.42 21.3,21.3 0 0 1 6.44,15.22 v 0 a 21.38,21.38 0 0 1 -21.35,21.39 z"
     id="path8"
     inkscape:connector-curvature="0"
     style="fill:#ffffff" />
  <path
     class="cls-1"
     d="m 45.505085,36.322034 a 3.2,3.2 0 0 0 1.64,0.6 h 0.21 a 3.93,3.93 0 0 0 0.6,-0.06 3.29,3.29 0 0 0 1.06,-0.43 3.66,3.66 0 0 0 0.58,-0.46 3.23,3.23 0 0 0 0.82,-1.52 3.71,3.71 0 0 0 0.07,-0.67 3.08,3.08 0 0 0 -0.06,-0.61 3.14,3.14 0 0 0 -6.21,0.61 3.21,3.21 0 0 0 1.29,2.54 z"
     id="path10"
     inkscape:connector-curvature="0"
     style="fill:#ffffff" />
  <path
     class="cls-1"
     d="m 55.865085,53.532034 v -2.48 a 6.78,6.78 0 0 0 -6.56,5.27 7,7 0 0 0 -0.16,1.46 6.77,6.77 0 0 0 13,2.64 6.84,6.84 0 0 0 0.53,-2.64 v -1.2 h -6.77 v 2.48 h 4.11 c 0,0.15 -0.1,0.29 -0.16,0.43 a 4.29,4.29 0 0 1 -8.24,-1.67 4.39,4.39 0 0 1 0.26,-1.46 4.3,4.3 0 0 1 3.99,-2.83 z"
     id="path12"
     inkscape:connector-curvature="0"
     style="fill:#ffffff" />
  <path
     class="cls-1"
     d="m 61.305085,33.152034 a 3.08,3.08 0 0 0 -0.06,0.61 3.71,3.71 0 0 0 0.07,0.67 3.2,3.2 0 0 0 2.45,2.41 4.07,4.07 0 0 0 0.61,0.06 h 0.21 a 3.23,3.23 0 0 0 1.64,-0.6 3.21,3.21 0 0 0 1.29,-2.52 3.14,3.14 0 0 0 -6.21,-0.61 z"
     id="path14"
     inkscape:connector-curvature="0"
     style="fill:#ffffff" />
  <path
     class="cls-1"
     d="m 77.745085,90.422034 a 5.59,5.59 0 1 0 5.59,5.59 5.59,5.59 0 0 0 -5.59,-5.59 z m 0,8.91 a 3.32,3.32 0 1 1 3.32,-3.32 3.32,3.32 0 0 1 -3.32,3.31 z"
     id="path16"
     inkscape:connector-curvature="0"
     style="fill:#ffffff" />
  <path
     class="cls-1"
     d="m 65.915085,98.402034 a 3.32,3.32 0 0 1 4.69,-4.69 l 1.6,-1.61 a 5.59,5.59 0 1 0 0,7.909996 l -1.6,-1.609996 a 3.31,3.31 0 0 1 -4.69,0 z"
     id="path18"
     inkscape:connector-curvature="0"
     style="fill:#ffffff" />
  <path
     class="cls-1"
     d="m 33.105085,94.192034 a 3.11,3.11 0 0 0 -1.16,-2.56 4.3,4.3 0 0 0 -2.81,-0.94 h -4.33 v 10.679996 h 2.42 v -8.849996 h 1.46 a 1.89,1.89 0 0 1 2,2 c 0,1.05 -0.83,2.06 -2.51,2.25 v 0.23 l 2.82,4.359996 h 2.75 l -2.82,-3.939996 a 3.57,3.57 0 0 0 2.18,-3.23 z"
     id="path20"
     inkscape:connector-curvature="0"
     style="fill:#ffffff" />
  <polygon
     class="cls-1"
     points="113.54,107.38 113.54,105.58 109.21,105.58 109.21,103.22 114.04,103.22 114.04,101.35 106.8,101.35 106.8,112.05 114.35,112.05 114.35,110.19 109.21,110.19 109.21,107.38 "
     id="polygon22"
     transform="translate(-71.694915,-10.677966)"
     style="fill:#ffffff" />
  <polygon
     class="cls-1"
     points="122.76,107.38 122.76,105.58 118.43,105.58 118.43,103.22 123.26,103.22 123.26,101.35 116.02,101.35 116.02,112.05 123.57,112.05 123.57,110.19 118.43,110.19 118.43,107.38 "
     id="polygon24"
     transform="translate(-71.694915,-10.677966)"
     style="fill:#ffffff" />
  <polygon
     class="cls-1"
     points="131.56,101.35 127.67,106.26 127.67,101.35 125.24,101.35 125.24,112.05 127.67,112.05 127.67,106.75 131.69,112.05 134.47,112.05 129.98,106.51 134.18,101.35 "
     id="polygon26"
     transform="translate(-71.694915,-10.677966)"
     style="fill:#ffffff" />
  <rect
     class="cls-1"
     x="84.955078"
     y="90.73204"
     width="2.4100001"
     height="10.7"
     id="rect28"
     style="fill:#ffffff" />
  <path
     class="cls-1"
     d="m 96.755085,90.732034 v 6 h -0.07 c -0.73,-0.71 -1.85,-1.73 -3.32,-3.06 -1.47,-1.33 -2.59,-2.38 -3.36,-3.13 h -0.35 v 10.909996 h 2.4 v -6.179996 h 0.05 l 6.7,6.349996 h 0.34 V 90.732034 Z"
     id="path30"
     inkscape:connector-curvature="0"
     style="fill:#ffffff" />
  <path
     class="cls-1"
     d="m 14.835085,96.052034 a 3.35,3.35 0 0 1 3.18,-3.33 v -2.26 a 5.6,5.6 0 1 0 5.75,5.59 v -1.12 h -5.24 v 2.25 h 2.78 l -0.1,0.22 a 3.34,3.34 0 0 1 -6.39,-1.35 z"
     id="path32"
     inkscape:connector-curvature="0"
     style="fill:#ffffff" />
</svg>
