<?xml version="1.0" encoding="UTF-8" standalone="no"?>
<!-- Generator: Adobe Illustrator 18.0.0, SVG Export Plug-In . SVG Version: 6.00 Build 0)  -->

<svg
   xmlns:dc="http://purl.org/dc/elements/1.1/"
   xmlns:cc="http://creativecommons.org/ns#"
   xmlns:rdf="http://www.w3.org/1999/02/22-rdf-syntax-ns#"
   xmlns:svg="http://www.w3.org/2000/svg"
   xmlns="http://www.w3.org/2000/svg"
   xmlns:sodipodi="http://sodipodi.sourceforge.net/DTD/sodipodi-0.dtd"
   xmlns:inkscape="http://www.inkscape.org/namespaces/inkscape"
   version="1.1"
   id="Capa_1"
   x="0px"
   y="0px"
   viewBox="0 0 260.666 260.666"
   style="enable-background:new 0 0 260.666 260.666;"
   xml:space="preserve"
   sodipodi:docname="passport.svg"
   inkscape:version="0.92.3 (2405546, 2018-03-11)"><metadata
   id="metadata53"><rdf:RDF><cc:Work
       rdf:about=""><dc:format>image/svg+xml</dc:format><dc:type
         rdf:resource="http://purl.org/dc/dcmitype/StillImage" /></cc:Work></rdf:RDF></metadata><defs
   id="defs51" /><sodipodi:namedview
   pagecolor="#ffffff"
   bordercolor="#666666"
   borderopacity="1"
   objecttolerance="10"
   gridtolerance="10"
   guidetolerance="10"
   inkscape:pageopacity="0"
   inkscape:pageshadow="2"
   inkscape:window-width="718"
   inkscape:window-height="480"
   id="namedview49"
   showgrid="false"
   inkscape:zoom="0.90537321"
   inkscape:cx="1.6567753"
   inkscape:cy="130.33299"
   inkscape:window-x="0"
   inkscape:window-y="0"
   inkscape:window-maximized="0"
   inkscape:current-layer="Capa_1" />
<g
   id="g16"
   style="fill:#0063a6;fill-opacity:1">
	<path
   d="M236.666,40.882H24c-13.233,0-24,10.767-24,24v130.902c0,13.233,10.767,24,24,24h212.666c13.233,0,24-10.767,24-24V64.882   C260.666,51.648,249.899,40.882,236.666,40.882z M245.666,195.784c0,4.962-4.037,9-9,9H24c-4.963,0-9-4.038-9-9V64.882   c0-4.962,4.037-9,9-9h212.666c4.963,0,9,4.038,9,9V195.784z"
   id="path2"
   style="fill:#0063a6;fill-opacity:1" />
	<path
   d="M216.04,83.703h-68.933c-3.314,0-6,2.687-6,6s2.686,6,6,6h68.933c3.314,0,6-2.687,6-6S219.354,83.703,216.04,83.703z"
   id="path4"
   style="fill:#0063a6;fill-opacity:1" />
	<path
   d="M216.04,164.963h-68.933c-3.314,0-6,2.686-6,6c0,3.313,2.686,6,6,6h68.933c3.314,0,6-2.687,6-6   C222.04,167.649,219.354,164.963,216.04,164.963z"
   id="path6"
   style="fill:#0063a6;fill-opacity:1" />
	<path
   d="M216.04,118.411h-41.718c-3.313,0-6,2.687-6,6s2.687,6,6,6h41.718c3.314,0,6-2.687,6-6S219.354,118.411,216.04,118.411z"
   id="path8"
   style="fill:#0063a6;fill-opacity:1" />
	<path
   d="M216.04,141.686h-41.718c-3.313,0-6,2.687-6,6c0,3.314,2.687,6,6,6h41.718c3.314,0,6-2.686,6-6   C222.04,144.373,219.354,141.686,216.04,141.686z"
   id="path10"
   style="fill:#0063a6;fill-opacity:1" />
	<path
   d="M85.163,133.136c17.004,0,30.838-13.839,30.838-30.849c0-17.011-13.834-30.85-30.838-30.85   c-17.009,0-30.847,13.839-30.847,30.85C54.316,119.297,68.154,133.136,85.163,133.136z M85.163,86.438   c8.733,0,15.838,7.11,15.838,15.85c0,8.739-7.104,15.849-15.838,15.849c-8.738,0-15.847-7.11-15.847-15.849   C69.316,93.548,76.425,86.438,85.163,86.438z"
   id="path12"
   style="fill:#0063a6;fill-opacity:1" />
	<path
   d="M97.097,138.68H73.415c-16.592,0-30.09,13.497-30.09,30.088v12.961c0,4.142,3.357,7.5,7.5,7.5s7.5-3.358,7.5-7.5v-12.961   c0-8.319,6.77-15.088,15.09-15.088h23.682c8.32,0,15.09,6.768,15.09,15.088v12.961c0,4.142,3.357,7.5,7.5,7.5s7.5-3.358,7.5-7.5   v-12.961C127.187,152.177,113.688,138.68,97.097,138.68z"
   id="path14"
   style="fill:#0063a6;fill-opacity:1" />
</g>
<g
   id="g18">
</g>
<g
   id="g20">
</g>
<g
   id="g22">
</g>
<g
   id="g24">
</g>
<g
   id="g26">
</g>
<g
   id="g28">
</g>
<g
   id="g30">
</g>
<g
   id="g32">
</g>
<g
   id="g34">
</g>
<g
   id="g36">
</g>
<g
   id="g38">
</g>
<g
   id="g40">
</g>
<g
   id="g42">
</g>
<g
   id="g44">
</g>
<g
   id="g46">
</g>
</svg>