<?xml version="1.0" encoding="UTF-8" standalone="no"?>
<!-- Generator: Adobe Illustrator 19.0.0, SVG Export Plug-In . SVG Version: 6.00 Build 0)  -->

<svg
   xmlns:dc="http://purl.org/dc/elements/1.1/"
   xmlns:cc="http://creativecommons.org/ns#"
   xmlns:rdf="http://www.w3.org/1999/02/22-rdf-syntax-ns#"
   xmlns:svg="http://www.w3.org/2000/svg"
   xmlns="http://www.w3.org/2000/svg"
   xmlns:sodipodi="http://sodipodi.sourceforge.net/DTD/sodipodi-0.dtd"
   xmlns:inkscape="http://www.inkscape.org/namespaces/inkscape"
   version="1.1"
   id="Capa_1"
   x="0px"
   y="0px"
   viewBox="0 0 512 512"
   style="enable-background:new 0 0 512 512;"
   xml:space="preserve"
   sodipodi:docname="password.svg"
   inkscape:version="0.92.3 (2405546, 2018-03-11)"><metadata
   id="metadata53"><rdf:RDF><cc:Work
       rdf:about=""><dc:format>image/svg+xml</dc:format><dc:type
         rdf:resource="http://purl.org/dc/dcmitype/StillImage" /></cc:Work></rdf:RDF></metadata><defs
   id="defs51" /><sodipodi:namedview
   pagecolor="#ffffff"
   bordercolor="#666666"
   borderopacity="1"
   objecttolerance="10"
   gridtolerance="10"
   guidetolerance="10"
   inkscape:pageopacity="0"
   inkscape:pageshadow="2"
   inkscape:window-width="718"
   inkscape:window-height="480"
   id="namedview49"
   showgrid="false"
   inkscape:zoom="0.4609375"
   inkscape:cx="256"
   inkscape:cy="256"
   inkscape:window-x="0"
   inkscape:window-y="0"
   inkscape:window-maximized="0"
   inkscape:current-layer="Capa_1" />
<g
   id="g16"
   style="fill:#707070;fill-opacity:1">
	<g
   id="g14"
   style="fill:#707070;fill-opacity:1">
		<g
   id="g12"
   style="fill:#707070;fill-opacity:1">
			<circle
   cx="370"
   cy="346"
   r="20"
   id="circle2"
   style="fill:#707070;fill-opacity:1" />
			<path
   d="M460,362c11.046,0,20-8.954,20-20v-74c0-44.112-35.888-80-80-80h-24.037v-70.534C375.963,52.695,322.131,0,255.963,0     s-120,52.695-120,117.466V188H112c-44.112,0-80,35.888-80,80v164c0,44.112,35.888,80,80,80h288c44.112,0,80-35.888,80-80     c0-11.046-8.954-20-20-20c-11.046,0-20,8.954-20,20c0,22.056-17.944,40-40,40H112c-22.056,0-40-17.944-40-40V268     c0-22.056,17.944-40,40-40h288c22.056,0,40,17.944,40,40v74C440,353.046,448.954,362,460,362z M335.963,188h-160v-70.534     c0-42.715,35.888-77.466,80-77.466s80,34.751,80,77.466V188z"
   id="path4"
   style="fill:#707070;fill-opacity:1" />
			<circle
   cx="219"
   cy="346"
   r="20"
   id="circle6"
   style="fill:#707070;fill-opacity:1" />
			<circle
   cx="144"
   cy="346"
   r="20"
   id="circle8"
   style="fill:#707070;fill-opacity:1" />
			<circle
   cx="294"
   cy="346"
   r="20"
   id="circle10"
   style="fill:#707070;fill-opacity:1" />
		</g>
	</g>
</g>
<g
   id="g18">
</g>
<g
   id="g20">
</g>
<g
   id="g22">
</g>
<g
   id="g24">
</g>
<g
   id="g26">
</g>
<g
   id="g28">
</g>
<g
   id="g30">
</g>
<g
   id="g32">
</g>
<g
   id="g34">
</g>
<g
   id="g36">
</g>
<g
   id="g38">
</g>
<g
   id="g40">
</g>
<g
   id="g42">
</g>
<g
   id="g44">
</g>
<g
   id="g46">
</g>
</svg>