<?xml version="1.0" encoding="UTF-8" standalone="no"?>
<!-- Created with Inkscape (http://www.inkscape.org/) -->

<svg
   xmlns:dc="http://purl.org/dc/elements/1.1/"
   xmlns:cc="http://creativecommons.org/ns#"
   xmlns:rdf="http://www.w3.org/1999/02/22-rdf-syntax-ns#"
   xmlns:svg="http://www.w3.org/2000/svg"
   xmlns="http://www.w3.org/2000/svg"
   xmlns:sodipodi="http://sodipodi.sourceforge.net/DTD/sodipodi-0.dtd"
   xmlns:inkscape="http://www.inkscape.org/namespaces/inkscape"
   width="210mm"
   height="189mm"
   viewBox="0 0 210 189"
   version="1.1"
   id="svg967"
   inkscape:version="0.92.3 (2405546, 2018-03-11)"
   sodipodi:docname="piggie.svg">
  <defs
     id="defs961" />
  <sodipodi:namedview
     id="base"
     pagecolor="#ffffff"
     bordercolor="#666666"
     borderopacity="1.0"
     inkscape:pageopacity="0.0"
     inkscape:pageshadow="2"
     inkscape:zoom="0.35"
     inkscape:cx="-488.57143"
     inkscape:cy="560"
     inkscape:document-units="mm"
     inkscape:current-layer="layer1"
     showgrid="false"
     inkscape:window-width="1920"
     inkscape:window-height="1025"
     inkscape:window-x="1920"
     inkscape:window-y="27"
     inkscape:window-maximized="1" />
  <metadata
     id="metadata964">
    <rdf:RDF>
      <cc:Work
         rdf:about="">
        <dc:format>image/svg+xml</dc:format>
        <dc:type
           rdf:resource="http://purl.org/dc/dcmitype/StillImage" />
        <dc:title />
      </cc:Work>
    </rdf:RDF>
  </metadata>
  <g
     inkscape:label="Layer 1"
     inkscape:groupmode="layer"
     id="layer1"
     transform="translate(0,-108)">
    <circle
       r="58.684586"
       cy="200.99406"
       cx="85.554588"
       class="st0"
       id="Ellipse_1"
       style="fill:#ff8800;fill-opacity:1;stroke-width:0.26458332" />
    <g
       id="g1102"
       transform="matrix(0.26458333,0,0,0.26458333,48.059358,134.77249)"
       style="fill:#0063a6;fill-opacity:1">
      <g
         id="g973"
         style="fill:#0063a6;fill-opacity:1">
        <g
           id="g971"
           style="fill:#0063a6;fill-opacity:1">
          <path
             id="path969"
             d="m 486.489,255.827 -23.229,-2.909 c -7.062,-17.278 -17.208,-33.26 -29.818,-47.088 l 17.079,-72.354 c 0.702,-2.974 0.006,-6.105 -1.89,-8.501 -1.896,-2.396 -4.783,-3.794 -7.838,-3.796 l -2.185,-0.001 c -0.013,0 -0.022,0 -0.035,0 -28.351,0 -53.902,17.838 -63.952,44.002 -7.108,-2.825 -14.415,-5.152 -21.867,-6.915 -5.375,-1.271 -10.762,2.054 -12.033,7.43 -1.271,5.375 2.055,10.762 7.43,12.033 25.455,6.021 48.162,18.893 66.06,36.756 0.654,0.958 1.469,1.806 2.427,2.492 13.047,13.694 23.36,30.124 30.05,48.536 1.281,3.528 4.432,6.042 8.156,6.508 l 29.162,3.651 c 4.559,0.571 7.996,4.466 7.996,9.06 v 50.417 c 0,4.594 -3.438,8.489 -7.996,9.06 l -27.023,3.383 c -3.887,0.486 -7.132,3.197 -8.302,6.936 -8.017,25.615 -23.249,48.266 -44.052,65.502 -2.293,1.9 -3.62,4.723 -3.62,7.7 v 55.274 c 0,4.961 -4.036,8.997 -8.996,8.997 h -58.007 c -4.961,0 -8.997,-4.036 -8.997,-8.997 v -21.066 c 0,-5.523 -4.478,-10 -10,-10 h -84.014 c -5.522,0 -10,4.477 -10,10 v 21.066 c 0,4.961 -4.036,8.997 -8.997,8.997 H 153.99 c -4.96,0 -8.996,-4.036 -8.996,-8.997 v -39.029 c 0,-3.667 -2.007,-7.039 -5.229,-8.788 C 94.883,410.818 67,363.987 67,312.969 67,236.341 129.341,174 205.969,174 H 218.5 c 5.522,0 10,-4.477 10,-10 0,-5.523 -4.478,-10 -10,-10 H 205.969 C 131.737,154 69.232,205.147 51.827,274.05 H 44.5 c -13.51,0 -24.5,-10.991 -24.5,-24.5 0,-13.509 10.99,-24.5 24.5,-24.5 5.522,0 10,-4.477 10,-10 0,-5.523 -4.478,-10 -10,-10 -24.537,0 -44.5,19.962 -44.5,44.5 0,24.538 19.963,44.5 44.5,44.5 h 3.631 C 47.391,300.256 47,306.567 47,312.969 c 0,56.349 29.734,108.232 77.993,136.827 v 33.208 c 0,15.989 13.008,28.997 28.996,28.997 h 58.007 c 15.989,0 28.997,-13.008 28.997,-28.997 v -11.066 h 64.014 v 11.066 c 0,15.989 13.008,28.997 28.997,28.997 h 58.007 c 15.988,0 28.996,-13.008 28.996,-28.997 V 432.34 c 20.304,-17.857 35.626,-40.382 44.694,-65.684 l 20.787,-2.603 C 501.032,362.233 512,349.806 512,335.148 v -50.417 c 0,-14.657 -10.967,-27.084 -25.511,-28.904 z m -69.841,-65.91 c -7.46,-6.102 -15.45,-11.508 -23.854,-16.15 5.525,-15.875 19.001,-27.687 35.072,-31.375 z"
             inkscape:connector-curvature="0"
             style="fill:#0063a6;fill-opacity:1" />
        </g>
      </g>
      <g
         id="g979"
         style="fill:#0063a6;fill-opacity:1">
        <g
           id="g977"
           style="fill:#0063a6;fill-opacity:1">
          <path
             id="path975"
             d="m 398.07,253.93 c -1.859,-1.86 -4.439,-2.93 -7.069,-2.93 -2.63,0 -5.21,1.07 -7.07,2.93 -1.86,1.86 -2.93,4.44 -2.93,7.07 0,2.63 1.069,5.21 2.93,7.07 1.861,1.86 4.44,2.93 7.07,2.93 2.63,0 5.21,-1.07 7.069,-2.93 1.86,-1.86 2.931,-4.44 2.931,-7.07 0,-2.63 -1.071,-5.21 -2.931,-7.07 z"
             inkscape:connector-curvature="0"
             style="fill:#0063a6;fill-opacity:1" />
        </g>
      </g>
      <g
         id="g985"
         style="fill:#0063a6;fill-opacity:1">
        <g
           id="g983"
           style="fill:#0063a6;fill-opacity:1">
          <path
             id="path981"
             d="m 293.242,58.333 c -5.522,0 -10,4.477 -10,10 v 39.665 c 0,5.523 4.478,10 10,10 5.522,0 10,-4.477 10,-10 V 68.333 c 0,-5.522 -4.477,-10 -10,-10 z"
             inkscape:connector-curvature="0"
             style="fill:#0063a6;fill-opacity:1" />
        </g>
      </g>
      <g
         id="g991"
         style="fill:#0063a6;fill-opacity:1">
        <g
           id="g989"
           style="fill:#0063a6;fill-opacity:1">
          <path
             id="path987"
             d="m 300.31,24.98 c -1.859,-1.86 -4.439,-2.93 -7.069,-2.93 -2.631,0 -5.21,1.07 -7.07,2.93 -1.86,1.86 -2.93,4.44 -2.93,7.07 0,2.64 1.069,5.21 2.93,7.07 1.86,1.86 4.439,2.93 7.07,2.93 2.63,0 5.21,-1.07 7.069,-2.93 1.86,-1.86 2.931,-4.44 2.931,-7.07 0,-2.63 -1.071,-5.2 -2.931,-7.07 z"
             inkscape:connector-curvature="0"
             style="fill:#0063a6;fill-opacity:1" />
        </g>
      </g>
      <g
         id="g997"
         style="fill:#0063a6;fill-opacity:1">
        <g
           id="g995"
           style="fill:#0063a6;fill-opacity:1">
          <path
             id="path993"
             d="m 212,0 c -5.522,0 -10,4.477 -10,10 v 17 c 0,5.523 4.478,10 10,10 5.522,0 10,-4.477 10,-10 V 10 C 222,4.477 217.523,0 212,0 Z"
             inkscape:connector-curvature="0"
             style="fill:#0063a6;fill-opacity:1" />
        </g>
      </g>
      <g
         id="g1003"
         style="fill:#0063a6;fill-opacity:1">
        <g
           id="g1001"
           style="fill:#0063a6;fill-opacity:1">
          <path
             id="path999"
             d="m 113.938,312.969 c 0,-5.523 -4.478,-10 -10,-10 -5.522,0 -10,4.477 -10,10 l 10e-4,0.531 c 0.034,5.501 4.505,9.938 9.999,9.938 0.02,0 0.041,0 0.063,0 5.522,-0.035 9.972,-4.54 9.938,-10.063 z"
             inkscape:connector-curvature="0"
             style="fill:#0063a6;fill-opacity:1" />
        </g>
      </g>
      <g
         id="g1009"
         style="fill:#0063a6;fill-opacity:1">
        <g
           id="g1007"
           style="fill:#0063a6;fill-opacity:1">
          <path
             id="path1005"
             d="m 158.203,391.651 c -17.383,-10.579 -30.952,-26.832 -38.206,-45.765 -1.977,-5.159 -7.76,-7.738 -12.916,-5.76 -5.157,1.976 -7.736,7.758 -5.76,12.916 8.83,23.047 25.339,42.826 46.486,55.694 1.624,0.988 3.417,1.459 5.188,1.459 3.375,0 6.67,-1.709 8.553,-4.803 2.871,-4.718 1.372,-10.87 -3.345,-13.741 z"
             inkscape:connector-curvature="0"
             style="fill:#0063a6;fill-opacity:1" />
        </g>
      </g>
      <g
         id="g1015"
         style="fill:#0063a6;fill-opacity:1">
        <g
           id="g1013"
           style="fill:#0063a6;fill-opacity:1">
          <path
             id="path1011"
             d="m 212,48.052 c -23.159,0 -42,18.841 -42,42 0,23.159 18.841,42 42,42 23.159,0 42,-18.841 42,-42 0,-23.159 -18.841,-42 -42,-42 z m 0,64 c -12.131,0 -22,-9.869 -22,-22 0,-12.131 9.869,-22 22,-22 12.131,0 22,9.869 22,22 0,12.131 -9.869,22 -22,22 z"
             inkscape:connector-curvature="0"
             style="fill:#0063a6;fill-opacity:1" />
        </g>
      </g>
      <g
         id="g1021"
         style="fill:#0063a6;fill-opacity:1">
        <g
           id="g1019"
           style="fill:#0063a6;fill-opacity:1">
          <path
             id="path1017"
             d="m 338,212 h -9 c 3.954,-6.403 6.242,-13.938 6.242,-22 0,-23.159 -18.841,-42 -42,-42 -23.159,0 -42,18.841 -42,42 -10e-4,8.062 2.287,15.597 6.241,22 H 208 c -5.522,0 -10,4.477 -10,10 0,5.523 4.478,10 10,10 h 130 c 5.522,0 10,-4.477 10,-10 0,-5.523 -4.477,-10 -10,-10 z m -44.758,0 c -12.131,0 -22,-9.869 -22,-22 0,-12.131 9.869,-22 22,-22 12.131,0 22,9.869 22,22 0,12.131 -9.87,22 -22,22 z"
             inkscape:connector-curvature="0"
             style="fill:#0063a6;fill-opacity:1" />
        </g>
      </g>
      <g
         id="g1023"
         style="fill:#0063a6;fill-opacity:1" />
      <g
         id="g1025"
         style="fill:#0063a6;fill-opacity:1" />
      <g
         id="g1027"
         style="fill:#0063a6;fill-opacity:1" />
      <g
         id="g1029"
         style="fill:#0063a6;fill-opacity:1" />
      <g
         id="g1031"
         style="fill:#0063a6;fill-opacity:1" />
      <g
         id="g1033"
         style="fill:#0063a6;fill-opacity:1" />
      <g
         id="g1035"
         style="fill:#0063a6;fill-opacity:1" />
      <g
         id="g1037"
         style="fill:#0063a6;fill-opacity:1" />
      <g
         id="g1039"
         style="fill:#0063a6;fill-opacity:1" />
      <g
         id="g1041"
         style="fill:#0063a6;fill-opacity:1" />
      <g
         id="g1043"
         style="fill:#0063a6;fill-opacity:1" />
      <g
         id="g1045"
         style="fill:#0063a6;fill-opacity:1" />
      <g
         id="g1047"
         style="fill:#0063a6;fill-opacity:1" />
      <g
         id="g1049"
         style="fill:#0063a6;fill-opacity:1" />
      <g
         id="g1051"
         style="fill:#0063a6;fill-opacity:1" />
    </g>
  </g>
  <g
     inkscape:groupmode="layer"
     id="layer3"
     inkscape:label="Layer 2"
     transform="translate(0,-108)" />
  <style
     id="style1104"
     type="text/css">
	.st0{fill:#FFBC00;}
</style>
</svg>
