<?xml version="1.0" encoding="UTF-8" standalone="no"?>
<!-- Generator: Adobe Illustrator 24.1.1, SVG Export Plug-In . SVG Version: 6.00 Build 0)  -->

<svg
   xmlns:dc="http://purl.org/dc/elements/1.1/"
   xmlns:cc="http://creativecommons.org/ns#"
   xmlns:rdf="http://www.w3.org/1999/02/22-rdf-syntax-ns#"
   xmlns:svg="http://www.w3.org/2000/svg"
   xmlns="http://www.w3.org/2000/svg"
   xmlns:sodipodi="http://sodipodi.sourceforge.net/DTD/sodipodi-0.dtd"
   xmlns:inkscape="http://www.inkscape.org/namespaces/inkscape"
   version="1.1"
   id="Layer_1"
   x="0px"
   y="0px"
   viewBox="0 0 145.8 134.8"
   xml:space="preserve"
   sodipodi:docname="retry.svg"
   inkscape:version="0.92.3 (2405546, 2018-03-11)"
   width="145.8"
   height="134.8"><metadata
   id="metadata19"><rdf:RDF><cc:Work
       rdf:about=""><dc:format>image/svg+xml</dc:format><dc:type
         rdf:resource="http://purl.org/dc/dcmitype/StillImage" /><dc:title></dc:title></cc:Work></rdf:RDF></metadata><defs
   id="defs17" /><sodipodi:namedview
   pagecolor="#ffffff"
   bordercolor="#666666"
   borderopacity="1"
   objecttolerance="10"
   gridtolerance="10"
   guidetolerance="10"
   inkscape:pageopacity="0"
   inkscape:pageshadow="2"
   inkscape:window-width="1271"
   inkscape:window-height="761"
   id="namedview15"
   showgrid="false"
   inkscape:zoom="1.2177502"
   inkscape:cx="-158.48897"
   inkscape:cy="96.899996"
   inkscape:window-x="0"
   inkscape:window-y="0"
   inkscape:window-maximized="0"
   inkscape:current-layer="Layer_1" />
<style
   type="text/css"
   id="style2">
	.st0{fill:#FFFFFF;}
</style>
<path
   d="m 113.72458,32.863378 -5.75662,5.94531 c 12.80091,8.311298 20.07244,20.747918 20.07244,33.73055 0,2.244656 -0.22723,4.489325 -0.68171,6.733991 v 0 c -2.27234,11.405313 -9.9226,21.475981 -21.58735,28.331311 v 0 c -9.316644,5.45998 -20.375414,8.31131 -31.737181,8.31131 -2.802568,0 -5.680881,-0.18199 -8.559194,-0.54599 0,0 0,0 0,0 v 0 c 0,0 0,0 0,0 C 38.812699,112.0332 19.72494,93.529881 19.72494,72.539238 c 0,-2.244666 0.227235,-4.489331 0.681706,-6.733991 2.272352,-11.465951 9.922605,-21.475911 21.587347,-28.33122 9.468133,-5.459978 20.45117,-8.3113 31.81293,-8.3113 1.060432,0 2.045115,0 3.105548,0.06067 l 2.348095,0.121332 -10.831543,9.099964 5.832371,4.489315 15.906462,-13.346613 v 0 l 5.3779,-4.549983 -5.98386,-4.549981 v 0 L 73.200963,7.9294773 67.595827,12.600791 79.639296,21.822088 76.760979,21.700755 c -0.984682,-0.06067 -2.045115,-0.06067 -3.029801,-0.06067 -13.331133,0 -26.28354,3.336653 -37.266576,9.767295 -13.709859,8.007968 -22.723523,19.777256 -25.374601,33.245207 -0.530215,2.66932 -0.75745,5.338645 -0.75745,7.947311 0,24.569975 22.420542,46.288622 53.627513,50.231952 v 0 c 3.332783,0.42466 6.665567,0.60666 9.99835,0.60666 13.331132,0 26.283546,-3.33665 37.266576,-9.76733 13.70986,-8.00798 22.72352,-19.777309 25.37461,-33.245288 0.53021,-2.669329 0.75745,-5.278005 0.75745,-7.886664 0.0757,-15.287952 -8.48346,-29.908558 -23.63247,-39.675852 z"
   id="path4"
   style="fill:#0063a6;fill-opacity:1;stroke:#ff9e2e;stroke-width:8.17700005;stroke-miterlimit:4;stroke-dasharray:none;stroke-opacity:1"
   inkscape:connector-curvature="0" />
<polygon
   class="st0"
   points=""
   id="polygon6"
   style="fill:#ffffff"
   transform="translate(0,-59.000184)" />
<polygon
   points=""
   id="polygon8"
   transform="translate(0,-59.000184)" />

<polygon
   class="st0"
   points=""
   id="polygon12"
   style="fill:#ffffff"
   transform="translate(0,-59.000184)" />
</svg>