<?xml version="1.0" encoding="UTF-8" standalone="no"?>
<!-- Created with Inkscape (http://www.inkscape.org/) -->

<svg
   xmlns:dc="http://purl.org/dc/elements/1.1/"
   xmlns:cc="http://creativecommons.org/ns#"
   xmlns:rdf="http://www.w3.org/1999/02/22-rdf-syntax-ns#"
   xmlns:svg="http://www.w3.org/2000/svg"
   xmlns="http://www.w3.org/2000/svg"
   xmlns:sodipodi="http://sodipodi.sourceforge.net/DTD/sodipodi-0.dtd"
   xmlns:inkscape="http://www.inkscape.org/namespaces/inkscape"
   width="210mm"
   height="189mm"
   viewBox="0 0 210 189"
   version="1.1"
   id="svg8"
   inkscape:version="0.92.3 (2405546, 2018-03-11)"
   sodipodi:docname="safety.svg">
  <defs
     id="defs2" />
  <sodipodi:namedview
     id="base"
     pagecolor="#ffffff"
     bordercolor="#666666"
     borderopacity="1.0"
     inkscape:pageopacity="0.0"
     inkscape:pageshadow="2"
     inkscape:zoom="0.35"
     inkscape:cx="-488.57143"
     inkscape:cy="560"
     inkscape:document-units="mm"
     inkscape:current-layer="layer1"
     showgrid="false"
     inkscape:window-width="1920"
     inkscape:window-height="1025"
     inkscape:window-x="1920"
     inkscape:window-y="27"
     inkscape:window-maximized="1" />
  <metadata
     id="metadata5">
    <rdf:RDF>
      <cc:Work
         rdf:about="">
        <dc:format>image/svg+xml</dc:format>
        <dc:type
           rdf:resource="http://purl.org/dc/dcmitype/StillImage" />
        <dc:title></dc:title>
      </cc:Work>
    </rdf:RDF>
  </metadata>
  <g
     inkscape:groupmode="layer"
     id="layer2"
     inkscape:label="Layer 2"
     transform="translate(0,-108)">
    <ellipse
       cy="211.5218"
       cx="114.00391"
       class="st0"
       id="Ellipse_1"
       style="fill:#ff8800;fill-opacity:1;stroke-width:0.2516222"
       rx="65.742325"
       ry="47.377914" />
  </g>
  <g
     inkscape:label="Layer 1"
     inkscape:groupmode="layer"
     id="layer1"
     transform="translate(0,-108)">
    <g
       id="g3810"
       transform="matrix(0.29640362,0,0,0.21360646,24.57472,138.52942)"
       style="fill:#0063a6;fill-opacity:1">
      <g
         id="g3717"
         style="fill:#0063a6;fill-opacity:1">
        <g
           id="g3715"
           style="fill:#0063a6;fill-opacity:1">
          <path
             id="path3713"
             d="m 256,40.01 c -5.538,0 -9.99,4.46 -9.99,9.99 0,5.147 3.872,9.43 8.99,9.938 5.925,0.588 10.99,-4.027 10.99,-9.938 0,-5.538 -4.46,-9.99 -9.99,-9.99 z"
             inkscape:connector-curvature="0"
             style="fill:#0063a6;fill-opacity:1" />
        </g>
      </g>
      <g
         id="g3723"
         style="fill:#0063a6;fill-opacity:1">
        <g
           id="g3721"
           style="fill:#0063a6;fill-opacity:1">
          <path
             id="path3719"
             d="M 456,60 C 428.43,60 406,37.57 406,10 406,4.478 401.522,0 396,0 H 116 c -5.522,0 -10,4.478 -10,10 0,27.57 -22.43,50 -50,50 -5.522,0 -10,4.478 -10,10 v 163.19 c 0,127.177 82.895,241.135 207.128,278.389 0.937,0.28 1.904,0.421 2.872,0.421 0.968,0 1.937,-0.141 2.873,-0.422 C 380.415,475.119 466,363.149 466,233.19 V 70 c 0,-5.522 -4.478,-10 -10,-10 z M 446,233.19 C 446,352.638 369.779,456.082 256,491.543 143.128,456.365 66,351.984 66,233.19 V 79.288 C 96.611,74.89 120.89,50.611 125.288,20 H 386.712 C 391.11,50.611 415.389,74.89 446,79.288 Z"
             inkscape:connector-curvature="0"
             style="fill:#0063a6;fill-opacity:1" />
        </g>
      </g>
      <g
         id="g3729"
         style="fill:#0063a6;fill-opacity:1">
        <g
           id="g3727"
           style="fill:#0063a6;fill-opacity:1">
          <path
             id="path3725"
             d="M 420.012,92.49 C 399.158,83.357 382.643,66.842 373.51,45.988 371.916,42.35 368.322,40 364.35,40 h -68.37 c -5.522,0 -10,4.478 -10,10 0,5.522 4.478,10 10,10 h 62.047 C 368.592,80.681 385.319,97.407 406,107.973 V 233.19 C 406,331.053 347.251,415.493 256,449.294 164.749,415.492 106,331.053 106,233.19 V 107.973 C 126.681,97.407 143.407,80.681 153.973,60 h 62.047 c 5.522,0 10,-4.478 10,-10 0,-5.522 -4.478,-10 -10,-10 h -68.37 c -3.972,0 -7.566,2.351 -9.16,5.988 C 129.357,66.842 112.842,83.357 91.988,92.49 88.351,94.084 86,97.679 86,101.65 v 131.54 c 0,107.213 66.311,200.653 166.664,236.166 1.079,0.382 2.207,0.573 3.336,0.573 1.129,0 2.257,-0.191 3.336,-0.573 C 359.605,433.873 426,340.49 426,233.19 V 101.65 c 0,-3.972 -2.351,-7.566 -5.988,-9.16 z"
             inkscape:connector-curvature="0"
             style="fill:#0063a6;fill-opacity:1" />
        </g>
      </g>
      <g
         id="g3735"
         style="fill:#0063a6;fill-opacity:1">
        <g
           id="g3733"
           style="fill:#0063a6;fill-opacity:1">
          <path
             id="path3731"
             d="m 256,146 c -49.626,0 -90,40.374 -90,90 0,49.626 40.374,90 90,90 49.626,0 90,-40.374 90,-90 0,-49.626 -40.374,-90 -90,-90 z m 0,160 c -38.598,0 -70,-31.402 -70,-70 0,-38.598 31.402,-70 70,-70 38.598,0 70,31.402 70,70 0,38.598 -31.402,70 -70,70 z"
             inkscape:connector-curvature="0"
             style="fill:#0063a6;fill-opacity:1" />
        </g>
      </g>
      <g
         id="g3741"
         style="fill:#0063a6;fill-opacity:1">
        <g
           id="g3739"
           style="fill:#0063a6;fill-opacity:1">
          <path
             id="path3737"
             d="m 303.071,208.928 c -3.906,-3.904 -10.236,-3.904 -14.143,0 L 246,251.857 233.071,238.929 c -3.906,-3.904 -10.236,-3.904 -14.143,0 -3.905,3.905 -3.905,10.237 0,14.143 l 20,20 c 1.954,1.951 4.512,2.928 7.072,2.928 2.56,0 5.118,-0.977 7.071,-2.929 l 50,-50 c 3.905,-3.905 3.905,-10.237 0,-14.143 z"
             inkscape:connector-curvature="0"
             style="fill:#0063a6;fill-opacity:1" />
        </g>
      </g>
      <g
         id="g3743"
         style="fill:#0063a6;fill-opacity:1" />
      <g
         id="g3745"
         style="fill:#0063a6;fill-opacity:1" />
      <g
         id="g3747"
         style="fill:#0063a6;fill-opacity:1" />
      <g
         id="g3749"
         style="fill:#0063a6;fill-opacity:1" />
      <g
         id="g3751"
         style="fill:#0063a6;fill-opacity:1" />
      <g
         id="g3753"
         style="fill:#0063a6;fill-opacity:1" />
      <g
         id="g3755"
         style="fill:#0063a6;fill-opacity:1" />
      <g
         id="g3757"
         style="fill:#0063a6;fill-opacity:1" />
      <g
         id="g3759"
         style="fill:#0063a6;fill-opacity:1" />
      <g
         id="g3761"
         style="fill:#0063a6;fill-opacity:1" />
      <g
         id="g3763"
         style="fill:#0063a6;fill-opacity:1" />
      <g
         id="g3765"
         style="fill:#0063a6;fill-opacity:1" />
      <g
         id="g3767"
         style="fill:#0063a6;fill-opacity:1" />
      <g
         id="g3769"
         style="fill:#0063a6;fill-opacity:1" />
      <g
         id="g3771"
         style="fill:#0063a6;fill-opacity:1" />
    </g>
  </g>
  <style
     id="style3812"
     type="text/css">
	.st0{fill:#FFBC00;}
</style>
</svg>
