<?xml version="1.0" encoding="UTF-8" standalone="no"?>
<!-- Created with Inkscape (http://www.inkscape.org/) -->

<svg
   xmlns:dc="http://purl.org/dc/elements/1.1/"
   xmlns:cc="http://creativecommons.org/ns#"
   xmlns:rdf="http://www.w3.org/1999/02/22-rdf-syntax-ns#"
   xmlns:svg="http://www.w3.org/2000/svg"
   xmlns="http://www.w3.org/2000/svg"
   xmlns:sodipodi="http://sodipodi.sourceforge.net/DTD/sodipodi-0.dtd"
   xmlns:inkscape="http://www.inkscape.org/namespaces/inkscape"
   width="210mm"
   height="297mm"
   viewBox="0 0 210 297"
   version="1.1"
   id="svg860"
   inkscape:version="0.92.3 (2405546, 2018-03-11)"
   sodipodi:docname="twitter_diko_m.svg">
  <defs
     id="defs854" />
  <sodipodi:namedview
     id="base"
     pagecolor="#ffffff"
     bordercolor="#666666"
     borderopacity="1.0"
     inkscape:pageopacity="0.0"
     inkscape:pageshadow="2"
     inkscape:zoom="0.49497475"
     inkscape:cx="-124.86738"
     inkscape:cy="686.53595"
     inkscape:document-units="mm"
     inkscape:current-layer="layer1"
     showgrid="false"
     inkscape:window-width="1920"
     inkscape:window-height="1052"
     inkscape:window-x="0"
     inkscape:window-y="0"
     inkscape:window-maximized="1" />
  <metadata
     id="metadata857">
    <rdf:RDF>
      <cc:Work
         rdf:about="">
        <dc:format>image/svg+xml</dc:format>
        <dc:type
           rdf:resource="http://purl.org/dc/dcmitype/StillImage" />
        <dc:title></dc:title>
      </cc:Work>
    </rdf:RDF>
  </metadata>
  <g
     inkscape:label="Layer 1"
     inkscape:groupmode="layer"
     id="layer1">
    <path
       style="fill:none;fill-rule:evenodd;stroke:#000000;stroke-width:0.43430877px;stroke-linecap:butt;stroke-linejoin:miter;stroke-opacity:1"
       d="m 21.785361,84.421973 c 25.71505,37.284517 53.19055,47.206227 81.729939,50.210867 -4.300566,-49.133384 36.5519,-81.555818 67.91087,-44.361059 7.17471,-2.055108 14.98236,-5.282408 24.3808,-11.455871 -2.49497,13.064785 -10.21273,18.391489 -16.08936,26.446 6.46048,-0.75982 13.75006,-3.56694 21.32086,-7.068513 -4.93707,11.085473 -17.13732,21.724713 -19.78943,23.016303 2.82827,1.6193 3.42277,80.09203 -49.65601,124.49396 -60.701026,50.77813 -121.8153559,0.48079 -121.7257267,1.0341 14.4470027,2.11694 40.8371437,-1.81967 57.2334177,-20.68218 -8.865719,0.71033 -32.184759,-8.12318 -36.294362,-33.09152 4.9104,0.92599 9.675899,2.15015 16.751243,-1.37883 -14.799557,-6.61026 -30.230306,-15.41688 -30.989804,-47.91374 5.305082,2.41227 10.813355,4.57368 17.588806,5.17054 C 21.353188,134.30288 9.7690026,118.78968 21.785361,84.421973 Z"
       id="path1440"
       inkscape:connector-curvature="0"
       sodipodi:nodetypes="cccccccsccccccc" />
    <path
       style="fill:#a89cff;fill-opacity:1;fill-rule:evenodd;stroke:#000000;stroke-width:0;stroke-linejoin:round;stroke-miterlimit:4;stroke-dasharray:none;stroke-opacity:1;paint-order:markers fill stroke"
       d="M 59.806512,266.50659 C 45.488308,264.55849 29.02665,258.36834 16.021548,250.04197 l -4.275077,-2.73707 7.482311,-0.35102 c 18.080231,-0.84821 33.794332,-7.24901 44.888682,-18.28442 l 3.218598,-3.20151 -3.18643,-0.43535 c -12.333875,-1.68514 -23.926242,-9.84334 -29.377087,-20.67429 -1.327256,-2.63728 -4.050697,-10.00578 -4.052559,-10.96453 -8.2e-5,-0.0426 2.826295,-0.0825 6.280835,-0.0889 5.205878,-0.01 6.691752,-0.20097 8.680778,-1.11799 l 2.399797,-1.1064 -4.85036,-2.41013 c -17.089675,-8.49181 -24.370868,-19.30841 -26.363518,-39.16438 -0.293844,-2.92803 -0.471424,-5.38652 -0.394623,-5.46332 0.0768,-0.0768 1.819688,0.54407 3.873084,1.3797 3.936499,1.60197 10.435694,3.26011 12.778257,3.26011 1.31192,0 1.180169,-0.25146 -2.310633,-4.40995 -7.389579,-8.803 -11.473774,-16.43599 -13.144709,-24.56626 -1.077591,-5.24324 -1.086091,-14.4125 -0.01903,-20.532273 0.716253,-4.107842 3.124279,-13.421016 3.590771,-13.887508 0.08783,-0.08783 2.110973,2.413878 4.495861,5.559364 19.343042,25.511997 41.885327,38.900587 72.518124,43.070847 l 5.26068,0.71617 -0.3494,-4.06688 c -0.7491,-8.71942 1.5282,-21.95518 5.2644,-30.596976 2.99953,-6.937872 5.11473,-10.054124 10.48878,-15.452788 6.03684,-6.064491 10.71196,-8.689364 17.62646,-9.896475 10.28989,-1.796375 19.74565,1.690386 29.4336,10.853481 2.5644,2.425472 5.06116,4.409948 5.54835,4.409948 2.197,0 15.17081,-5.715238 20.24455,-8.918155 1.14593,-0.723394 2.20503,-1.193741 2.35355,-1.04522 0.14853,0.148524 -0.0237,1.188193 -0.38264,2.310379 -1.37001,4.282686 -4.54137,9.399767 -9.69363,15.640917 -2.93817,3.559129 -5.26393,6.669469 -5.16836,6.911879 0.40436,1.02561 10.00629,-1.73653 19.33755,-5.562753 0.95323,-0.390866 0.95566,-0.339248 0.0663,1.409453 -2.4629,4.84248 -13.62759,17.23772 -17.23233,19.13164 -1.03368,0.54309 -1.12073,0.80136 -0.5988,1.77661 0.85431,1.59626 0.26005,21.5943 -0.84598,28.46949 -3.17549,19.73913 -8.16795,35.87276 -16.04833,51.86169 -7.33317,14.87869 -15.27413,25.92356 -26.54654,36.92289 -22.6189,22.07095 -49.023085,31.54923 -77.206287,27.71462 z"
       id="path1463"
       inkscape:connector-curvature="0" />
  </g>
</svg>
