<?xml version="1.0" encoding="UTF-8" standalone="no"?>
<!-- Generator: Adobe Illustrator 24.1.1, SVG Export Plug-In . SVG Version: 6.00 Build 0)  -->

<svg
   xmlns:dc="http://purl.org/dc/elements/1.1/"
   xmlns:cc="http://creativecommons.org/ns#"
   xmlns:rdf="http://www.w3.org/1999/02/22-rdf-syntax-ns#"
   xmlns:svg="http://www.w3.org/2000/svg"
   xmlns="http://www.w3.org/2000/svg"
   xmlns:sodipodi="http://sodipodi.sourceforge.net/DTD/sodipodi-0.dtd"
   xmlns:inkscape="http://www.inkscape.org/namespaces/inkscape"
   version="1.1"
   id="Capa_1"
   x="0px"
   y="0px"
   viewBox="0 0 512.2 512.2"
   style="enable-background:new 0 0 512.2 512.2;"
   xml:space="preserve"
   sodipodi:docname="up-price.svg"
   inkscape:version="0.92.3 (2405546, 2018-03-11)"><metadata
   id="metadata13"><rdf:RDF><cc:Work
       rdf:about=""><dc:format>image/svg+xml</dc:format><dc:type
         rdf:resource="http://purl.org/dc/dcmitype/StillImage" /></cc:Work></rdf:RDF></metadata><defs
   id="defs11" /><sodipodi:namedview
   pagecolor="#ffffff"
   bordercolor="#666666"
   borderopacity="1"
   objecttolerance="10"
   gridtolerance="10"
   guidetolerance="10"
   inkscape:pageopacity="0"
   inkscape:pageshadow="2"
   inkscape:window-width="718"
   inkscape:window-height="480"
   id="namedview9"
   showgrid="false"
   inkscape:zoom="0.46075751"
   inkscape:cx="256.10001"
   inkscape:cy="256.10001"
   inkscape:window-x="0"
   inkscape:window-y="0"
   inkscape:window-maximized="0"
   inkscape:current-layer="Capa_1" />
<g
   id="g6"
   style="fill:#3ad5a0;fill-opacity:1">
	<g
   id="g4"
   style="fill:#3ad5a0;fill-opacity:1">
		<path
   d="M33.1,228.2c1.7,4,5.5,6.6,9.9,6.6h116.9v266.7c0,5.9,4.8,10.7,10.7,10.7h170.7c5.9,0,10.7-4.8,10.7-10.7V234.8h117.3    c4.3,0,8.2-2.6,9.9-6.6c1.6-4,0.7-8.6-2.3-11.6L264,3.1c-2-2-4.7-3.1-7.6-3.1c-2.8,0-5.5,1.1-7.6,3.1L35.4,216.6    C32.4,219.7,31.5,224.3,33.1,228.2z"
   id="path2"
   style="fill:#3ad5a0;fill-opacity:1" />
	</g>
</g>
</svg>