<?xml version="1.0" encoding="UTF-8" standalone="no"?>
<!-- Generator: Adobe Illustrator 24.1.1, SVG Export Plug-In . SVG Version: 6.00 Build 0)  -->

<svg
   xmlns:dc="http://purl.org/dc/elements/1.1/"
   xmlns:cc="http://creativecommons.org/ns#"
   xmlns:rdf="http://www.w3.org/1999/02/22-rdf-syntax-ns#"
   xmlns:svg="http://www.w3.org/2000/svg"
   xmlns="http://www.w3.org/2000/svg"
   xmlns:sodipodi="http://sodipodi.sourceforge.net/DTD/sodipodi-0.dtd"
   xmlns:inkscape="http://www.inkscape.org/namespaces/inkscape"
   version="1.1"
   id="Layer_1"
   x="0px"
   y="0px"
   viewBox="0 0 512 512"
   style="enable-background:new 0 0 512 512;"
   xml:space="preserve"
   sodipodi:docname="user.svg"
   inkscape:version="0.92.3 (2405546, 2018-03-11)"><metadata
   id="metadata13"><rdf:RDF><cc:Work
       rdf:about=""><dc:format>image/svg+xml</dc:format><dc:type
         rdf:resource="http://purl.org/dc/dcmitype/StillImage" /></cc:Work></rdf:RDF></metadata><defs
   id="defs11" /><sodipodi:namedview
   pagecolor="#ffffff"
   bordercolor="#666666"
   borderopacity="1"
   objecttolerance="10"
   gridtolerance="10"
   guidetolerance="10"
   inkscape:pageopacity="0"
   inkscape:pageshadow="2"
   inkscape:window-width="1433"
   inkscape:window-height="480"
   id="namedview9"
   showgrid="false"
   inkscape:zoom="0.4609375"
   inkscape:cx="-81.355932"
   inkscape:cy="309.49164"
   inkscape:window-x="0"
   inkscape:window-y="0"
   inkscape:window-maximized="0"
   inkscape:current-layer="Layer_1" />
<g
   id="g6"
   style="fill:#ff9e2e;fill-opacity:1">
	<path
   d="M434,80.2C388.8,35,326.2,7,257.1,7C188,7,125.5,35,80.2,80.2C35,125.5,7,188,7,257.1c0,68.5,27.7,131,72.9,176.4   c45.1,45.4,107.7,73.7,177.3,73.7c69.3,0,131.9-28.1,177-73.4c45.2-45.3,73.1-107.9,73.1-176.7C507.3,188,479.3,125.5,434,80.2z    M257.1,296.3c-65.2,0-130.4,25.3-179.4,75.9C55.8,338.1,44,298.4,44,257.1c0-58.8,23.9-112,62.5-150.6   C145.1,67.9,198.4,44,257.1,44c58.8,0,112,23.9,150.6,62.5c38.6,38.6,62.5,91.9,62.5,150.6c0,41.3-11.8,81-33.7,115.1   C387.6,321.6,322.3,296.3,257.1,296.3z M257.1,470.3c-29.1,0-58.3-5.9-85.4-17.8c-26.1-11.4-50.4-28.3-71.1-50.8   c20.7-22.4,44.9-39.3,71-50.7c27.2-11.9,56.3-17.8,85.5-17.8c29.2,0,58.3,5.9,85.5,17.8c26.1,11.4,50.3,28.3,71,50.7   c-20.7,22.4-45,39.3-71.1,50.7C315.4,464.4,286.3,470.3,257.1,470.3z"
   id="path2"
   style="fill:#ff9e2e;fill-opacity:1" />
	<path
   d="M257.1,65.6c-25,0-47.6,10.2-64,26.6c-16.4,16.4-26.6,39.1-26.6,64V185c0,25,10.2,47.6,26.6,64   c16.4,16.4,39.1,26.6,64,26.6c25,0,47.6-10.2,64-26.6c16.4-16.4,26.6-39.1,26.6-64v-28.8c0-25-10.2-47.6-26.6-64   C304.8,75.8,282.1,65.6,257.1,65.6z M257.1,238.6c-14.8,0-28.2-6-37.9-15.7c-9.7-9.7-15.7-23.1-15.7-37.9v-28.8   c0-14.8,6-28.2,15.7-37.9c9.7-9.7,23.1-15.7,37.9-15.7c14.8,0,28.2,6,37.9,15.7c9.7,9.7,15.7,23.1,15.7,37.9V185   c0,14.8-6,28.2-15.7,37.9C285.3,232.6,271.9,238.6,257.1,238.6z"
   id="path4"
   style="fill:#ff9e2e;fill-opacity:1" />
</g>
</svg>