<?xml version="1.0" encoding="UTF-8" standalone="no"?>
<svg
   xmlns:dc="http://purl.org/dc/elements/1.1/"
   xmlns:cc="http://creativecommons.org/ns#"
   xmlns:rdf="http://www.w3.org/1999/02/22-rdf-syntax-ns#"
   xmlns:svg="http://www.w3.org/2000/svg"
   xmlns="http://www.w3.org/2000/svg"
   xmlns:sodipodi="http://sodipodi.sourceforge.net/DTD/sodipodi-0.dtd"
   xmlns:inkscape="http://www.inkscape.org/namespaces/inkscape"
   height="384pt"
   viewBox="0 -16 384 384"
   width="384pt"
   version="1.1"
   id="svg4"
   sodipodi:docname="wallet-header.svg"
   inkscape:version="0.92.3 (2405546, 2018-03-11)">
  <metadata
     id="metadata10">
    <rdf:RDF>
      <cc:Work
         rdf:about="">
        <dc:format>image/svg+xml</dc:format>
        <dc:type
           rdf:resource="http://purl.org/dc/dcmitype/StillImage" />
      </cc:Work>
    </rdf:RDF>
  </metadata>
  <defs
     id="defs8" />
  <sodipodi:namedview
     pagecolor="#ffffff"
     bordercolor="#666666"
     borderopacity="1"
     objecttolerance="10"
     gridtolerance="10"
     guidetolerance="10"
     inkscape:pageopacity="0"
     inkscape:pageshadow="2"
     inkscape:window-width="1920"
     inkscape:window-height="1052"
     id="namedview6"
     showgrid="false"
     inkscape:zoom="0.4609375"
     inkscape:cx="-81.355932"
     inkscape:cy="256"
     inkscape:window-x="0"
     inkscape:window-y="0"
     inkscape:window-maximized="1"
     inkscape:current-layer="svg4" />
  <path
     d="m336 64v-16c0-26.472656-21.527344-48-48-48h-240c-26.472656 0-48 21.527344-48 48v256c0 26.472656 21.527344 48 48 48h288c26.472656 0 48-21.527344 48-48v-192c0-26.472656-21.527344-48-48-48zm-288-32h240c8.824219 0 16 7.175781 16 16v16h-256c-8.824219 0-16-7.175781-16-16s7.175781-16 16-16zm288 288h-288c-8.824219 0-16-7.175781-16-16v-210.742188c5.007812 1.773438 10.390625 2.742188 16 2.742188h288c8.824219 0 16 7.175781 16 16v40h-88c-30.878906 0-56 25.128906-56 56s25.121094 56 56 56h88v40c0 8.824219-7.175781 16-16 16zm16-88h-37.441406c3.519531-7.433594 5.441406-15.566406 5.441406-24 0-8.59375-2.007812-16.710938-5.480469-24h37.480469zm-112-24c0-13.230469 10.769531-24 24-24s24 10.769531 24 24c0 6.40625-2.503906 12.472656-6.9375 16.945312-4.589844 4.550782-10.65625 7.054688-17.0625 7.054688-13.230469 0-24-10.769531-24-24zm0 0"
     id="path2"
     style="fill:#ff9e2e;fill-opacity:1" />
</svg>
